<svg xmlns="http://www.w3.org/2000/svg" viewBox="0 0 426.88 343.23"><defs><style>.cls-1{isolation:isolate;}.cls-13,.cls-15,.cls-17,.cls-2,.cls-3,.cls-4,.cls-5,.cls-9{fill:none;}.cls-15,.cls-2,.cls-3,.cls-4,.cls-5{stroke:#e1e5e8;}.cls-13,.cls-15,.cls-17,.cls-2,.cls-3,.cls-4,.cls-5,.cls-6{stroke-miterlimit:10;}.cls-10,.cls-13,.cls-17,.cls-2,.cls-3,.cls-4,.cls-5,.cls-6,.cls-9{stroke-width:3px;}.cls-10,.cls-13,.cls-3,.cls-4,.cls-5,.cls-9{stroke-linecap:round;}.cls-3{stroke-dasharray:7 10;}.cls-5{stroke-dasharray:0 6;}.cls-10,.cls-6,.cls-7{fill:#fff;}.cls-10,.cls-17,.cls-6,.cls-9{stroke:#175cc4;}.cls-16,.cls-8{fill:#175cc4;}.cls-10,.cls-9{stroke-linejoin:round;}.cls-11{fill:#e1e5e8;}.cls-12{fill:#cbced1;}.cls-12,.cls-14,.cls-18,.cls-19{mix-blend-mode:multiply;}.cls-13{stroke:#9ea2a8;}.cls-14{fill:#2de0a5;}.cls-15{stroke-width:2px;}.cls-16{font-size:9.78px;font-family:Multicolore, Multicolore ;letter-spacing:0.2em;}.cls-18{fill:#f5455c;}.cls-19{fill:#ffd21f;}</style></defs><title>Artboard 1</title><g class="cls-1"><g id="Layer_1" data-name="Layer 1"><circle class="cls-2" cx="380.01" cy="90.19" r="4.64"/><circle class="cls-2" cx="273.91" cy="28.33" r="4.64"/><circle class="cls-2" cx="96.21" cy="121.51" r="4.64"/><line class="cls-3" x1="365.3" y1="90.19" x2="320.53" y2="90.19"/><line class="cls-4" x1="137.53" y1="27.79" x2="127.16" y2="27.79"/><line class="cls-4" x1="132.35" y1="22.61" x2="132.35" y2="32.97"/><line class="cls-3" x1="171.32" y1="27.79" x2="141.96" y2="27.79"/><line class="cls-3" x1="80.22" y1="121.51" x2="50.85" y2="121.51"/><line class="cls-4" x1="129.05" y1="90.19" x2="118.69" y2="90.19"/><line class="cls-4" x1="123.87" y1="85.01" x2="123.87" y2="95.37"/><line class="cls-4" x1="109.35" y1="90.19" x2="63.54" y2="90.19"/><line class="cls-4" x1="367.03" y1="42.91" x2="356.67" y2="42.91"/><line class="cls-4" x1="361.85" y1="37.73" x2="361.85" y2="48.09"/><line class="cls-4" x1="347.34" y1="42.91" x2="301.52" y2="42.91"/><line class="cls-3" x1="54.05" y1="90.19" x2="23.5" y2="90.19"/><circle class="cls-5" cx="228.16" cy="196.87" r="101.59"/><circle class="cls-2" cx="227.79" cy="195.79" r="133.6"/><rect class="cls-6" x="154.16" y="96.67" width="144.77" height="213.14"/><rect class="cls-6" x="174.56" y="56.19" width="102.63" height="20" rx="10" ry="10"/><rect class="cls-7" x="203.67" y="116.31" width="19.11" height="19.11" rx="7.25" ry="7.25"/><path class="cls-8" d="M215.53,117.81a5.76,5.76,0,0,1,5.75,5.75v4.61a5.76,5.76,0,0,1-5.75,5.75h-4.61a5.76,5.76,0,0,1-5.75-5.75v-4.61a5.76,5.76,0,0,1,5.75-5.75h4.61m0-3h-4.61a8.78,8.78,0,0,0-8.75,8.75v4.61a8.78,8.78,0,0,0,8.75,8.75h4.61a8.78,8.78,0,0,0,8.75-8.75v-4.61a8.78,8.78,0,0,0-8.75-8.75Z"/><rect class="cls-7" x="234.19" y="116.31" width="19.11" height="19.11" rx="7.25" ry="7.25"/><path class="cls-8" d="M246,117.81a5.76,5.76,0,0,1,5.75,5.75v4.61a5.76,5.76,0,0,1-5.75,5.75h-4.61a5.76,5.76,0,0,1-5.75-5.75v-4.61a5.76,5.76,0,0,1,5.75-5.75H246m0-3h-4.61a8.78,8.78,0,0,0-8.75,8.75v4.61a8.78,8.78,0,0,0,8.75,8.75H246a8.78,8.78,0,0,0,8.75-8.75v-4.61a8.78,8.78,0,0,0-8.75-8.75Z"/><rect class="cls-7" x="264.38" y="116.31" width="19.11" height="19.11" rx="7.25" ry="7.25"/><path class="cls-8" d="M276.24,117.81a5.76,5.76,0,0,1,5.75,5.75v4.61a5.76,5.76,0,0,1-5.75,5.75h-4.61a5.76,5.76,0,0,1-5.75-5.75v-4.61a5.76,5.76,0,0,1,5.75-5.75h4.61m0-3h-4.61a8.78,8.78,0,0,0-8.75,8.75v4.61a8.78,8.78,0,0,0,8.75,8.75h4.61a8.78,8.78,0,0,0,8.75-8.75v-4.61a8.78,8.78,0,0,0-8.75-8.75Z"/><path class="cls-9" d="M220.41,273.64h13.5a8.75,8.75,0,0,1,8.75,8.75v19.42a0,0,0,0,1,0,0h-31a0,0,0,0,1,0,0V282.39A8.75,8.75,0,0,1,220.41,273.64Z"/><polygon class="cls-10" points="226.28 240.67 230.41 249.04 239.65 250.38 232.96 256.9 234.54 266.1 226.28 261.76 218.01 266.1 219.59 256.9 212.91 250.38 222.15 249.04 226.28 240.67"/><line class="cls-9" x1="137.21" y1="309.81" x2="316.87" y2="309.81"/><line class="cls-9" x1="155.16" y1="301.81" x2="298.93" y2="301.81"/><rect class="cls-7" x="172.69" y="116.31" width="19.11" height="19.11" rx="7.25" ry="7.25"/><path class="cls-8" d="M184.55,117.81a5.76,5.76,0,0,1,5.75,5.75v4.61a5.76,5.76,0,0,1-5.75,5.75h-4.61a5.76,5.76,0,0,1-5.75-5.75v-4.61a5.76,5.76,0,0,1,5.75-5.75h4.61m0-3h-4.61a8.78,8.78,0,0,0-8.75,8.75v4.61a8.78,8.78,0,0,0,8.75,8.75h4.61a8.78,8.78,0,0,0,8.75-8.75v-4.61a8.78,8.78,0,0,0-8.75-8.75Z"/><rect class="cls-7" x="203.67" y="148.31" width="19.11" height="19.11" rx="7.25" ry="7.25"/><path class="cls-8" d="M215.53,149.81a5.76,5.76,0,0,1,5.75,5.75v4.61a5.76,5.76,0,0,1-5.75,5.75h-4.61a5.76,5.76,0,0,1-5.75-5.75v-4.61a5.76,5.76,0,0,1,5.75-5.75h4.61m0-3h-4.61a8.78,8.78,0,0,0-8.75,8.75v4.61a8.78,8.78,0,0,0,8.75,8.75h4.61a8.78,8.78,0,0,0,8.75-8.75v-4.61a8.78,8.78,0,0,0-8.75-8.75Z"/><rect class="cls-7" x="234.19" y="148.31" width="19.11" height="19.11" rx="7.25" ry="7.25"/><path class="cls-8" d="M246,149.81a5.76,5.76,0,0,1,5.75,5.75v4.61a5.76,5.76,0,0,1-5.75,5.75h-4.61a5.76,5.76,0,0,1-5.75-5.75v-4.61a5.76,5.76,0,0,1,5.75-5.75H246m0-3h-4.61a8.78,8.78,0,0,0-8.75,8.75v4.61a8.78,8.78,0,0,0,8.75,8.75H246a8.78,8.78,0,0,0,8.75-8.75v-4.61a8.78,8.78,0,0,0-8.75-8.75Z"/><rect class="cls-7" x="264.38" y="148.31" width="19.11" height="19.11" rx="7.25" ry="7.25"/><path class="cls-8" d="M276.24,149.81a5.76,5.76,0,0,1,5.75,5.75v4.61a5.76,5.76,0,0,1-5.75,5.75h-4.61a5.76,5.76,0,0,1-5.75-5.75v-4.61a5.76,5.76,0,0,1,5.75-5.75h4.61m0-3h-4.61a8.78,8.78,0,0,0-8.75,8.75v4.61a8.78,8.78,0,0,0,8.75,8.75h4.61a8.78,8.78,0,0,0,8.75-8.75v-4.61a8.78,8.78,0,0,0-8.75-8.75Z"/><rect class="cls-7" x="172.69" y="148.31" width="19.11" height="19.11" rx="7.25" ry="7.25"/><path class="cls-8" d="M184.55,149.81a5.76,5.76,0,0,1,5.75,5.75v4.61a5.76,5.76,0,0,1-5.75,5.75h-4.61a5.76,5.76,0,0,1-5.75-5.75v-4.61a5.76,5.76,0,0,1,5.75-5.75h4.61m0-3h-4.61a8.78,8.78,0,0,0-8.75,8.75v4.61a8.78,8.78,0,0,0,8.75,8.75h4.61a8.78,8.78,0,0,0,8.75-8.75v-4.61a8.78,8.78,0,0,0-8.75-8.75Z"/><rect class="cls-7" x="203.67" y="179.31" width="19.11" height="19.11" rx="7.25" ry="7.25"/><path class="cls-8" d="M215.53,180.81a5.76,5.76,0,0,1,5.75,5.75v4.61a5.76,5.76,0,0,1-5.75,5.75h-4.61a5.76,5.76,0,0,1-5.75-5.75v-4.61a5.76,5.76,0,0,1,5.75-5.75h4.61m0-3h-4.61a8.78,8.78,0,0,0-8.75,8.75v4.61a8.78,8.78,0,0,0,8.75,8.75h4.61a8.78,8.78,0,0,0,8.75-8.75v-4.61a8.78,8.78,0,0,0-8.75-8.75Z"/><rect class="cls-7" x="234.19" y="179.31" width="19.11" height="19.11" rx="7.25" ry="7.25"/><path class="cls-8" d="M246,180.81a5.76,5.76,0,0,1,5.75,5.75v4.61a5.76,5.76,0,0,1-5.75,5.75h-4.61a5.76,5.76,0,0,1-5.75-5.75v-4.61a5.76,5.76,0,0,1,5.75-5.75H246m0-3h-4.61a8.78,8.78,0,0,0-8.75,8.75v4.61a8.78,8.78,0,0,0,8.75,8.75H246a8.78,8.78,0,0,0,8.75-8.75v-4.61a8.78,8.78,0,0,0-8.75-8.75Z"/><rect class="cls-7" x="264.38" y="179.31" width="19.11" height="19.11" rx="7.25" ry="7.25"/><path class="cls-8" d="M276.24,180.81a5.76,5.76,0,0,1,5.75,5.75v4.61a5.76,5.76,0,0,1-5.75,5.75h-4.61a5.76,5.76,0,0,1-5.75-5.75v-4.61a5.76,5.76,0,0,1,5.75-5.75h4.61m0-3h-4.61a8.78,8.78,0,0,0-8.75,8.75v4.61a8.78,8.78,0,0,0,8.75,8.75h4.61a8.78,8.78,0,0,0,8.75-8.75v-4.61a8.78,8.78,0,0,0-8.75-8.75Z"/><rect class="cls-7" x="172.69" y="179.31" width="19.11" height="19.11" rx="7.25" ry="7.25"/><path class="cls-8" d="M184.55,180.81a5.76,5.76,0,0,1,5.75,5.75v4.61a5.76,5.76,0,0,1-5.75,5.75h-4.61a5.76,5.76,0,0,1-5.75-5.75v-4.61a5.76,5.76,0,0,1,5.75-5.75h4.61m0-3h-4.61a8.78,8.78,0,0,0-8.75,8.75v4.61a8.78,8.78,0,0,0,8.75,8.75h4.61a8.78,8.78,0,0,0,8.75-8.75v-4.61a8.78,8.78,0,0,0-8.75-8.75Z"/><rect class="cls-7" x="203.67" y="210.31" width="19.11" height="19.11" rx="7.25" ry="7.25"/><path class="cls-8" d="M215.53,211.81a5.76,5.76,0,0,1,5.75,5.75v4.61a5.76,5.76,0,0,1-5.75,5.75h-4.61a5.76,5.76,0,0,1-5.75-5.75v-4.61a5.76,5.76,0,0,1,5.75-5.75h4.61m0-3h-4.61a8.78,8.78,0,0,0-8.75,8.75v4.61a8.78,8.78,0,0,0,8.75,8.75h4.61a8.78,8.78,0,0,0,8.75-8.75v-4.61a8.78,8.78,0,0,0-8.75-8.75Z"/><rect class="cls-7" x="234.19" y="210.31" width="19.11" height="19.11" rx="7.25" ry="7.25"/><path class="cls-8" d="M246,211.81a5.76,5.76,0,0,1,5.75,5.75v4.61a5.76,5.76,0,0,1-5.75,5.75h-4.61a5.76,5.76,0,0,1-5.75-5.75v-4.61a5.76,5.76,0,0,1,5.75-5.75H246m0-3h-4.61a8.78,8.78,0,0,0-8.75,8.75v4.61a8.78,8.78,0,0,0,8.75,8.75H246a8.78,8.78,0,0,0,8.75-8.75v-4.61a8.78,8.78,0,0,0-8.75-8.75Z"/><rect class="cls-7" x="264.38" y="210.31" width="19.11" height="19.11" rx="7.25" ry="7.25"/><path class="cls-8" d="M276.24,211.81a5.76,5.76,0,0,1,5.75,5.75v4.61a5.76,5.76,0,0,1-5.75,5.75h-4.61a5.76,5.76,0,0,1-5.75-5.75v-4.61a5.76,5.76,0,0,1,5.75-5.75h4.61m0-3h-4.61a8.78,8.78,0,0,0-8.75,8.75v4.61a8.78,8.78,0,0,0,8.75,8.75h4.61a8.78,8.78,0,0,0,8.75-8.75v-4.61a8.78,8.78,0,0,0-8.75-8.75Z"/><rect class="cls-7" x="172.69" y="210.31" width="19.11" height="19.11" rx="7.25" ry="7.25"/><path class="cls-8" d="M184.55,211.81a5.76,5.76,0,0,1,5.75,5.75v4.61a5.76,5.76,0,0,1-5.75,5.75h-4.61a5.76,5.76,0,0,1-5.75-5.75v-4.61a5.76,5.76,0,0,1,5.75-5.75h4.61m0-3h-4.61a8.78,8.78,0,0,0-8.75,8.75v4.61a8.78,8.78,0,0,0,8.75,8.75h4.61a8.78,8.78,0,0,0,8.75-8.75v-4.61a8.78,8.78,0,0,0-8.75-8.75Z"/><rect class="cls-7" x="284.27" y="129.64" width="40.16" height="21.67" rx="10" ry="10"/><rect class="cls-7" x="277.44" y="223.34" width="38.13" height="21.67" rx="10" ry="10"/><rect class="cls-11" x="278.22" y="220.09" width="72.57" height="21.67" rx="10" ry="10"/><rect class="cls-12" x="167.58" y="181.37" width="22.11" height="22.11" rx="8.75" ry="8.75"/><line class="cls-13" x1="310.71" y1="227.28" x2="287.15" y2="227.28"/><line class="cls-13" x1="339.21" y1="234.17" x2="287.15" y2="234.17"/><rect class="cls-14" x="198.55" y="150.36" width="22.11" height="22.11" rx="8.75" ry="8.75"/><rect class="cls-7" x="139.75" y="162.4" width="63.45" height="21.67" rx="10" ry="10"/><path class="cls-11" d="M191.22,158.7H213s-7.07,1.75-7.07,12h-7.21"/><circle class="cls-15" cx="130.55" cy="133.5" r="4.64"/><circle class="cls-15" cx="112.2" cy="212.37" r="4.64"/><circle class="cls-15" cx="313.13" cy="114.81" r="4.64"/><circle class="cls-15" cx="345.48" cy="187.49" r="4.64" transform="translate(-46.08 153.03) rotate(-23.46)"/><circle class="cls-15" cx="320.53" cy="269.52" r="4.64" transform="translate(-80.8 149.87) rotate(-23.46)"/><line class="cls-9" x1="226.54" y1="273.64" x2="226.54" y2="301.81"/><line class="cls-9" x1="257.88" y1="275.64" x2="284.16" y2="275.64"/><line class="cls-9" x1="257.88" y1="284.18" x2="284.16" y2="284.18"/><line class="cls-9" x1="171.47" y1="275.64" x2="197.76" y2="275.64"/><line class="cls-9" x1="171.47" y1="284.18" x2="197.76" y2="284.18"/><text class="cls-16" transform="translate(183.61 69.59)">MY BUSINESS</text><rect class="cls-6" x="148.17" y="85.81" width="156.19" height="13.72" rx="6.47" ry="6.47"/><line class="cls-17" x1="196.96" y1="75.36" x2="196.96" y2="86.36"/><line class="cls-17" x1="256.21" y1="75.19" x2="256.21" y2="86.19"/><rect class="cls-18" x="259.55" y="118.36" width="22.11" height="22.11" rx="8.75" ry="8.75"/><rect class="cls-11" x="283.05" y="126.31" width="93.98" height="21.67" rx="10" ry="10"/><path class="cls-11" d="M297.72,126.31H275.91s7.07,1.75,7.07,12h7.21"/><line class="cls-13" x1="366.2" y1="133.5" x2="291.99" y2="133.5"/><line class="cls-13" x1="334.28" y1="140.39" x2="291.99" y2="140.39"/><line class="cls-13" x1="350.78" y1="140.39" x2="342.18" y2="140.39"/><rect class="cls-12" x="228.66" y="118.36" width="22.11" height="22.11" rx="8.75" ry="8.75"/><rect class="cls-12" x="198.55" y="118.36" width="22.11" height="22.11" rx="8.75" ry="8.75"/><rect class="cls-12" x="167.58" y="118.36" width="22.11" height="22.11" rx="8.75" ry="8.75"/><rect class="cls-12" x="167.58" y="150.36" width="22.11" height="22.11" rx="8.75" ry="8.75"/><rect class="cls-11" x="112.2" y="158.7" width="93.98" height="21.67" rx="10" ry="10"/><line class="cls-13" x1="156.21" y1="166.34" x2="145.78" y2="166.34"/><line class="cls-13" x1="195.61" y1="167.34" x2="162.54" y2="167.34"/><line class="cls-13" x1="195.27" y1="173.23" x2="125.62" y2="173.23"/><rect class="cls-12" x="228.66" y="150.36" width="22.11" height="22.11" rx="8.75" ry="8.75"/><rect class="cls-12" x="259.55" y="150.36" width="22.11" height="22.11" rx="8.75" ry="8.75"/><rect class="cls-12" x="198.55" y="181.37" width="22.11" height="22.11" rx="8.75" ry="8.75"/><rect class="cls-12" x="259.55" y="181.37" width="22.11" height="22.11" rx="8.75" ry="8.75"/><rect class="cls-12" x="228.66" y="181.37" width="22.11" height="22.11" rx="8.75" ry="8.75"/><rect class="cls-19" x="259.55" y="212.37" width="22.11" height="22.11" rx="8.75" ry="8.75"/><rect class="cls-12" x="228.66" y="212.37" width="22.11" height="22.11" rx="8.75" ry="8.75"/><rect class="cls-12" x="198.55" y="212.37" width="22.11" height="22.11" rx="8.75" ry="8.75"/><rect class="cls-12" x="167.58" y="212.37" width="22.11" height="22.11" rx="8.75" ry="8.75"/><path class="cls-11" d="M292.88,220.09H271.07s7.07,1.75,7.07,12h7.21"/></g></g></svg>