<svg xmlns="http://www.w3.org/2000/svg" viewBox="0 0 426.88 343.23"><defs><style>.cls-1{isolation:isolate;}.cls-12,.cls-13,.cls-14,.cls-15,.cls-16,.cls-2,.cls-20,.cls-3,.cls-7,.cls-8,.cls-9{fill:none;}.cls-12,.cls-15,.cls-16,.cls-2,.cls-20,.cls-3{stroke:#e1e5e8;}.cls-13,.cls-14,.cls-15,.cls-16,.cls-2,.cls-20,.cls-21,.cls-7{stroke-linecap:round;}.cls-10,.cls-12,.cls-13,.cls-14,.cls-15,.cls-16,.cls-2,.cls-20,.cls-3,.cls-4,.cls-7,.cls-8,.cls-9{stroke-miterlimit:10;}.cls-13,.cls-15,.cls-16,.cls-2,.cls-3{stroke-width:3px;}.cls-2{stroke-dasharray:0 6;}.cls-10,.cls-4,.cls-6{fill:#fff;}.cls-4,.cls-7,.cls-8{stroke:#175cc4;}.cls-10,.cls-12,.cls-14,.cls-20,.cls-4,.cls-7,.cls-8,.cls-9{stroke-width:2px;}.cls-5{fill:#2f343d;}.cls-10,.cls-9{stroke:#2f343d;}.cls-11{fill:#e1e5e8;}.cls-13{stroke:#9ea2a8;}.cls-14,.cls-21{stroke:#4c5460;}.cls-16{stroke-dasharray:7 10;}.cls-17{fill:#f5455c;}.cls-17,.cls-18,.cls-19{mix-blend-mode:multiply;}.cls-18{fill:#ffd21f;}.cls-19{fill:#2de0a5;}.cls-21{fill:#4c5460;stroke-linejoin:round;stroke-width:0.5px;}</style></defs><title>Artboard 1</title><g class="cls-1"><g id="Layer_1" data-name="Layer 1"><circle class="cls-2" cx="212.54" cy="185.5" r="78.22"/><circle class="cls-2" cx="211.6" cy="183.21" r="122.62" transform="translate(-54.4 96.14) rotate(-22.76)"/><circle class="cls-3" cx="210.99" cy="182.68" r="133.6"/><rect class="cls-4" x="136.15" y="211.5" width="58.67" height="26.67"/><rect class="cls-4" x="67.99" y="79.5" width="195" height="132" rx="10" ry="10"/><path class="cls-5" d="M82.45,88.5h26.47a0,0,0,0,1,0,0v101a0,0,0,0,1,0,0H82.45a5.37,5.37,0,0,1-5.37-5.37V93.87A5.37,5.37,0,0,1,82.45,88.5Z"/><rect class="cls-6" x="108.92" y="88.5" width="144.96" height="101"/><line class="cls-7" x1="127.65" y1="238.17" x2="203.32" y2="238.17"/><rect class="cls-8" x="77.09" y="88.5" width="176.79" height="101" rx="4.75" ry="4.75"/><circle class="cls-4" cx="165.49" cy="224.83" r="7.25"/><circle class="cls-3" cx="123.02" cy="53.73" r="4.64"/><circle class="cls-3" cx="404.93" cy="126.47" r="4.64"/><circle class="cls-3" cx="332.22" cy="58.37" r="4.64"/><polygon class="cls-5" points="142.47 63.2 142.47 63.2 142.47 63.2 142.47 63.2"/><circle class="cls-9" cx="127.77" cy="108.29" r="10.83"/><path class="cls-5" d="M127.77,109.09A9,9,0,0,0,119.3,115a10.89,10.89,0,0,0,1.6,1.63,7,7,0,0,1,13.73,0,10.89,10.89,0,0,0,1.6-1.63A9,9,0,0,0,127.77,109.09Z"/><polygon class="cls-5" points="94.14 116.67 94.14 116.67 94.14 116.67 94.14 116.67"/><circle class="cls-10" cx="127.77" cy="106.45" r="4.66"/><circle class="cls-9" cx="232.76" cy="137.3" r="10.83"/><path class="cls-5" d="M232.76,138.1a9,9,0,0,0-8.47,5.95,10.89,10.89,0,0,0,1.6,1.63,7,7,0,0,1,13.73,0,10.89,10.89,0,0,0,1.6-1.63A9,9,0,0,0,232.76,138.1Z"/><circle class="cls-10" cx="232.76" cy="135.46" r="4.66"/><rect class="cls-11" x="149.61" y="97.46" width="93.98" height="21.67" rx="10" ry="10"/><rect class="cls-11" x="115.77" y="126.47" width="93.98" height="21.67" rx="10" ry="10"/><path class="cls-11" d="M164.28,97.46H142.47s7.07,1.75,7.07,12h7.21"/><path class="cls-11" d="M194.78,126.47h21.81s-7.07,1.75-7.07,12h-7.21"/><circle class="cls-9" cx="127.77" cy="166.31" r="10.83"/><path class="cls-5" d="M127.77,167.11a9,9,0,0,0-8.47,5.95,10.89,10.89,0,0,0,1.6,1.63,7,7,0,0,1,13.73,0,10.89,10.89,0,0,0,1.6-1.63A9,9,0,0,0,127.77,167.11Z"/><circle class="cls-10" cx="127.77" cy="164.47" r="4.66"/><rect class="cls-11" x="149.61" y="155.48" width="93.98" height="21.67" rx="10" ry="10"/><path class="cls-11" d="M164.28,155.48H142.47s7.07,1.75,7.07,12h7.21"/><rect class="cls-4" x="219.65" y="167.44" width="86.67" height="168" rx="10" ry="10"/><rect class="cls-12" x="153.02" y="264.63" width="26.16" height="17.07" rx="0.68" ry="0.68" transform="matrix(0.56, -0.83, 0.83, 0.56, -153.31, 259.64)"/><rect class="cls-4" x="227.15" y="184.61" width="71.5" height="123.5" rx="4.67" ry="4.67"/><line class="cls-7" x1="253.92" y1="176.11" x2="270.15" y2="176.11"/><circle class="cls-8" cx="262.04" cy="321.86" r="7.25"/><line class="cls-13" x1="232.76" y1="104.65" x2="158.55" y2="104.65"/><line class="cls-13" x1="200.84" y1="111.54" x2="158.55" y2="111.54"/><line class="cls-13" x1="217.34" y1="111.54" x2="208.74" y2="111.54"/><line class="cls-13" x1="182.34" y1="161.87" x2="158.55" y2="161.87"/><line class="cls-13" x1="212.84" y1="161.87" x2="189.05" y2="161.87"/><line class="cls-13" x1="200.84" y1="168.76" x2="158.55" y2="168.76"/><line class="cls-13" x1="159.78" y1="134.11" x2="149.34" y2="134.11"/><line class="cls-14" x1="102.17" y1="125.09" x2="85.56" y2="125.09"/><line class="cls-14" x1="102.17" y1="119.44" x2="85.56" y2="119.44"/><line class="cls-14" x1="102.17" y1="142.38" x2="85.56" y2="142.38"/><line class="cls-14" x1="102.17" y1="136.73" x2="85.56" y2="136.73"/><line class="cls-14" x1="102.17" y1="130.75" x2="85.56" y2="130.75"/><line class="cls-14" x1="102.17" y1="181.76" x2="85.56" y2="181.76"/><line class="cls-14" x1="102.17" y1="176.11" x2="85.56" y2="176.11"/><line class="cls-13" x1="199.17" y1="134.11" x2="166.1" y2="134.11"/><line class="cls-13" x1="198.84" y1="141" x2="140.05" y2="141"/><circle class="cls-9" cx="247.26" cy="205.03" r="10.83"/><path class="cls-5" d="M247.26,205.83a9,9,0,0,0-8.47,5.95,10.89,10.89,0,0,0,1.6,1.63,7,7,0,0,1,13.73,0,10.89,10.89,0,0,0,1.6-1.63A9,9,0,0,0,247.26,205.83Z"/><circle class="cls-10" cx="247.26" cy="203.19" r="4.66"/><circle class="cls-9" cx="247.26" cy="284.83" r="10.83"/><path class="cls-5" d="M247.26,285.63a9,9,0,0,0-8.47,5.95,10.89,10.89,0,0,0,1.6,1.63,7,7,0,0,1,13.73,0,10.89,10.89,0,0,0,1.6-1.63A9,9,0,0,0,247.26,285.63Z"/><circle class="cls-10" cx="247.26" cy="282.99" r="4.66"/><circle class="cls-9" cx="280.29" cy="250.38" r="10.83"/><path class="cls-5" d="M280.29,251.18a9,9,0,0,0-8.47,5.95,10.89,10.89,0,0,0,1.6,1.63,7,7,0,0,1,13.73,0,10.89,10.89,0,0,0,1.6-1.63A9,9,0,0,0,280.29,251.18Z"/><circle class="cls-10" cx="280.29" cy="248.53" r="4.66"/><rect class="cls-11" x="267.2" y="195" width="24.82" height="37" rx="10" ry="10"/><path class="cls-11" d="M280.29,194.87H260.67s6.36,1.75,6.36,12h6.49"/><path class="cls-11" d="M280.29,273.19H260.67s6.36,1.75,6.36,12h6.49"/><line class="cls-13" x1="283.34" y1="202.19" x2="274.74" y2="202.19"/><line class="cls-13" x1="283.34" y1="209.19" x2="274.74" y2="209.19"/><rect class="cls-11" x="236.56" y="238.75" width="24.82" height="23.41" rx="10" ry="10"/><path class="cls-11" d="M248,238.63h19.61s-6.36,1.75-6.36,12H254.8"/><line class="cls-13" x1="252.7" y1="246.94" x2="244.11" y2="246.94"/><line class="cls-13" x1="252.7" y1="253.94" x2="244.11" y2="253.94"/><rect class="cls-11" x="267.05" y="273.16" width="24.82" height="23.41" rx="10" ry="10"/><line class="cls-13" x1="284.02" y1="281.38" x2="275.43" y2="281.38"/><line class="cls-13" x1="284.02" y1="288.38" x2="275.43" y2="288.38"/><line class="cls-13" x1="283.34" y1="216.19" x2="274.74" y2="216.19"/><line class="cls-13" x1="283.34" y1="223.19" x2="274.74" y2="223.19"/><line class="cls-15" x1="54.77" y1="53.73" x2="31.18" y2="53.73"/><line class="cls-15" x1="56.23" y1="101.79" x2="45.86" y2="101.79"/><line class="cls-15" x1="51.04" y1="96.61" x2="51.04" y2="106.97"/><line class="cls-15" x1="249.29" y1="24.06" x2="238.93" y2="24.06"/><line class="cls-15" x1="244.11" y1="18.87" x2="244.11" y2="29.24"/><line class="cls-15" x1="26.75" y1="135.46" x2="16.39" y2="135.46"/><line class="cls-15" x1="21.57" y1="130.28" x2="21.57" y2="140.64"/><line class="cls-16" x1="106.27" y1="53.73" x2="64.27" y2="53.73"/><line class="cls-15" x1="354.68" y1="126.47" x2="332.22" y2="126.47"/><line class="cls-16" x1="389.74" y1="126.47" x2="359.18" y2="126.47"/><line class="cls-16" x1="317.51" y1="58.37" x2="272.74" y2="58.37"/><line class="cls-16" x1="359.18" y1="92.42" x2="309.83" y2="92.42"/><line class="cls-16" x1="60.55" y1="135.46" x2="31.18" y2="135.46"/><line class="cls-15" x1="229.59" y1="24.06" x2="183.78" y2="24.06"/><line class="cls-16" x1="174.29" y1="24.06" x2="143.74" y2="24.06"/><path class="cls-17" d="M125.89,171.1a8.76,8.76,0,0,0-8.56,7,13.5,13.5,0,0,0,17.13,0A8.76,8.76,0,0,0,125.89,171.1Z"/><path class="cls-17" d="M246.11,289.42a8.76,8.76,0,0,0-8.56,7,13.5,13.5,0,0,0,17.13,0A8.76,8.76,0,0,0,246.11,289.42Z"/><path class="cls-18" d="M125.89,112.88a8.76,8.76,0,0,0-8.56,7,13.5,13.5,0,0,0,17.13,0A8.76,8.76,0,0,0,125.89,112.88Z"/><path class="cls-18" d="M246.11,209.85a8.76,8.76,0,0,0-8.56,7,13.5,13.5,0,0,0,17.13,0A8.76,8.76,0,0,0,246.11,209.85Z"/><path class="cls-19" d="M230.49,141.89a8.76,8.76,0,0,0-8.56,7,13.5,13.5,0,0,0,17.13,0A8.76,8.76,0,0,0,230.49,141.89Z"/><path class="cls-19" d="M279,255.18a8.76,8.76,0,0,0-8.56,7,13.5,13.5,0,0,0,17.13,0A8.76,8.76,0,0,0,279,255.18Z"/><path class="cls-12" d="M165.23,259.09l-12.45,18.66a1.85,1.85,0,0,0-.31,1.17l15.3-3.05a1.88,1.88,0,0,0,1.47-2.2l-3.05-15.3A1.85,1.85,0,0,0,165.23,259.09Z"/><rect class="cls-12" x="286.78" y="126.93" width="26.16" height="17.07" rx="0.68" ry="0.68" transform="translate(-29.04 145.09) rotate(-25.99)"/><path class="cls-12" d="M306.2,122.87,286,132.7a1.85,1.85,0,0,0-.85.86l14.75,5.08a1.88,1.88,0,0,0,2.38-1.16l5.08-14.75A1.85,1.85,0,0,0,306.2,122.87Z"/><line class="cls-20" x1="273.46" y1="103.62" x2="274.65" y2="109.5"/><line class="cls-20" x1="280.08" y1="102.28" x2="273.46" y2="103.62"/><line class="cls-20" x1="307.13" y1="148.02" x2="305.16" y2="153.69"/><line class="cls-20" x1="313.5" y1="150.24" x2="307.13" y2="148.02"/><line class="cls-20" x1="152.9" y1="265.33" x2="151.87" y2="259.42"/><line class="cls-20" x1="146.25" y1="266.5" x2="152.9" y2="265.33"/><line class="cls-20" x1="213" y1="287.3" x2="208.67" y2="283.14"/><line class="cls-20" x1="208.32" y1="292.17" x2="213" y2="287.3"/><path class="cls-11" d="M290.55,121.86h0a1.51,1.51,0,0,1,.25-2.11h0a1.51,1.51,0,0,1,2.11.25h0a1.5,1.5,0,0,1-.26,2.11h0a1.51,1.51,0,0,1-.92.32h0A1.5,1.5,0,0,1,290.55,121.86Z"/><path class="cls-11" d="M286.76,117.33a1.5,1.5,0,0,1,.13-2.12h0a1.5,1.5,0,0,1,2.11.12h0a1.5,1.5,0,0,1-.12,2.12h0a1.47,1.47,0,0,1-1,.38h0A1.51,1.51,0,0,1,286.76,117.33Z"/><path class="cls-11" d="M282.71,113a1.51,1.51,0,0,1,0-2.12h0a1.49,1.49,0,0,1,2.12,0h0a1.49,1.49,0,0,1,0,2.12h0a1.49,1.49,0,0,1-1.06.44h0A1.52,1.52,0,0,1,282.71,113Z"/><path class="cls-11" d="M278.41,109a1.5,1.5,0,0,1-.12-2.12h0a1.49,1.49,0,0,1,2.11-.12h0a1.49,1.49,0,0,1,.13,2.11h0a1.49,1.49,0,0,1-1.12.51h0A1.52,1.52,0,0,1,278.41,109Z"/><path class="cls-11" d="M310.57,214.67a1.5,1.5,0,0,1-1-1.86h0a1.5,1.5,0,0,1,1.86-1h0a1.49,1.49,0,0,1,1,1.86h0a1.51,1.51,0,0,1-1.44,1.08h0A1.52,1.52,0,0,1,310.57,214.67Z"/><path class="cls-11" d="M312.16,208.88a1.49,1.49,0,0,1-1.13-1.79h0a1.49,1.49,0,0,1,1.79-1.13h0a1.49,1.49,0,0,1,1.13,1.79h0a1.49,1.49,0,0,1-1.46,1.17h0A1.25,1.25,0,0,1,312.16,208.88Z"/><path class="cls-11" d="M313.4,203a1.5,1.5,0,0,1-1.24-1.72h0a1.51,1.51,0,0,1,1.72-1.24h0a1.5,1.5,0,0,1,1.24,1.73h0a1.5,1.5,0,0,1-1.48,1.25h0A1,1,0,0,1,313.4,203Z"/><path class="cls-11" d="M314.29,197.08a1.5,1.5,0,0,1-1.34-1.65h0a1.51,1.51,0,0,1,1.65-1.34h0a1.5,1.5,0,0,1,1.33,1.65h0a1.5,1.5,0,0,1-1.49,1.35h-.15Z"/><path class="cls-11" d="M314.82,191.1a1.5,1.5,0,0,1-1.43-1.57h0A1.51,1.51,0,0,1,315,188.1h0a1.51,1.51,0,0,1,1.43,1.57h0a1.5,1.5,0,0,1-1.5,1.43h-.07Z"/><path class="cls-11" d="M313.48,183.62h0A1.5,1.5,0,0,1,315,182.1h0a1.51,1.51,0,0,1,1.52,1.48h0A1.5,1.5,0,0,1,315,185.1h0A1.5,1.5,0,0,1,313.48,183.62Z"/><path class="cls-11" d="M313.21,177.72a1.5,1.5,0,0,1,1.39-1.61h0a1.51,1.51,0,0,1,1.61,1.38h0a1.5,1.5,0,0,1-1.39,1.61h-.11A1.51,1.51,0,0,1,313.21,177.72Z"/><path class="cls-11" d="M312.6,171.84h0a1.5,1.5,0,0,1,1.28-1.69h0a1.51,1.51,0,0,1,1.69,1.29h0a1.49,1.49,0,0,1-1.29,1.68h0l-.2,0h0A1.5,1.5,0,0,1,312.6,171.84Z"/><path class="cls-11" d="M311.63,166a1.49,1.49,0,0,1,1.19-1.76h0a1.49,1.49,0,0,1,1.75,1.18h0a1.5,1.5,0,0,1-1.19,1.76h0a1.35,1.35,0,0,1-.29,0h0A1.51,1.51,0,0,1,311.63,166Z"/><path class="cls-11" d="M310.32,160.24a1.48,1.48,0,0,1,1.08-1.82h0a1.48,1.48,0,0,1,1.82,1.07h0a1.5,1.5,0,0,1-1.07,1.83h0a1.66,1.66,0,0,1-.38,0h0A1.5,1.5,0,0,1,310.32,160.24Z"/><path class="cls-11" d="M308.67,154.57h0a1.5,1.5,0,0,1,1-1.89h0a1.49,1.49,0,0,1,1.88,1h0a1.49,1.49,0,0,1-1,1.89h0a1.48,1.48,0,0,1-.46.08h0A1.5,1.5,0,0,1,308.67,154.57Z"/><path class="cls-11" d="M203.14,288.84a1.49,1.49,0,0,1-1.3-1.67h0a1.51,1.51,0,0,1,1.67-1.3h0a1.51,1.51,0,0,1,1.3,1.67h0a1.5,1.5,0,0,1-1.64,1.31h0Z"/><path class="cls-11" d="M197.12,287.92a1.49,1.49,0,0,1-1.21-1.74h0a1.49,1.49,0,0,1,1.74-1.21h0a1.5,1.5,0,0,1,1.21,1.74h0a1.49,1.49,0,0,1-1.63,1.22h-.12Z"/><path class="cls-11" d="M191.16,286.64a1.51,1.51,0,0,1-1.1-1.81h0a1.49,1.49,0,0,1,1.81-1.1h0a1.51,1.51,0,0,1,1.11,1.81h0a1.51,1.51,0,0,1-1.62,1.13h0Z"/><path class="cls-11" d="M185.3,285a1.5,1.5,0,0,1-1-1.88h0a1.49,1.49,0,0,1,1.87-1h0a1.49,1.49,0,0,1,1,1.87h0a1.51,1.51,0,0,1-1.59,1.05h0Z"/><path class="cls-11" d="M178.75,282.83a1.5,1.5,0,0,1-1-1.88h0a1.49,1.49,0,0,1,1.87-1h0a1.49,1.49,0,0,1,1,1.87h0a1.51,1.51,0,0,1-1.59,1.05h0Z"/><path class="cls-11" d="M145,261.66a1.5,1.5,0,0,1-.12-2.12h0a1.51,1.51,0,0,1,2.12-.12h0a1.51,1.51,0,0,1,.12,2.12h0a1.51,1.51,0,0,1-1.12.5h0A1.47,1.47,0,0,1,145,261.66Z"/><path class="cls-11" d="M140.62,257.48a1.51,1.51,0,0,1,0-2.12h0a1.52,1.52,0,0,1,2.13,0h0a1.5,1.5,0,0,1,0,2.12h0a1.48,1.48,0,0,1-1.06.43h0A1.47,1.47,0,0,1,140.62,257.48Z"/><path class="cls-11" d="M136.46,253a1.5,1.5,0,0,1,.13-2.12h0a1.5,1.5,0,0,1,2.12.13h0a1.5,1.5,0,0,1-.13,2.12h0a1.47,1.47,0,0,1-1,.37h0A1.5,1.5,0,0,1,136.46,253Z"/><path class="cls-11" d="M132.57,248.37a1.49,1.49,0,0,1,.25-2.1h0a1.51,1.51,0,0,1,2.11.25h0a1.51,1.51,0,0,1-.26,2.11h0a1.51,1.51,0,0,1-.92.32h0A1.48,1.48,0,0,1,132.57,248.37Z"/><path class="cls-11" d="M129,243.47h0a1.51,1.51,0,0,1,.38-2.09h0a1.5,1.5,0,0,1,2.09.39h0a1.49,1.49,0,0,1-.38,2.08h0a1.53,1.53,0,0,1-.86.27h0A1.5,1.5,0,0,1,129,243.47Z"/><path class="cls-11" d="M122.65,233.07a1.5,1.5,0,0,1,.62-2h0a1.5,1.5,0,0,1,2,.62h0a1.5,1.5,0,0,1-.62,2h0a1.51,1.51,0,0,1-.71.17h0A1.51,1.51,0,0,1,122.65,233.07Z"/><path class="cls-11" d="M120,227.6h0a1.49,1.49,0,0,1,.75-2h0a1.5,1.5,0,0,1,2,.74h0a1.49,1.49,0,0,1-.74,2h0a1.5,1.5,0,0,1-.62.13h0A1.48,1.48,0,0,1,120,227.6Z"/><path class="cls-11" d="M117.61,222a1.49,1.49,0,0,1,.85-1.94h0a1.5,1.5,0,0,1,1.94.86h0a1.5,1.5,0,0,1-.85,1.94h0a1.53,1.53,0,0,1-.55.1h0A1.47,1.47,0,0,1,117.61,222Z"/><path class="cls-11" d="M115.58,216.25a1.48,1.48,0,0,1,1-1.88h0a1.49,1.49,0,0,1,1.88,1h0a1.5,1.5,0,0,1-1,1.88h0a1.47,1.47,0,0,1-.46.07h0A1.48,1.48,0,0,1,115.58,216.25Z"/><path class="cls-21" d="M103.34,104.63a4.85,4.85,0,0,0-.85-2.71,7,7,0,0,0-2.1-2A11.92,11.92,0,0,0,94,98.22a13.56,13.56,0,0,0-2.34.2,7.73,7.73,0,0,0-1.61-1.15,6.43,6.43,0,0,0-5.71,0s2.41,2,2,3.71a5.2,5.2,0,0,0-1.66,3.69h0a5.2,5.2,0,0,0,1.66,3.69c.39,1.73-2,3.71-2,3.71a6.43,6.43,0,0,0,5.71,0,7.75,7.75,0,0,0,1.61-1.15,13.59,13.59,0,0,0,2.34.2,11.92,11.92,0,0,0,6.35-1.7,7,7,0,0,0,2.1-2,4.85,4.85,0,0,0,.85-2.71h0ZM94,109.75a12.07,12.07,0,0,1-2.79-.32c-.88,1.06-2.82,2.54-4.71,2.06a4.34,4.34,0,0,0,1.33-3.6,4.16,4.16,0,0,1-1.81-3.23c0-2.81,3.57-5.1,8-5.1s8,2.28,8,5.1S98.45,109.75,94,109.75Z"/><circle class="cls-21" cx="94.05" cy="104.82" r="1.06"/><circle class="cls-21" cx="97.73" cy="104.82" r="1.06"/><circle class="cls-21" cx="90.36" cy="104.82" r="1.06"/></g></g></svg>