<svg xmlns="http://www.w3.org/2000/svg" width="1920" height="221" viewBox="0 0 1920 221">
  <metadata><?xpacket begin="﻿" id="W5M0MpCehiHzreSzNTczkc9d"?>
<x:xmpmeta xmlns:x="adobe:ns:meta/" x:xmptk="Adobe XMP Core 5.6-c138 79.159824, 2016/09/14-01:09:01        ">
   <rdf:RDF xmlns:rdf="http://www.w3.org/1999/02/22-rdf-syntax-ns#">
      <rdf:Description rdf:about=""/>
   </rdf:RDF>
</x:xmpmeta>
                                                                                                    
                                                                                                    
                                                                                                    
                                                                                                    
                                                                                                    
                                                                                                    
                                                                                                    
                                                                                                    
                                                                                                    
                                                                                                    
                                                                                                    
                                                                                                    
                                                                                                    
                                                                                                    
                                                                                                    
                                                                                                    
                                                                                                    
                                                                                                    
                                                                                                    
                                                                                                    
                           
<?xpacket end="w"?></metadata>
<defs>
    <style>
      .cls-1 {
        fill: #91b3e5;
        fill-rule: evenodd;
      }
    </style>
  </defs>
  <path class="cls-1" d="M-6,217.7C-6.025,222.023-4.862,223.03.165,223c36.161-.215,72.325-0.115,108.489-0.115H1828.41c29.63,0,59.25-.1,88.88.108,4.55,0.032,5.78-.583,5.71-4.788-0.35-19.769-.16-135.165-0.16-154.94-14.18,1.374-20.84-9.915-31.77-14.153-12.23-4.739-29.54-3.091-37.67,6.1-4.58,5.179-10.12,7.569-17.02,8.661-0.7.355-1.41,0.709-2.11,1.064a2.614,2.614,0,0,0-1.82.287c-10.38-1.294-19.18-7.273-30-7.389-2.43-.026-3.34-2.174-4.71-3.858-10.42-12.876-30.78-17.631-47.46-11.368a4.071,4.071,0,0,0-.96.173c-14.22,14.3-25.38,3.079-36.92-3.415-5.3-2.98-10.85-3.7-16.91-3.238-7.24.547-14.51,0.937-21.76,1.4-1.93-.976-4.18-0.5-6.27-2.055-13.93-10.4-36.13-2.342-39.89,12.331-1.87,7.267-14.13,10.183-21.25,5.837-16.35-9.994-28.47-8.371-39.81,6.024-3.11,3.948-5.8,2.309-9.09,1.372-20.13-8.636-47.27-.742-55.41,12.454-3.08,4.973-8.85,3.554-12.86,4.185-3.92.616-7.72,1-10.03,3.428-5.28,5.577-7.77-1.7-7.81-2.122-0.89-8.819-5.21-15.283-14.24-20.054-9.21-4.861-18.74-2.129-28.02-1.933-3.51.074-4.15-.777-5.67-2.555-7.3-8.556-27.13-9.135-35.22-1.67-3,2.775-1.27,5.99-3.69,9.1-6.61,8.488-18.31,10.285-26.1,16.872-1.34,1.133-3.41,1.6-3.78,3.523-0.55,1.764-1.11,3.529-1.66,5.293a2.3,2.3,0,0,0-.77,1.455c-1.99.992-3.84,2.3-6.42,1.652a55,55,0,0,0-36.7,3.4c-3.04,1.351-5.83,1.485-8.52.072-9.55-5.009-19.62-3.923-30.42-1.865,1.08-10.8-2.09-20.851-14.02-24.3-13.65-3.94-28.83-2.89-42.89-6.746-2.76-.754-5.12.248-6.36-3.2-5.93-16.491-18.91-21.7-37.34-14.45-4.24,1.672-6.62,1.928-10.65.063-9.56-4.436-16.01-1.142-24.78,4.569-8.27,5.389-15.67,13.7-29.25,11.761-14.63-2.086-26.33,4.088-35.41,14.408-8.25-11.846-17.89-21.766-34.88-23.2-3.29-.279-3.04-2.182-3.76-4.131-4.53-12.255-15.78-15.413-26.66-7.119-3.19,2.435-5.724,3.02-9.668,2.7-12.007-.971-21.318,2.818-27.674,12.019-4.771,6.905-14.74,9.018-20.345,15.477-1.489,1.715-3.393-1.861-5.3-2.77-13.749-6.563-32.33-4.249-38.3,8.3a13.256,13.256,0,0,0-1.7,5.648c0.1,4.067-1.247,5.215-5.4,2.78-10.39-6.091-22.108-6.257-33.731-4.617-4.7.663-7.392,0-10.487-2.765a40.092,40.092,0,0,0-22.654-10.056c-5.3-.6-9.334-3.006-12.938-6.064-17.547-14.894-45.872-9.269-58.792,6.536-3.763,4.6-6.4,5.356-11.709,2.356-3.25-1.837-7.275-2.838-11.109-3.69A75.679,75.679,0,0,1,711.2,56.74c-16.542-9.9-36.747-7.371-50.686,5.259-5.591,5.066-10.663,9.722-19.866,8.192-12.191-2.027-20.32,2.955-25.779,11.954a14.269,14.269,0,0,1,.735,3.463c0.012,0.171.018,0.338,0.02,0.5,0-.163-0.008-0.331-0.02-0.5a14.269,14.269,0,0,0-.735-3.463l-3.936,1.971c-0.038.162-.073,0.329-0.108,0.5,0.035-.169.07-0.338,0.108-0.5-1.846-1.048-3.757-1.9-6.083-1.456-7.46,1.355-11.6-1.33-16.033-6.823-7.634-9.459-19.178-14.271-32.895-11.967-4.81.808-7.129,0.3-9.851-3.085C534.463,46.359,518.255,38.958,498,36.738,481.248,34.9,467.351,39.33,454.98,48.26c-5.022,3.625-7.839,5.406-14.7.952-16.52-10.724-35.387-11.989-52.4,4.246-12.5-.257-22.582,5.369-32.687,10.479-3.41,1.724-5.389,2.4-9.575,1.337-14.5-3.672-28.6-2.69-41.789,4.72-1.988,1.117-4.014,5.615-8.133,2.23-3.546-2.914-7.713-5.336-7.512-10.414C288.707,48.467,280.224,38.7,264.7,34.4c-13.188-3.656-29.784.749-37.247,10.508-3.068,4.012-4.608,5.5-10.531,2.5-9.667-4.9-25.779-2.82-30.529,2.48-7.195,2.747-9.864,8.671-12.946,14.389-9.347-5.2-17.086-12.513-28.436-12.971-10.425-.42-21.383-1.863-30.449,4.771-7.553,5.372-12.723,4.187-17.941-3.219C91.714,45.894,82.671,42.22,74.04,39.785c-6.81-1.921-10.507-5.716-13.623-10.264C55.29,22.036,47.809,17.488,38.573,14.674l-2.3-.924-3.876-.2-2.187,0-2.2-.351q0.139-.916.279-1.83H10.21c-3.683,0-7.495.524-11.022-.115-6.355-1.151-4.954,2.442-5.051,5.3C-5.863,51.734-5.76,182.525-6,217.7ZM610.712,85.123a5.017,5.017,0,0,1-.149.49A5.017,5.017,0,0,0,610.712,85.123ZM10.435,13.207l-0.118.054,0.118-.054h0ZM9.119,15.772a1.78,1.78,0,0,0,.254-0.231A1.78,1.78,0,0,1,9.119,15.772Z"/>
</svg>
