<svg xmlns="http://www.w3.org/2000/svg" width="1920" height="171" viewBox="0 0 1920 171">
  <metadata><?xpacket begin="﻿" id="W5M0MpCehiHzreSzNTczkc9d"?>
<x:xmpmeta xmlns:x="adobe:ns:meta/" x:xmptk="Adobe XMP Core 5.6-c138 79.159824, 2016/09/14-01:09:01        ">
   <rdf:RDF xmlns:rdf="http://www.w3.org/1999/02/22-rdf-syntax-ns#">
      <rdf:Description rdf:about=""/>
   </rdf:RDF>
</x:xmpmeta>
                                                                                                    
                                                                                                    
                                                                                                    
                                                                                                    
                                                                                                    
                                                                                                    
                                                                                                    
                                                                                                    
                                                                                                    
                                                                                                    
                                                                                                    
                                                                                                    
                                                                                                    
                                                                                                    
                                                                                                    
                                                                                                    
                                                                                                    
                                                                                                    
                                                                                                    
                                                                                                    
                           
<?xpacket end="w"?></metadata>
<defs>
    <style>
      .cls-1 {
        fill: #89aadb;
      }

      .cls-1, .cls-2 {
        fill-rule: evenodd;
      }

      .cls-2 {
        fill: #fff;
      }
    </style>
  </defs>
  <path class="cls-1" d="M1907.98,0.448c-4.52.8-9.31,0.135-13.98,0.135h-12.01c-13.91,6.131-28.6,11.463-34.26,27.617-3.09,8.827-9.17,8.194-14.29,3.873-8.3-7-17.48-5.8-25.09-2.091-14.32,6.976-27.54,15.976-42.92,21.19-5.49,1.863-10.13,3.322-15.61,1.865a7.351,7.351,0,0,0,2.83,4.135,7.351,7.351,0,0,1-2.83-4.135c-5.51-5.477-12.36-9.917-17.1-15.707-12.12-14.815-29.59-19.954-46-24.019-34.28-8.492-65.32,1.251-91.66,25.076h0c-1.43,1.361-3.81,2.514-4.16,4.114-3.31,14.974-14.72,16.1-26.84,16.209a6.912,6.912,0,0,0-2.96.275c-6.14,3.182-9.91.286-14.64-3.859a51.429,51.429,0,0,0-41.13-12.734c-6.46.747-11.84,0.63-17.6-4.317a48.726,48.726,0,0,0-23.38-11.185c-25.42-4.147-47.43,12.625-54.81,35.762-0.39.622-.79,1.244-1.18,1.866-1.66,3.342-4.29,2.265-6.82,1.479-26.57-8.25-47.1.485-63.18,22.263a6.685,6.685,0,0,1-1.87-1.785c-9.19-19.819-24.98-24.682-45.02-20.066a11.1,11.1,0,0,1-9.39-1.825c-16.88-11.656-40.56-10.708-56.36,2.012-11.39,9.173-10.83,8.591-21.48-1.713-11.17-10.8-24.27-18.886-40.37-20.479a4.228,4.228,0,0,0-4.55-1.568l-23.97-.009a4.177,4.177,0,0,0-4.51,1.575c-7.8.061-14.68,3.081-21.42,6.581-5.17,6.262-16,6.987-16.98,17.359-8.85.306-11.84,7.517-15.66,13.569-3.47,5.507-5.3,14.089-10.1,16.209-6.08,2.682-10.61-6.158-16.26-9.341-27.99-15.79-57.152-18.124-87.341-7.876-6.02,2.044-9.7,1.7-14.26-3.514C936.53,63.33,920.508,56.3,901.784,58.223c-24.162,2.485-44.32,10.819-53.127,36.879-2.649,7.84-9.278,15.014-20.465,14.169-6.755-.511-12.572,3.851-17.916,7.914-4.8,3.653-9.473,7.483-13.379,10.583,2.821,4.914,7.762,5.433,12.8,4.839,12.1-1.425,22.6,1.515,32.037,9.541,4.925,4.19,9.71,3.956,14.055-2.563a37.283,37.283,0,0,1,25.218-16.379c4.415-.746,5.771-1.976,6.752-6.371,1.924-8.617,11.192-15.671,16.413-11.654,10.442,8.03,22.594,6.747,33.8,10.105,3.007,0.9,6.872,2.961,7.961,5.51,3.766,8.81,12.329,12.214,18.459,18.288,4.815,4.77,8.385,5.835,14.92,1.709,13.9-8.777,29.477-2.865,35.837,12.388,1.31,3.147,2.13,6.5,3.39,10.446,4.95-3.9,8.89-7.343,15.13-7.439,16.81-.259,33.86-0.359,47.3-13.277,1.5-1.435,4.32-1.936,6.56-2.047,5.38-.263,9.35-3.158,13.27-6.271,20.07-15.958,43.83-12.723,58.77,7.845,1.11,1.531,1.45,4.89,4.89,3.815,12.9-4.021,26.07-7.335,37.39-15.238h0c18.54-13.9,41.71-11.623,56.41,6.067,4.4,5.3,8.26,7.615,15.75,6.313,8.67-1.508,16.7,2.2,23.18,8.982,9.22,9.646,21.44,9.008,29.93-1.084,7.41-8.8,16.57-14.716,28.25-14.288,7.48,0.274,12.22-2.862,17-7.847,4.61-4.8,7.84-10.717,14.31-14.082,12.33-6.411,24.95-10.783,38.94-10.61l7.9,1.082,4.11,0.923c9.6,2.963,18.54,7.114,25.9,14.22,3.51,3.4,5.79,3.62,10.54-.2,12.08-9.728,25.68-14.073,40.72-4.729,7.1,4.413,13.7,10.272,22.71,10.841,9.07,0.572,16.58,4.9,23.1,10.665,3.29,2.909,5.78,2.67,9.59,1.676,14.21-3.709,28.01-4.01,40.59,5.688,5.29,4.074,15.72.1,15.4-6.21-0.85-16.38,9.01-26.029,19.63-35.622,1.66-.022,3.41.292,4.96-0.116,16.63-4.352,29.91-.028,39.06,14.976,2.03,3.339,3.61,1.913,6.32.591,11.99-5.851,25.87-4.361,33.83,3.419,4.18,4.093,7.22,10.737,12.09,12.418,5.95,2.057,9.56-6.691,15.64-8.134a41.942,41.942,0,0,0,4.59-1.773c8.37-3.08,17.15-.034,25.62-1.685,6.55,1.293,12.84,3.485,17.93,7.807,4.35,3.7,6.25,2.387,9.05-1.911,5.74-8.815,14.1-14.73,23.93-18.346a27.573,27.573,0,0,0,14.41-11.93c14.82-24.408,45.67-26.335,66.78-15.363V12.608C1922.28,2.329,1918.33-1.387,1907.98.448ZM1753.67,57.74c-0.2-.086-0.38-0.184-0.57-0.287C1753.29,57.556,1753.47,57.654,1753.67,57.74Zm1.26,0.446c-0.09-.025-0.19-0.051-0.28-0.078C1754.74,58.135,1754.84,58.162,1754.93,58.186Zm2.31,0.385c0.15,0.013.31,0.025,0.46,0.034C1757.55,58.6,1757.39,58.584,1757.24,58.571Zm-0.86-.095,0.1,0.014Zm1.75,0.153c0.29,0.013.58,0.022,0.87,0.028C1758.71,58.651,1758.42,58.642,1758.13,58.629ZM666.263,129.754c-5.8-5.489-12.413-9.024-20.683-8.683-7.146.3-11.084-2.03-12.759-10.175-6.478-31.508-30.946-49.931-61.29-50.106-17.164-.1-32.01,6.219-44.264,18.2-3.859,3.773-5.719,4.885-9.571-.648-3.778-5.427-5.445-13.08-12.942-15.509-7.663-8.647-17.2-14.241-28.784-13.473-12.78.847-26.25-2.187-38.209,4.38-10.644,5.845-20.071,13.285-25.637,24.673-1.1,2.254-2.728,4.435-6.181,3.976-11.367-1.509-22.606-4.123-34.184-3.893-3.872.076-4.378-3.145-5.4-6.059-5.544-15.842-14.048-29.717-27.41-40.254-19.823-15.632-41.986-22.537-67.2-18.125-14.847,1.79-28.712,6.3-40.506,15.75-3.256,2.608-5.076,3.241-8.037-.25a41.276,41.276,0,0,0-53.678-7.591c-11.44,7.306-15.785,21.827-29.261,26.377C130.71,67.371,115.184,81.6,101.181,97.05c-0.4.44-.228,1.358-0.577,1.885-5.521,8.329-8.985,8.788-14.212,1.932l-0.018-.051c0.027-1.643.227-3.362-1.814-4.085a8.607,8.607,0,0,0-6.992-6.069c-6.708-1.376-9.391-7.916-13.183-12.461-2.388-2.863,2.577-6.51,4.252-9.81C73.921,57.975,70.3,42.2,60.805,33.986,50.391,24.973,38.555,25.4,26.578,31.96,16.952,37.229,12.772,51.805-1.638,48.68v88.177c4.818-3.463,12.168-1.572,15.934-6.152,9.1-11.068,20.316-15.725,34.374-13.979a2.992,2.992,0,0,0,3.71,1.762c6.2,1.138,10.84,5.256,16.01,8.365l1.745,2.276c4.8,7.091,16.85,11.164,24.6,8.017,6.76-2.745,13.5-5.519,20.921-5.443,3.17,0.033,4.717-1.76,6.3-4,14.907-21.089,38.45-24.859,60.855-7.407,2.914,2.269,4.663,3.243,7.207.016,6.831-8.662,16.173-13.228,26.567-16.006h13.99q0.986,0.036,1.972.069l3.769,0.512c2.832,2.3,5.662,3.129,8.487-.012h0l9.806-4.542a4.091,4.091,0,0,0,4.368-1.4l3.585-.341c14.232-.11,25.049,5.2,30.558,19.119,3.212,8.112,12.476,11.528,20.58,7.618,2.677-1.292,5.167-2.971,7.84-4.272,12.046-5.864,24.449-2.618,30.687,9.159,3,5.673,5.332,5.357,10.6,3.413,17.4-6.429,34.953-4.913,48.227,7.933,6.944,6.719,13.386,10.332,22.208,10.907,5.241,0.343,10.251,1.045,15.845,5.155-2.418-14.851,7.292-21.567,15.664-29.09,1.353,0.224,1.8-.568,1.916-1.72l2.037-.544h0c3.893,0.722,7.8,1.363,11.674,2.184,6.784,1.438,11.922,1.271,18.466-4.039,15.861-12.869,31.092-6.889,36.6,12.049,1.634,5.617,4.367,7.454,9.164,8.253,8.743,1.458,16.278,5.9,19.481,13.8,3.413,8.424,8.161,9.968,16,8.036,2.805-.692,5.954-0.175,8.928.039,14.726,1.056,29.36,9.452,44.27.333,1.318-.806,3.867.285,5.814,0.653,6.146,1.159,9.473.159,9.518-7.6,0.068-11.709,5.824-19.984,17.724-23.623C670.9,134.975,668.537,131.909,666.263,129.754ZM70.1,129.077h0l0,0Z"/>
  <path class="cls-2" d="M1921.86,53.919c-0.09-3.308,1.3-7.461-5.04-6.13-3.52.739-7.32,0.133-11,.133h-18.04c0.09,0.7.19,1.41,0.28,2.115-0.73.135-1.47,0.27-2.2,0.406l-2.18,0-3.87.227c-0.76.357-1.53,0.713-2.29,1.068-9.22,3.252-16.68,8.508-21.8,17.159-3.11,5.257-6.8,9.642-13.59,11.863-8.62,2.814-17.64,7.061-22.54,15.11-5.2,8.56-10.36,9.929-17.9,3.721-9.05-7.668-19.98-6-30.39-5.515-11.32.529-19.05,8.981-28.37,14.991-3.08-6.609-5.74-13.455-12.92-16.631-4.74-6.126-20.82-8.525-30.47-2.866-5.91,3.467-7.45,1.744-10.51-2.894-7.45-11.28-24.01-16.371-37.17-12.146-15.49,4.973-23.96,16.264-23.43,31.686,0.2,5.869-3.96,8.668-7.49,12.036-4.11,3.913-6.14-1.286-8.12-2.577-13.16-8.565-27.23-9.7-41.7-5.455-4.18,1.225-6.16.446-9.56-1.546-10.08-5.905-20.14-12.409-32.62-12.111-16.98-18.765-35.81-17.3-52.29-4.908-6.85,5.148-9.66,3.09-14.67-1.1-12.35-10.32-26.22-15.438-42.94-13.316-20.21,2.565-36.38,11.12-47.97,27.793-2.71,3.908-5.03,4.5-9.83,3.566-13.69-2.663-25.21,2.9-32.83,13.831-4.42,6.349-8.55,9.451-16,7.886-2.32-.509-4.22.471-6.07,1.682,0.04,0.187.08,0.381,0.11,0.577-0.03-.2-0.07-0.39-0.11-0.577-1.31-.759-2.61-1.518-3.92-2.277a18.956,18.956,0,0,0-.74,4c-0.01.2-.02,0.39-0.02,0.579,0-.189.01-0.382,0.02-0.579a18.956,18.956,0,0,1,.74-4c-5.45-10.4-13.56-16.16-25.73-13.816-9.18,1.768-14.24-3.613-19.82-9.469-13.91-14.6-34.08-17.516-50.59-6.079a69.73,69.73,0,0,1-23.04,10.455c-3.83.984-7.84,2.142-11.09,4.265-5.29,3.467-7.93,2.6-11.68-2.724-12.9-18.267-41.16-24.767-58.67-7.553-3.6,3.535-7.63,6.319-12.91,7.008a37.7,37.7,0,0,0-22.61,11.624c-3.09,3.2-5.78,3.962-10.46,3.2-11.6-1.895-23.3-1.7-33.67,5.336-4.14,2.816-5.49,1.488-5.39-3.213a16.953,16.953,0,0,0-1.7-6.528c-5.95-14.508-24.492-17.183-38.212-9.6-1.9,1.051-3.8,5.183-5.286,3.2-5.593-7.465-15.542-9.907-20.3-17.888-6.343-10.634-15.635-15.014-27.617-13.891a11.128,11.128,0,0,1-9.65-3.122c-10.853-9.585-22.083-5.935-26.6,8.228-0.719,2.253-.467,4.452-3.754,4.774-16.955,1.661-26.572,13.126-34.809,26.818-9.062-11.928-20.737-19.063-35.328-16.652-13.554,2.24-20.943-7.365-29.2-13.594-8.747-6.6-15.182-10.408-24.729-5.281-4.015,2.156-6.391,1.86-10.631-.072-18.385-8.383-31.339-2.359-37.255,16.7-1.236,3.98-3.6,2.821-6.345,3.693-14.038,4.455-29.179,3.241-42.8,7.8-11.911,3.982-15.075,15.6-13.988,28.081-10.779-2.379-20.831-3.634-30.357,2.156-2.688,1.632-5.475,1.477-8.508-.084-11.649-6-23.876-7.653-36.623-3.927-2.57.751-4.425-.763-6.407-1.909a2.815,2.815,0,0,0-.767-1.682q-0.829-3.058-1.66-6.118c-0.363-2.218-2.433-2.762-3.771-4.072-7.776-7.613-19.447-9.69-26.048-19.5-2.416-3.591-.683-7.307-3.683-10.514-8.072-8.629-27.86-7.959-35.148,1.93-1.515,2.055-2.149,3.04-5.654,2.953-9.259-.227-18.769-3.384-27.958,2.234-9.019,5.515-13.326,12.985-14.214,23.178-0.042.488-2.526,8.9-7.8,2.453-2.3-2.808-6.092-3.251-10-3.963-4-.73-9.769.911-12.834-4.837-8.132-15.252-35.216-24.376-55.3-14.394-3.286,1.082-5.968,2.976-9.07-1.586-11.313-16.638-23.407-18.515-39.731-6.963-7.1,5.023-19.339,1.652-21.2-6.746-3.757-16.959-25.908-26.271-39.811-14.252-2.084,1.8-4.328,1.247-6.255,2.376-7.24-.529-14.487-0.981-21.717-1.613-6.051-.529-11.587.3-16.872,3.743-11.515,7.505-22.658,20.469-36.848,3.947a3.5,3.5,0,0,0-.958-0.2C152.714,76.787,132.4,82.284,122,97.166c-1.36,1.946-2.271,4.428-4.7,4.458-10.8.134-19.579,7.044-29.931,8.54a2.319,2.319,0,0,0-1.824-.332l-2.1-1.229c-6.889-1.262-12.415-4.025-16.985-10.011C58.345,87.966,41.064,86.06,28.865,91.539c-10.911,4.9-17.552,17.947-31.705,16.359,0,22.855.193,45.712-.155,68.561-0.074,4.86,1.157,5.571,5.7,5.534,29.561-.244,59.126-0.125,88.689-0.125H1807.58c36.09,0,72.18-.115,108.27.133,5.01,0.034,6.17-1.13,6.15-6.132C1921.76,135.22,1921.86,94.569,1921.86,53.919Zm-615.14,79.808a5.122,5.122,0,0,1-.15-0.567A5.122,5.122,0,0,0,1306.72,133.727ZM1905.6,50.04s0.07,0.04.12,0.062l-0.12-.062h0Zm1.06,2.7a1.7,1.7,0,0,0,.25.267A1.7,1.7,0,0,1,1906.66,52.737Z"/>
</svg>
