<svg id="Layer_1" data-name="Layer 1" xmlns="http://www.w3.org/2000/svg" viewBox="0 0 63.75 58.93"><title>icon-download</title><path d="M59.7,28.61a8.34,8.34,0,0,0-.43-2.23,9.7,9.7,0,0,0-7.65-6.7l-.57-.1a14.3,14.3,0,0,0-2.65-9A14.48,14.48,0,0,0,32.08,5.18a14.45,14.45,0,0,0-8.53,7.37l-.42-.25a7.31,7.31,0,0,0-1.63-.7,7.73,7.73,0,0,0-9.89,6.69.26.26,0,0,1-.19.26A10.46,10.46,0,0,0,8.79,20a10.6,10.6,0,0,0-3.41,4.42,10.17,10.17,0,0,0-.69,2.5c0,.33-.08.66-.12,1V29.1a1.41,1.41,0,0,1,0,.17,10.33,10.33,0,0,0,.81,3.38,10.66,10.66,0,0,0,9.85,6.52H26.33V37H19.5c-1.38,0-2.77,0-4.15,0a8.33,8.33,0,0,1-7.5-4.36,7.84,7.84,0,0,1-1-3.45,8.29,8.29,0,0,1,1.32-5.21,8.17,8.17,0,0,1,3.74-3.17c.59-.25,1.21-.43,1.82-.63a.17.17,0,0,0,.15-.22A6.31,6.31,0,0,1,14,17.46a5.47,5.47,0,0,1,2.27-3.06,5.34,5.34,0,0,1,3.21-.9A5.4,5.4,0,0,1,23,14.89l1.35,1.23.12.1c.13-.32.25-.63.37-.94A14.12,14.12,0,0,1,26.43,12,12.29,12.29,0,0,1,44.81,9.87a11.92,11.92,0,0,1,3.8,6.68,12.14,12.14,0,0,1,.14,4c-.05.42-.09.84-.13,1.3l1,0a7.08,7.08,0,0,1,3.66.79,7.48,7.48,0,0,1,4.06,5.25,7.62,7.62,0,0,1-4.21,8.45,7.94,7.94,0,0,1-3.37.72h-12v2.2H49.89a9.82,9.82,0,0,0,7.89-3.94,9.54,9.54,0,0,0,1.86-4.53c0-.25.06-.51.1-.77V28.75A1,1,0,0,1,59.7,28.61Z"/><path d="M25.87,44.14c.57.71,1.14,1.41,1.72,2.11l3.51,4.29.17.22a3.54,3.54,0,0,0,.47.52,1.08,1.08,0,0,0,.82.26,1.3,1.3,0,0,0,.88-.6l1.29-1.8L38.43,44a1.06,1.06,0,0,0,.2-1,1,1,0,0,0-.88-.8,1.08,1.08,0,0,0-1.13.49l-2.47,3.43-.18.24-.1.13a.25.25,0,0,1-.3.08l-.06,0a.25.25,0,0,1-.15-.23V39.87q0-9.18,0-18.36a1.13,1.13,0,0,0-.51-1,1.65,1.65,0,0,0-.33-.15l-.14-.05h-.23l-.1,0c-.62.16-.92.63-.92,1.44q0,9.34,0,18.69v5.93a.25.25,0,0,1-.42.18l-.11-.1-.16-.16-.69-.84-.86-1.05L28.56,44c-.34-.42-.69-.86-1.06-1.26A1,1,0,0,0,26,42.63,1.06,1.06,0,0,0,25.87,44.14Z"/></svg>