<svg xmlns="http://www.w3.org/2000/svg" viewBox="0 0 426.88 343.23"><defs><style>.cls-1{isolation:isolate;}.cls-10,.cls-14,.cls-15,.cls-2,.cls-20,.cls-3,.cls-5,.cls-6,.cls-8{fill:none;}.cls-2,.cls-22,.cls-3,.cls-5,.cls-6{stroke:#e1e5e8;}.cls-15,.cls-2,.cls-5,.cls-6,.cls-8{stroke-linecap:round;}.cls-10,.cls-14,.cls-2,.cls-20,.cls-21,.cls-22,.cls-3,.cls-5,.cls-6,.cls-7,.cls-8{stroke-miterlimit:10;}.cls-14,.cls-15,.cls-2,.cls-3,.cls-5,.cls-6,.cls-8{stroke-width:3px;}.cls-2{stroke-dasharray:0 6;}.cls-4{fill:#2f343d;}.cls-6{stroke-dasharray:7 10;}.cls-21,.cls-22,.cls-7{fill:#fff;}.cls-10,.cls-7{stroke:#175cc4;}.cls-10,.cls-20,.cls-21,.cls-22,.cls-7{stroke-width:2px;}.cls-14,.cls-15,.cls-8{stroke:#9ea2a8;}.cls-9{fill:#ffd21f;}.cls-16,.cls-18,.cls-19,.cls-9{mix-blend-mode:multiply;}.cls-11,.cls-16{fill:#f5455c;}.cls-12{fill:#f6c502;}.cls-13{fill:#26d198;}.cls-15{stroke-linejoin:round;}.cls-17{fill:#9ea2a8;}.cls-18{fill:#1d74f5;}.cls-19{fill:#2de0a5;}.cls-20,.cls-21{stroke:#2f343d;}.cls-23{fill:#e1e5e8;}</style></defs><title>Artboard 1</title><g class="cls-1"><g id="Layer_1" data-name="Layer 1"><circle class="cls-2" cx="211.53" cy="193.33" r="88.71"/><circle class="cls-2" cx="211.53" cy="193.33" r="70.3" transform="translate(-74.98 187.73) rotate(-41.31)"/><circle class="cls-3" cx="211.16" cy="192.25" r="133.6"/><circle class="cls-3" cx="123.19" cy="63.3" r="4.64"/><circle class="cls-3" cx="405.09" cy="136.04" r="4.64"/><circle class="cls-3" cx="332.39" cy="67.94" r="4.64"/><polygon class="cls-4" points="142.64 72.77 142.64 72.77 142.64 72.77 142.64 72.77"/><line class="cls-5" x1="54.94" y1="63.3" x2="31.35" y2="63.3"/><line class="cls-5" x1="56.39" y1="111.36" x2="46.03" y2="111.36"/><line class="cls-5" x1="51.21" y1="106.18" x2="51.21" y2="116.54"/><line class="cls-5" x1="249.46" y1="33.63" x2="239.09" y2="33.63"/><line class="cls-5" x1="244.27" y1="28.45" x2="244.27" y2="38.81"/><line class="cls-5" x1="26.92" y1="145.03" x2="16.56" y2="145.03"/><line class="cls-5" x1="21.74" y1="139.85" x2="21.74" y2="150.21"/><line class="cls-6" x1="106.44" y1="63.3" x2="64.44" y2="63.3"/><line class="cls-5" x1="354.85" y1="136.04" x2="332.39" y2="136.04"/><line class="cls-6" x1="389.9" y1="136.04" x2="359.35" y2="136.04"/><line class="cls-6" x1="317.68" y1="67.94" x2="272.9" y2="67.94"/><line class="cls-6" x1="359.35" y1="101.99" x2="310" y2="101.99"/><line class="cls-6" x1="60.72" y1="145.03" x2="31.35" y2="145.03"/><line class="cls-5" x1="229.76" y1="33.63" x2="183.95" y2="33.63"/><line class="cls-6" x1="174.46" y1="33.63" x2="143.91" y2="33.63"/><rect class="cls-7" x="99.31" y="75.85" width="86.67" height="111.1" rx="10" ry="10"/><rect class="cls-8" x="111.14" y="101.99" width="31.62" height="22" rx="10" ry="10"/><rect class="cls-9" x="106.44" y="105.54" width="31.62" height="22" rx="10" ry="10"/><rect class="cls-7" x="217.7" y="217.04" width="119.3" height="74.35" rx="10" ry="10"/><rect class="cls-7" x="236.77" y="98.87" width="107.47" height="74.35" rx="10" ry="10"/><rect class="cls-7" x="78.15" y="223" width="90.09" height="90.09" rx="10" ry="10"/><line class="cls-10" x1="217.7" y1="231.49" x2="336.9" y2="231.49"/><circle class="cls-11" cx="226.4" cy="224.23" r="2.46"/><circle class="cls-12" cx="234.13" cy="224.23" r="2.46"/><circle class="cls-13" cx="241.86" cy="224.23" r="2.46"/><line class="cls-8" x1="174.14" y1="101.99" x2="151.57" y2="101.99"/><line class="cls-8" x1="174.14" y1="112.99" x2="151.57" y2="112.99"/><line class="cls-8" x1="174.14" y1="123.99" x2="151.57" y2="123.99"/><line class="cls-8" x1="174.14" y1="134.99" x2="111.14" y2="134.99"/><line class="cls-8" x1="174.14" y1="145.99" x2="111.14" y2="145.99"/><line class="cls-8" x1="174.14" y1="157" x2="111.14" y2="157"/><line class="cls-8" x1="174.14" y1="168" x2="111.14" y2="168"/><line class="cls-8" x1="288.99" y1="163.13" x2="288.99" y2="107.86"/><line class="cls-8" x1="281.08" y1="163.13" x2="281.08" y2="130.7"/><line class="cls-8" x1="273.17" y1="163.13" x2="273.17" y2="139.36"/><line class="cls-8" x1="265.27" y1="163.13" x2="265.27" y2="122.03"/><line class="cls-8" x1="257.36" y1="163.13" x2="257.36" y2="131.4"/><line class="cls-8" x1="249.46" y1="163.13" x2="249.46" y2="145.99"/><line class="cls-8" x1="261.38" y1="245.52" x2="229.88" y2="277.36"/><line class="cls-8" x1="261.48" y1="245.52" x2="292.98" y2="277.36"/><line class="cls-8" x1="298.29" y1="251.32" x2="282.72" y2="267.05"/><line class="cls-8" x1="298.35" y1="251.32" x2="324.71" y2="277.69"/><line class="cls-14" x1="218.73" y1="278.08" x2="335.99" y2="278.08"/><rect class="cls-7" x="86.05" y="237.66" width="7.19" height="3.37" rx="1.69" ry="1.69"/><rect class="cls-7" x="86.05" y="246.03" width="7.19" height="3.37" rx="1.69" ry="1.69"/><rect class="cls-7" x="86.05" y="254.41" width="7.19" height="3.37" rx="1.69" ry="1.69"/><rect class="cls-7" x="86.05" y="262.78" width="7.19" height="3.37" rx="1.69" ry="1.69"/><rect class="cls-7" x="86.05" y="271.16" width="7.19" height="3.37" rx="1.69" ry="1.69"/><rect class="cls-7" x="86.05" y="279.53" width="7.19" height="3.37" rx="1.69" ry="1.69"/><rect class="cls-7" x="86.05" y="287.91" width="7.19" height="3.37" rx="1.69" ry="1.69"/><rect class="cls-7" x="86.05" y="296.28" width="7.19" height="3.37" rx="1.69" ry="1.69"/><rect class="cls-7" x="152.87" y="237.66" width="7.19" height="3.37" rx="1.69" ry="1.69"/><rect class="cls-7" x="152.87" y="246.03" width="7.19" height="3.37" rx="1.69" ry="1.69"/><rect class="cls-7" x="152.87" y="254.41" width="7.19" height="3.37" rx="1.69" ry="1.69"/><rect class="cls-7" x="152.87" y="262.78" width="7.19" height="3.37" rx="1.69" ry="1.69"/><rect class="cls-7" x="152.87" y="271.16" width="7.19" height="3.37" rx="1.69" ry="1.69"/><rect class="cls-7" x="152.87" y="279.53" width="7.19" height="3.37" rx="1.69" ry="1.69"/><rect class="cls-7" x="152.87" y="287.91" width="7.19" height="3.37" rx="1.69" ry="1.69"/><rect class="cls-7" x="152.87" y="296.28" width="7.19" height="3.37" rx="1.69" ry="1.69"/><polygon class="cls-15" points="135.16 268.03 113.03 255.25 113.03 280.81 135.16 268.03"/><path class="cls-16" d="M133.83,270.46,110.58,257a1.74,1.74,0,0,0-2.62,1.51v26.84a1.74,1.74,0,0,0,2.62,1.51l23.24-13.42A1.74,1.74,0,0,0,133.83,270.46Z"/><polyline class="cls-8" points="300.24 163.13 307.99 154.56 313.49 158.84 321.99 149.03 327.75 153.03 335.21 142.58"/><path class="cls-17" d="M330.3,120.53h0a1.49,1.49,0,0,0,1.49-1.69,14.28,14.28,0,0,0-10.67-11.64,1.51,1.51,0,0,0-1.89,1.46h0a1.49,1.49,0,0,0,1.15,1.45,11.27,11.27,0,0,1,8.44,9.14A1.5,1.5,0,0,0,330.3,120.53Z"/><path class="cls-17" d="M326,123.53c0,.17,0,.33,0,.5a11.35,11.35,0,1,1-9.76-11.14l0,0v-3l0,0A14.25,14.25,0,1,0,329,123.55l0,0Z"/><path class="cls-18" d="M216.78,282.61h116a0,0,0,0,1,0,0v10a10,10,0,0,1-10,10h-99.3a10,10,0,0,1-10-10v-6.75A3.25,3.25,0,0,1,216.78,282.61Z"/><circle class="cls-19" cx="312.31" cy="128.13" r="14.29"/><circle class="cls-20" cx="252.69" cy="193.76" r="10.83"/><path class="cls-4" d="M252.69,194.56a9,9,0,0,0-8.47,5.95,10.89,10.89,0,0,0,1.6,1.63,7,7,0,0,1,13.73,0,10.89,10.89,0,0,0,1.6-1.63A9,9,0,0,0,252.69,194.56Z"/><circle class="cls-21" cx="252.69" cy="191.92" r="4.66"/><circle class="cls-22" cx="323.14" cy="196.22" r="10.83"/><path class="cls-23" d="M323.14,197a9,9,0,0,0-8.47,5.95,10.89,10.89,0,0,0,1.6,1.63,7,7,0,0,1,13.73,0,10.89,10.89,0,0,0,1.6-1.63A9,9,0,0,0,323.14,197Z"/><circle class="cls-22" cx="323.14" cy="194.38" r="4.66"/><circle class="cls-22" cx="213.53" cy="81.73" r="10.83"/><path class="cls-23" d="M213.53,82.53a9,9,0,0,0-8.47,5.95,10.89,10.89,0,0,0,1.6,1.63,7,7,0,0,1,13.73,0,10.89,10.89,0,0,0,1.6-1.63A9,9,0,0,0,213.53,82.53Z"/><circle class="cls-22" cx="213.53" cy="79.89" r="4.66"/><circle class="cls-22" cx="99.31" cy="202.73" r="10.83"/><path class="cls-23" d="M99.31,203.53a9,9,0,0,0-8.47,5.95,10.89,10.89,0,0,0,1.6,1.63,7,7,0,0,1,13.73,0,10.89,10.89,0,0,0,1.6-1.63A9,9,0,0,0,99.31,203.53Z"/><circle class="cls-22" cx="99.31" cy="200.88" r="4.66"/><circle class="cls-22" cx="196.29" cy="302.61" r="10.83"/><path class="cls-23" d="M196.29,303.41a9,9,0,0,0-8.47,5.95,10.89,10.89,0,0,0,1.6,1.63,7,7,0,0,1,13.73,0,10.89,10.89,0,0,0,1.6-1.63A9,9,0,0,0,196.29,303.41Z"/><circle class="cls-22" cx="196.29" cy="300.77" r="4.66"/><path class="cls-16" d="M251.54,198.58a8.76,8.76,0,0,0-8.56,7,13.5,13.5,0,0,0,17.13,0A8.76,8.76,0,0,0,251.54,198.58Z"/><circle class="cls-20" cx="191.63" cy="233.83" r="10.83"/><path class="cls-4" d="M191.63,234.63a9,9,0,0,0-8.47,5.95,10.89,10.89,0,0,0,1.6,1.63,7,7,0,0,1,13.73,0,10.89,10.89,0,0,0,1.6-1.63A9,9,0,0,0,191.63,234.63Z"/><circle class="cls-21" cx="191.63" cy="231.99" r="4.66"/><path class="cls-19" d="M190.48,238.66a8.76,8.76,0,0,0-8.56,7,13.5,13.5,0,0,0,17.13,0A8.76,8.76,0,0,0,190.48,238.66Z"/><circle class="cls-20" cx="210.03" cy="145.26" r="10.83"/><path class="cls-4" d="M210,146.06a9,9,0,0,0-8.47,5.95,10.89,10.89,0,0,0,1.6,1.63,7,7,0,0,1,13.73,0,10.89,10.89,0,0,0,1.6-1.63A9,9,0,0,0,210,146.06Z"/><circle class="cls-21" cx="210.03" cy="143.41" r="4.66"/><path class="cls-9" d="M208.88,150.08a8.76,8.76,0,0,0-8.56,7,13.5,13.5,0,0,0,17.13,0A8.76,8.76,0,0,0,208.88,150.08Z"/><polyline class="cls-2" points="208.87 164.4 211.26 193.44 238.06 194.69"/><line class="cls-2" x1="199.04" y1="220.07" x2="211.53" y2="193.33"/></g></g></svg>