<svg width="18" height="18" viewBox="0 0 18 18" xmlns="http://www.w3.org/2000/svg"><title>guests</title><desc>Created with Sketch.</desc><g transform="translate(-3 -3)" fill="none"><path d="M0 0h24v24h-24z"/><rect stroke="#fff" stroke-width="1.5" x="3.75" y="3.75" width="16.5" height="16.5" rx="2"/><path d="M6.002 20c0-3.75 4.498-3 4.498-4.5 0 0 .086-.996-.409-1.5-.618-.625-1.09-1.376-1.09-2.625 0-1.864 1.343-3.375 2.999-3.375 1.656 0 2.999 1.511 2.999 3.375 0 1.232-.46 1.999-1.105 2.625-.471.491-.395 1.5-.395 1.5 0 1.5 4.498.75 4.498 4.5" stroke="#fff" stroke-width="1.5"/></g></svg>