<svg xmlns="http://www.w3.org/2000/svg" viewBox="0 0 426.88 343.23"><defs><style>.cls-1{isolation:isolate;}.cls-11,.cls-15,.cls-2,.cls-3,.cls-5,.cls-7,.cls-8,.cls-9{fill:none;}.cls-2,.cls-3,.cls-7,.cls-8{stroke:#e1e5e8;}.cls-11,.cls-14,.cls-15,.cls-16,.cls-2,.cls-22,.cls-3,.cls-4,.cls-5,.cls-7,.cls-8,.cls-9{stroke-miterlimit:10;}.cls-11,.cls-2,.cls-3,.cls-7,.cls-8{stroke-width:3px;}.cls-11,.cls-14,.cls-22,.cls-3,.cls-5,.cls-7,.cls-8{stroke-linecap:round;}.cls-3{stroke-dasharray:0 6;}.cls-14,.cls-17,.cls-4{fill:#fff;}.cls-14,.cls-4,.cls-5,.cls-9{stroke:#175cc4;}.cls-14,.cls-15,.cls-16,.cls-4,.cls-5,.cls-9{stroke-width:2px;}.cls-6{fill:#2f343d;}.cls-8{stroke-dasharray:7 10;}.cls-10{fill:#e1e5e8;}.cls-11,.cls-22{stroke:#9ea2a8;}.cls-12,.cls-16{fill:#2de0a5;}.cls-12,.cls-18{mix-blend-mode:multiply;}.cls-13{fill:#ffd21f;}.cls-15,.cls-16{stroke:#2f343d;}.cls-18{fill:#1d74f5;}.cls-19{fill:#f5455c;}.cls-20{fill:#f6c502;}.cls-21{fill:#26d198;}.cls-22{font-size:14.13px;fill:#9ea2a8;stroke-width:0.5px;font-family:Multicolore, Multicolore ;letter-spacing:0.2em;}</style></defs><title>Artboard 1</title><g class="cls-1"><g id="Layer_1" data-name="Layer 1"><circle class="cls-2" cx="221.36" cy="191.52" r="133.6"/><circle class="cls-3" cx="221.36" cy="192.8" r="113.58"/><rect class="cls-4" x="186.38" y="249.49" width="69.95" height="31.79"/><rect class="cls-4" x="105.11" y="92.11" width="232.5" height="157.38" rx="10" ry="10"/><line class="cls-5" x1="176.57" y1="281.29" x2="266.14" y2="281.29"/><circle class="cls-4" cx="221.36" cy="265.39" r="8.64"/><circle class="cls-2" cx="133.39" cy="62.57" r="4.64"/><circle class="cls-2" cx="379.35" cy="135.31" r="4.64"/><circle class="cls-2" cx="342.59" cy="67.21" r="4.64"/><polygon class="cls-6" points="152.84 72.04 152.84 72.04 152.84 72.04 152.84 72.04"/><polygon class="cls-6" points="104.5 125.51 104.5 125.51 104.5 125.51 104.5 125.51"/><line class="cls-7" x1="360.14" y1="97.29" x2="349.78" y2="97.29"/><line class="cls-7" x1="354.96" y1="92.11" x2="354.96" y2="102.47"/><line class="cls-7" x1="243.77" y1="32.89" x2="233.41" y2="32.89"/><line class="cls-7" x1="238.59" y1="27.71" x2="238.59" y2="38.08"/><line class="cls-7" x1="53.12" y1="144.3" x2="42.76" y2="144.3"/><line class="cls-7" x1="47.94" y1="139.12" x2="47.94" y2="149.48"/><line class="cls-8" x1="116.64" y1="62.57" x2="74.64" y2="62.57"/><line class="cls-7" x1="365.05" y1="135.31" x2="342.59" y2="135.31"/><line class="cls-8" x1="327.88" y1="67.21" x2="283.1" y2="67.21"/><line class="cls-8" x1="99.31" y1="102.84" x2="49.96" y2="102.84"/><line class="cls-8" x1="86.92" y1="144.3" x2="57.55" y2="144.3"/><line class="cls-7" x1="187.51" y1="32.89" x2="141.69" y2="32.89"/><line class="cls-8" x1="222.17" y1="32.89" x2="191.62" y2="32.89"/><line class="cls-9" x1="116.65" y1="116.52" x2="326.75" y2="116.52"/><rect class="cls-10" x="179.31" y="128.42" width="138.65" height="21.67" rx="10" ry="10"/><rect class="cls-10" x="124.65" y="129.31" width="46.99" height="20" rx="10" ry="10"/><line class="cls-7" x1="165.46" y1="159.5" x2="131.99" y2="159.5"/><line class="cls-7" x1="316.63" y1="159.5" x2="181.49" y2="159.5"/><line class="cls-7" x1="316.63" y1="166.5" x2="181.49" y2="166.5"/><line class="cls-7" x1="206.21" y1="173.5" x2="181.49" y2="173.5"/><line class="cls-7" x1="165.46" y1="166.5" x2="131.99" y2="166.5"/><line class="cls-7" x1="165.46" y1="173.5" x2="131.99" y2="173.5"/><line class="cls-7" x1="165.46" y1="187.52" x2="131.99" y2="187.52"/><line class="cls-7" x1="165.46" y1="209.13" x2="131.99" y2="209.13"/><line class="cls-7" x1="165.46" y1="194.52" x2="131.99" y2="194.52"/><line class="cls-7" x1="165.46" y1="201.52" x2="131.99" y2="201.52"/><line class="cls-7" x1="206.21" y1="187.52" x2="181.49" y2="187.52"/><line class="cls-7" x1="206.21" y1="209.13" x2="181.49" y2="209.13"/><line class="cls-7" x1="206.21" y1="194.52" x2="181.49" y2="194.52"/><line class="cls-7" x1="206.21" y1="201.52" x2="181.49" y2="201.52"/><line class="cls-11" x1="134.65" y1="143.62" x2="143.2" y2="135.08"/><line class="cls-11" x1="151.94" y1="143.64" x2="143.29" y2="134.99"/><line class="cls-11" x1="147.4" y1="137.73" x2="150.48" y2="134.64"/><line class="cls-11" x1="159.51" y1="143.67" x2="150.67" y2="134.83"/><path class="cls-9" d="M220.41,173.67h91.47a4.75,4.75,0,0,1,4.75,4.75v44.75a.1.1,0,0,1-.1.1H215.82a.17.17,0,0,1-.17-.17V178.42A4.75,4.75,0,0,1,220.41,173.67Z"/><rect class="cls-9" x="115.96" y="102.84" width="210.79" height="120.42" rx="4.75" ry="4.75"/><path class="cls-12" d="M217.16,176.62h91.47a4.75,4.75,0,0,1,4.75,4.75v44.75a.1.1,0,0,1-.1.1H212.57a.17.17,0,0,1-.17-.17V181.37A4.75,4.75,0,0,1,217.16,176.62Z"/><path class="cls-13" d="M236.36,204.12a8.76,8.76,0,0,0-8.56,7,13.5,13.5,0,0,0,17.13,0A8.76,8.76,0,0,0,236.36,204.12Z"/><line class="cls-14" x1="309.15" y1="180.33" x2="305.49" y2="184"/><line class="cls-14" x1="305.49" y1="180.33" x2="309.15" y2="184"/><circle class="cls-15" cx="237.51" cy="199.53" r="10.83"/><path class="cls-6" d="M237.51,200.33a9,9,0,0,0-8.47,5.95,10.89,10.89,0,0,0,1.6,1.63,7,7,0,0,1,13.73,0,10.89,10.89,0,0,0,1.6-1.63A9,9,0,0,0,237.51,200.33Z"/><circle class="cls-16" cx="237.51" cy="197.69" r="4.66"/><path class="cls-17" d="M271.83,188.66H252.22s6.36,1.75,6.36,12h6.49"/><rect class="cls-17" x="258.59" y="188.62" width="48.73" height="23.41" rx="10" ry="10"/><line class="cls-11" x1="299.88" y1="196.84" x2="266.97" y2="196.84"/><line class="cls-11" x1="275.56" y1="203.85" x2="266.97" y2="203.85"/><line class="cls-11" x1="290.55" y1="203.85" x2="281.96" y2="203.85"/><path class="cls-4" d="M294,237.48,289,209l21.71,18.71-5.86,1.16c-2,.4-2,.4-1,2.17l5.94,9.77c.12.19.22.39.3.53l-3.07,2.11-.59-1-5.89-10.06c-.55-.95-.76-1-1.5-.2l-4.51,4.69C294.43,237.07,294.25,237.23,294,237.48Z"/><rect class="cls-18" x="113.96" y="106.25" width="210.79" height="13.68" rx="5" ry="5"/><circle class="cls-19" cx="123.35" cy="110.25" r="2.46"/><circle class="cls-20" cx="131.08" cy="110.25" r="2.46"/><circle class="cls-21" cx="138.82" cy="110.25" r="2.46"/><text class="cls-22" transform="translate(198.71 144.49)">YOUR SITE</text></g></g></svg>