<svg xmlns="http://www.w3.org/2000/svg" width="171" height="173" viewBox="0 0 171 173">
  <metadata><?xpacket begin="﻿" id="W5M0MpCehiHzreSzNTczkc9d"?>
<x:xmpmeta xmlns:x="adobe:ns:meta/" x:xmptk="Adobe XMP Core 5.6-c138 79.159824, 2016/09/14-01:09:01        ">
   <rdf:RDF xmlns:rdf="http://www.w3.org/1999/02/22-rdf-syntax-ns#">
      <rdf:Description rdf:about=""/>
   </rdf:RDF>
</x:xmpmeta>
                                                                                                    
                                                                                                    
                                                                                                    
                                                                                                    
                                                                                                    
                                                                                                    
                                                                                                    
                                                                                                    
                                                                                                    
                                                                                                    
                                                                                                    
                                                                                                    
                                                                                                    
                                                                                                    
                                                                                                    
                                                                                                    
                                                                                                    
                                                                                                    
                                                                                                    
                                                                                                    
                           
<?xpacket end="w"?></metadata>
<defs>
    <style>
      .cls-1 {
        fill: #fff;
      }

      .cls-2, .cls-3 {
        fill: #f1f1f1;
      }

      .cls-3 {
        fill-rule: evenodd;
      }

      .cls-4 {
        fill: #d1d1d1;
      }

      .cls-5 {
        fill: #e7e7e7;
      }
    </style>
  </defs>
  <circle class="cls-1" cx="85" cy="84" r="79"/>
  <ellipse class="cls-2" cx="56.969" cy="68.719" rx="10.188" ry="10.188"/>
  <circle class="cls-2" cx="77.359" cy="81.453" r="7.641"/>
  <path class="cls-3" d="M92.641,53.406A7.656,7.656,0,1,1,85,61.063,7.648,7.648,0,0,1,92.641,53.406ZM18.75,84c2.813,0,5.094,3.995,5.094,8.922s-2.281,8.922-5.094,8.922-5.094-3.995-5.094-8.922S15.937,84,18.75,84Zm30.578,38.219c5.635,0,10.2,2.854,10.2,6.375s-4.568,6.375-10.2,6.375-10.2-2.854-10.2-6.375S43.693,122.219,49.328,122.219Z"/>
  <path class="cls-3" d="M79.906,124.781c4.228,0,7.656,2.854,7.656,6.375s-3.428,6.375-7.656,6.375-7.656-2.854-7.656-6.375S75.678,124.781,79.906,124.781ZM59.516,140.063c4.22,0,7.641,2.28,7.641,5.093s-3.421,5.094-7.641,5.094-7.641-2.281-7.641-5.094S55.3,140.063,59.516,140.063Z"/>
  <ellipse class="cls-4" cx="128.328" cy="124.781" rx="12.734" ry="12.75"/>
  <circle class="cls-5" cx="110.484" cy="30.484" r="7.641"/>
  <ellipse class="cls-5" cx="133.422" cy="45.766" rx="7.641" ry="7.641"/>
  <ellipse class="cls-5" cx="142.344" cy="75.078" rx="6.375" ry="8.922"/>
  <ellipse class="cls-2" cx="93.922" cy="58.516" rx="8.922" ry="7.641"/>
  <ellipse class="cls-2" cx="18.734" cy="92.922" rx="7.641" ry="8.922"/>
  <ellipse class="cls-2" cx="59.516" cy="145.156" rx="7.641" ry="5.094"/>
</svg>
