<svg xmlns="http://www.w3.org/2000/svg" viewBox="0 0 426.88 343.23"><defs><style>.cls-1{isolation:isolate;}.cls-13,.cls-2{fill:#f6c502;}.cls-10,.cls-11,.cls-2,.cls-9{stroke:#175cc4;}.cls-10,.cls-11,.cls-18,.cls-2,.cls-20,.cls-3,.cls-4,.cls-5,.cls-6,.cls-7,.cls-9{stroke-miterlimit:10;}.cls-10,.cls-11,.cls-2,.cls-20,.cls-7,.cls-9{stroke-width:2px;}.cls-11,.cls-18,.cls-3,.cls-4,.cls-5,.cls-6{fill:none;}.cls-3,.cls-4,.cls-5,.cls-6,.cls-7{stroke:#e1e5e8;}.cls-18,.cls-3,.cls-5,.cls-6{stroke-linecap:round;}.cls-18,.cls-3,.cls-4,.cls-5,.cls-6{stroke-width:3px;}.cls-3{stroke-dasharray:0 6;}.cls-6{stroke-dasharray:7 10;}.cls-10,.cls-19,.cls-7{fill:#fff;}.cls-8{fill:#e1e5e8;}.cls-9{fill:#ffd21f;}.cls-12,.cls-17{fill:#f5455c;}.cls-14{fill:#26d198;}.cls-15{fill:#2de0a5;}.cls-15,.cls-16,.cls-17{mix-blend-mode:multiply;}.cls-16{fill:#1d74f5;}.cls-18,.cls-20{stroke:#fff;}.cls-20{fill:#e0364d;}</style></defs><title>Artboard 1</title><g class="cls-1"><g id="Layer_1" data-name="Layer 1"><path class="cls-2" d="M109.17,228.07h5.5s10.83-13.17,17.17-12.67h9.67v38.68H109.17Z"/><circle class="cls-3" cx="224.42" cy="191.06" r="76.33"/><circle class="cls-3" cx="224.69" cy="192.17" r="117.4"/><circle class="cls-4" cx="224.32" cy="194.25" r="133.6"/><line class="cls-5" x1="233.61" y1="30.45" x2="223.24" y2="30.45"/><line class="cls-5" x1="228.42" y1="25.26" x2="228.42" y2="35.63"/><line class="cls-5" x1="392.92" y1="100.87" x2="382.56" y2="100.87"/><line class="cls-5" x1="387.74" y1="95.68" x2="387.74" y2="106.05"/><line class="cls-6" x1="214.55" y1="30.45" x2="140.89" y2="30.45"/><circle class="cls-4" cx="359.9" cy="49.65" r="4.64"/><circle class="cls-4" cx="90.72" cy="106.05" r="4.64"/><line class="cls-5" x1="291.65" y1="49.65" x2="268.06" y2="49.65"/><line class="cls-6" x1="343.15" y1="49.65" x2="301.15" y2="49.65"/><line class="cls-5" x1="328.3" y1="83.73" x2="317.94" y2="83.73"/><line class="cls-5" x1="323.12" y1="78.55" x2="323.12" y2="88.91"/><line class="cls-6" x1="362.1" y1="83.73" x2="332.73" y2="83.73"/><line class="cls-6" x1="75.9" y1="105.05" x2="46.53" y2="105.05"/><line class="cls-5" x1="136.89" y1="74.77" x2="126.53" y2="74.77"/><line class="cls-5" x1="131.71" y1="69.59" x2="131.71" y2="79.95"/><line class="cls-5" x1="117.2" y1="74.77" x2="71.38" y2="74.77"/><line class="cls-6" x1="61.9" y1="74.77" x2="31.35" y2="74.77"/><circle class="cls-7" cx="167.65" cy="112.74" r="10.07"/><path class="cls-8" d="M167.65,113.48a8.39,8.39,0,0,0-7.87,5.53,10.13,10.13,0,0,0,1.49,1.52,6.52,6.52,0,0,1,12.77,0,10.13,10.13,0,0,0,1.49-1.52A8.39,8.39,0,0,0,167.65,113.48Z"/><circle class="cls-7" cx="167.65" cy="111.02" r="4.33"/><circle class="cls-7" cx="223.17" cy="95.68" r="10.07"/><path class="cls-8" d="M223.17,96.43A8.39,8.39,0,0,0,215.3,102a10.13,10.13,0,0,0,1.49,1.52,6.52,6.52,0,0,1,12.77,0A10.13,10.13,0,0,0,231,102,8.39,8.39,0,0,0,223.17,96.43Z"/><circle class="cls-7" cx="223.17" cy="93.97" r="4.33"/><circle class="cls-7" cx="276.25" cy="111.02" r="10.07"/><path class="cls-8" d="M276.25,111.76a8.39,8.39,0,0,0-7.87,5.53,10.13,10.13,0,0,0,1.49,1.52,6.52,6.52,0,0,1,12.77,0,10.13,10.13,0,0,0,1.49-1.52A8.39,8.39,0,0,0,276.25,111.76Z"/><circle class="cls-7" cx="276.25" cy="109.31" r="4.33"/><circle class="cls-7" cx="278.45" cy="273.17" r="10.07"/><path class="cls-8" d="M278.45,273.92a8.39,8.39,0,0,0-7.87,5.53,10.13,10.13,0,0,0,1.49,1.52,6.52,6.52,0,0,1,12.77,0,10.13,10.13,0,0,0,1.49-1.52A8.39,8.39,0,0,0,278.45,273.92Z"/><circle class="cls-7" cx="278.45" cy="271.46" r="4.33"/><circle class="cls-7" cx="223.17" cy="288.58" r="10.07"/><path class="cls-8" d="M223.17,289.32a8.39,8.39,0,0,0-7.87,5.53,10.13,10.13,0,0,0,1.49,1.52,6.52,6.52,0,0,1,12.77,0,10.13,10.13,0,0,0,1.49-1.52A8.39,8.39,0,0,0,223.17,289.32Z"/><circle class="cls-7" cx="223.17" cy="286.86" r="4.33"/><circle class="cls-7" cx="173.39" cy="271.46" r="10.07"/><path class="cls-8" d="M173.39,272.2a8.39,8.39,0,0,0-7.87,5.53,10.13,10.13,0,0,0,1.49,1.52,6.52,6.52,0,0,1,12.77,0,10.13,10.13,0,0,0,1.49-1.52A8.39,8.39,0,0,0,173.39,272.2Z"/><circle class="cls-7" cx="173.39" cy="269.74" r="4.33"/><path class="cls-9" d="M350.75,125.38s-18.37,1.15-30.75-1.88c0,0-9.5-4.62-12.37-.72s-6.87,8.66-6.87,8.66l-3.25,5.49-.87,4.91,7.5,5.34,16.13,1,13.24,7.2,10.26,2.45,5.63,1h1.38Z"/><rect class="cls-10" x="128.67" y="135.74" width="189" height="117.33" rx="10" ry="10"/><line class="cls-11" x1="128.67" y1="149.38" x2="317.67" y2="149.38"/><circle class="cls-12" cx="138.66" cy="142.97" r="2.23"/><circle class="cls-13" cx="145.7" cy="142.97" r="2.23"/><circle class="cls-14" cx="152.73" cy="142.97" r="2.23"/><path class="cls-9" d="M109.5,245.9c20.5-11.67,32,4.17,32,4.17l7.17-2.67c0-12.5,10.17-9.33,10.17-9.33v15.17l-14.67,6.5H108.33Z"/><rect class="cls-10" x="101.33" y="222.57" width="10.33" height="40.53" rx="2.92" ry="2.92"/><path class="cls-10" d="M103.42,218.74H66.91a158.06,158.06,0,0,0,17.25,48.2h19.26a2.93,2.93,0,0,0,2.92-2.92V221.65A2.93,2.93,0,0,0,103.42,218.74Z"/><path class="cls-15" d="M100.92,221.32H64.41a158.06,158.06,0,0,0,17.25,48.2h19.26a2.93,2.93,0,0,0,2.92-2.92V224.24A2.93,2.93,0,0,0,100.92,221.32Z"/><path class="cls-9" d="M350,158.83H330.89l-.68,0a19.43,19.43,0,0,1-12.46-3.8H292.5s-6.62.1-6.62-5,5.25-5.48,5.25-5.48H322.5"/><rect class="cls-10" x="348.16" y="121.23" width="10.33" height="40.53" rx="2.92" ry="2.92" transform="translate(706.66 282.99) rotate(180)"/><path class="cls-10" d="M356.41,165.6h36.51a158.06,158.06,0,0,0-17.25-48.2H356.41a2.93,2.93,0,0,0-2.92,2.92v42.37A2.93,2.93,0,0,0,356.41,165.6Z"/><path class="cls-16" d="M360.39,168.68H396.9a158.06,158.06,0,0,0-17.25-48.2H360.39a2.93,2.93,0,0,0-2.92,2.92v42.37A2.93,2.93,0,0,0,360.39,168.68Z"/><rect class="cls-8" x="246.18" y="161.76" width="20" height="20" rx="5.24" ry="5.24"/><line class="cls-5" x1="306.74" y1="164.32" x2="273.28" y2="164.32"/><line class="cls-5" x1="306.74" y1="171.32" x2="273.28" y2="171.32"/><line class="cls-5" x1="306.74" y1="178.32" x2="273.28" y2="178.32"/><rect class="cls-10" x="141.5" y="161.76" width="90" height="57.57" rx="5.24" ry="5.24"/><rect class="cls-17" x="138.42" y="166" width="90" height="57.57" rx="5.24" ry="5.24"/><line class="cls-5" x1="231.5" y1="229.57" x2="142.1" y2="229.57"/><line class="cls-18" x1="150.35" y1="211.94" x2="220" y2="211.94"/><line class="cls-5" x1="231.5" y1="236.57" x2="197.6" y2="236.57"/><rect class="cls-8" x="246.18" y="191.01" width="20" height="20" rx="5.24" ry="5.24"/><line class="cls-5" x1="306.74" y1="193.57" x2="273.28" y2="193.57"/><line class="cls-5" x1="306.74" y1="200.57" x2="273.28" y2="200.57"/><line class="cls-5" x1="306.74" y1="207.57" x2="273.28" y2="207.57"/><rect class="cls-8" x="246.18" y="221.32" width="20" height="20" rx="5.24" ry="5.24"/><line class="cls-5" x1="306.74" y1="223.88" x2="273.28" y2="223.88"/><line class="cls-5" x1="306.74" y1="230.88" x2="273.28" y2="230.88"/><line class="cls-5" x1="306.74" y1="237.88" x2="273.28" y2="237.88"/><path class="cls-19" d="M191.72,189.13l-11.41-6.59a1.11,1.11,0,0,0-1.67,1v13.18a1.11,1.11,0,0,0,1.67,1l11.41-6.59A1.11,1.11,0,0,0,191.72,189.13Z"/><path class="cls-19" d="M259.36,171,254.25,168a.73.73,0,0,0-1.09.63v5.9a.73.73,0,0,0,1.09.63l5.11-2.95A.73.73,0,0,0,259.36,171Z"/><path class="cls-19" d="M259.36,200.38l-5.11-2.95a.73.73,0,0,0-1.09.63V204a.73.73,0,0,0,1.09.63l5.11-2.95A.73.73,0,0,0,259.36,200.38Z"/><path class="cls-19" d="M259.36,230.69l-5.11-2.95a.73.73,0,0,0-1.09.63v5.9a.73.73,0,0,0,1.09.63l5.11-2.95A.73.73,0,0,0,259.36,230.69Z"/><circle class="cls-20" cx="163.32" cy="211.94" r="2.2"/></g></g></svg>