<svg xmlns="http://www.w3.org/2000/svg" viewBox="0 0 426.88 343.23"><defs><style>.cls-1{isolation:isolate;}.cls-11,.cls-13,.cls-14,.cls-2,.cls-3,.cls-4,.cls-5,.cls-6,.cls-7{fill:none;}.cls-2{stroke:#9ea2a8;}.cls-11,.cls-2,.cls-3,.cls-5,.cls-6,.cls-7{stroke-linecap:round;}.cls-10,.cls-11,.cls-13,.cls-14,.cls-16,.cls-2,.cls-3,.cls-4,.cls-5,.cls-6,.cls-7,.cls-8{stroke-miterlimit:10;}.cls-10,.cls-11,.cls-13,.cls-2,.cls-4,.cls-5,.cls-6,.cls-7{stroke-width:3px;}.cls-14,.cls-16,.cls-3,.cls-4,.cls-5,.cls-7{stroke:#e1e5e8;}.cls-14,.cls-16,.cls-3,.cls-8{stroke-width:2px;}.cls-6{stroke:#f5455c;}.cls-7{stroke-dasharray:7 10;}.cls-10,.cls-16,.cls-8{fill:#fff;}.cls-10,.cls-13,.cls-8{stroke:#175cc4;}.cls-9{fill:#175cc4;}.cls-11{stroke:#2de0a5;}.cls-12{fill:#1d74f5;}.cls-12,.cls-17,.cls-18,.cls-19{mix-blend-mode:multiply;}.cls-15{fill:#e1e5e8;}.cls-17{fill:#f5455c;}.cls-18{fill:#ffd21f;}.cls-19{fill:#2de0a5;}</style></defs><title>Artboard 1</title><g class="cls-1"><g id="Layer_1" data-name="Layer 1"><line class="cls-2" x1="220.96" y1="87.48" x2="164.54" y2="87.48"/><line class="cls-2" x1="157.21" y1="87.48" x2="153.65" y2="87.48"/><line class="cls-2" x1="220.96" y1="104.27" x2="164.54" y2="104.27"/><line class="cls-2" x1="157.21" y1="104.27" x2="153.65" y2="104.27"/><line class="cls-2" x1="220.96" y1="120.99" x2="164.54" y2="120.99"/><line class="cls-2" x1="157.21" y1="120.99" x2="153.65" y2="120.99"/><line class="cls-2" x1="185.56" y1="222.71" x2="129.15" y2="222.71"/><line class="cls-2" x1="121.81" y1="222.71" x2="118.25" y2="222.71"/><line class="cls-2" x1="185.56" y1="239.5" x2="129.15" y2="239.5"/><line class="cls-2" x1="121.81" y1="239.5" x2="118.25" y2="239.5"/><line class="cls-2" x1="185.56" y1="256.22" x2="129.15" y2="256.22"/><line class="cls-2" x1="121.81" y1="256.22" x2="118.25" y2="256.22"/><line class="cls-3" x1="154.95" y1="167.24" x2="124.2" y2="167.24"/><line class="cls-3" x1="154.95" y1="174.62" x2="124.2" y2="174.62"/><line class="cls-3" x1="157.21" y1="182" x2="124.2" y2="182"/><circle class="cls-4" cx="211.72" cy="188.57" r="133.6"/><circle class="cls-4" cx="123.75" cy="59.62" r="4.64"/><circle class="cls-4" cx="405.65" cy="132.36" r="4.64"/><circle class="cls-4" cx="332.95" cy="64.26" r="4.64"/><line class="cls-5" x1="55.5" y1="59.62" x2="31.91" y2="59.62"/><line class="cls-5" x1="56.95" y1="107.68" x2="46.59" y2="107.68"/><line class="cls-5" x1="51.77" y1="102.5" x2="51.77" y2="112.86"/><line class="cls-5" x1="250.02" y1="29.94" x2="239.65" y2="29.94"/><line class="cls-5" x1="244.83" y1="24.76" x2="244.83" y2="35.13"/><line class="cls-6" x1="239.16" y1="100.61" x2="231.84" y2="107.93"/><line class="cls-6" x1="231.84" y1="100.61" x2="239.16" y2="107.93"/><line class="cls-6" x1="239.16" y1="117.32" x2="231.84" y2="124.65"/><line class="cls-6" x1="231.84" y1="117.32" x2="239.16" y2="124.65"/><line class="cls-5" x1="27.48" y1="141.35" x2="17.12" y2="141.35"/><line class="cls-5" x1="22.3" y1="136.17" x2="22.3" y2="146.53"/><line class="cls-7" x1="107" y1="59.62" x2="65" y2="59.62"/><line class="cls-5" x1="355.41" y1="132.36" x2="332.95" y2="132.36"/><line class="cls-7" x1="390.46" y1="132.36" x2="359.91" y2="132.36"/><line class="cls-7" x1="318.24" y1="64.26" x2="273.46" y2="64.26"/><line class="cls-7" x1="359.91" y1="98.31" x2="310.56" y2="98.31"/><line class="cls-7" x1="61.28" y1="141.35" x2="31.91" y2="141.35"/><line class="cls-5" x1="230.32" y1="29.94" x2="184.51" y2="29.94"/><line class="cls-7" x1="175.02" y1="29.94" x2="144.47" y2="29.94"/><circle class="cls-8" cx="123.75" cy="104.27" r="18.42"/><path class="cls-9" d="M123.75,106a15,15,0,0,0-14,9.67,18.25,18.25,0,0,0,2.07,2.16,12.3,12.3,0,0,1,23.8,0,18.32,18.32,0,0,0,2.07-2.16A15,15,0,0,0,123.75,106Z"/><circle class="cls-10" cx="123.75" cy="101.13" r="7.92"/><line class="cls-11" x1="231.65" y1="85.79" x2="235.31" y2="89.46"/><line class="cls-11" x1="243.15" y1="82.13" x2="235.63" y2="89.65"/><line class="cls-6" x1="204.16" y1="253.33" x2="196.83" y2="260.66"/><line class="cls-6" x1="196.83" y1="253.33" x2="204.16" y2="260.66"/><circle class="cls-10" cx="88.75" cy="240.28" r="18.42"/><path class="cls-9" d="M88.75,241.89a15.13,15.13,0,0,0-14.11,9.81,18.39,18.39,0,0,0,2.28,2.36,12.18,12.18,0,0,1,23.65,0,18.4,18.4,0,0,0,2.28-2.36A15.13,15.13,0,0,0,88.75,241.89Z"/><circle class="cls-10" cx="88.75" cy="237.14" r="7.92"/><path class="cls-12" d="M86.78,248.48A14.9,14.9,0,0,0,72.23,260.3a23,23,0,0,0,29.11,0A14.9,14.9,0,0,0,86.78,248.48Z"/><line class="cls-11" x1="196.64" y1="221.8" x2="200.31" y2="225.47"/><line class="cls-11" x1="208.14" y1="218.14" x2="200.62" y2="225.66"/><line class="cls-11" x1="196.64" y1="238.47" x2="200.31" y2="242.13"/><line class="cls-11" x1="208.14" y1="234.8" x2="200.62" y2="242.32"/><path class="cls-9" d="M176.86,171.91a17.92,17.92,0,0,0-16.7,11.58,21.89,21.89,0,0,0,2.58,2.68,14.57,14.57,0,0,1,28.23,0,21.79,21.79,0,0,0,2.58-2.69A17.93,17.93,0,0,0,176.86,171.91Z"/><line class="cls-11" x1="305.24" y1="147.94" x2="309.6" y2="152.3"/><line class="cls-11" x1="318.92" y1="143.58" x2="309.97" y2="152.52"/><line class="cls-11" x1="305.24" y1="168.33" x2="309.6" y2="172.69"/><line class="cls-11" x1="318.92" y1="163.96" x2="309.97" y2="172.91"/><line class="cls-11" x1="305.24" y1="188.46" x2="309.6" y2="192.82"/><line class="cls-11" x1="318.92" y1="184.1" x2="309.97" y2="193.04"/><circle class="cls-13" cx="176.86" cy="169.92" r="21.91"/><circle class="cls-10" cx="176.86" cy="166.19" r="9.43"/><line class="cls-6" x1="333.2" y1="296.54" x2="324.49" y2="305.26"/><line class="cls-6" x1="324.49" y1="296.54" x2="333.2" y2="305.26"/><line class="cls-6" x1="333.2" y1="276.57" x2="324.49" y2="285.28"/><line class="cls-6" x1="324.49" y1="276.57" x2="333.2" y2="285.28"/><path class="cls-9" d="M195.88,302.89a17.92,17.92,0,0,0-16.7,11.58,21.89,21.89,0,0,0,2.58,2.68,14.57,14.57,0,0,1,28.23,0,21.79,21.79,0,0,0,2.58-2.69A17.93,17.93,0,0,0,195.88,302.89Z"/><line class="cls-11" x1="324.26" y1="318.49" x2="328.62" y2="322.84"/><line class="cls-11" x1="337.94" y1="314.12" x2="328.99" y2="323.07"/><line class="cls-3" x1="311.82" y1="236.07" x2="307.67" y2="240.22"/><line class="cls-3" x1="307.67" y1="236.07" x2="311.82" y2="240.22"/><line class="cls-3" x1="311.82" y1="226.54" x2="307.67" y2="230.7"/><line class="cls-3" x1="307.67" y1="226.54" x2="311.82" y2="230.7"/><line class="cls-3" x1="307.56" y1="246.53" x2="309.64" y2="248.61"/><line class="cls-3" x1="314.08" y1="244.45" x2="309.82" y2="248.72"/><circle class="cls-13" cx="195.88" cy="300.9" r="21.91"/><circle class="cls-10" cx="195.88" cy="297.17" r="9.43"/><circle class="cls-14" cx="105.33" cy="174.62" r="10.83"/><path class="cls-15" d="M105.33,175.42a9,9,0,0,0-8.47,5.95,10.89,10.89,0,0,0,1.6,1.63,7,7,0,0,1,13.73,0,10.89,10.89,0,0,0,1.6-1.63A9,9,0,0,0,105.33,175.42Z"/><circle class="cls-16" cx="105.33" cy="172.78" r="4.66"/><line class="cls-3" x1="302.51" y1="228.77" x2="263.34" y2="228.77"/><line class="cls-3" x1="302.51" y1="237.54" x2="263.34" y2="237.54"/><line class="cls-3" x1="302.51" y1="246.3" x2="263.34" y2="246.3"/><circle class="cls-14" cx="240.94" cy="237.54" r="12.86"/><path class="cls-15" d="M240.94,238.49a10.71,10.71,0,0,0-10.05,7.06,12.93,12.93,0,0,0,1.9,1.94,8.33,8.33,0,0,1,16.3,0,12.93,12.93,0,0,0,1.9-1.94A10.71,10.71,0,0,0,240.94,238.49Z"/><circle class="cls-16" cx="240.94" cy="235.35" r="5.53"/><line class="cls-3" x1="318.08" y1="107.72" x2="295.33" y2="107.72"/><line class="cls-3" x1="323.32" y1="115.1" x2="295.33" y2="115.1"/><line class="cls-3" x1="326.08" y1="122.48" x2="295.33" y2="122.48"/><circle class="cls-14" cx="276.46" cy="115.1" r="10.83"/><path class="cls-15" d="M276.46,115.9a9,9,0,0,0-8.47,5.95,10.89,10.89,0,0,0,1.6,1.63,7,7,0,0,1,13.73,0,10.89,10.89,0,0,0,1.6-1.63A9,9,0,0,0,276.46,115.9Z"/><circle class="cls-16" cx="276.46" cy="113.26" r="4.66"/><line class="cls-2" x1="313.03" y1="278.15" x2="243.56" y2="278.15"/><line class="cls-2" x1="234.53" y1="278.15" x2="230.14" y2="278.15"/><line class="cls-2" x1="313.03" y1="298.82" x2="243.56" y2="298.82"/><line class="cls-2" x1="234.53" y1="298.82" x2="230.14" y2="298.82"/><line class="cls-2" x1="313.03" y1="319.4" x2="243.56" y2="319.4"/><line class="cls-2" x1="234.53" y1="319.4" x2="230.14" y2="319.4"/><line class="cls-2" x1="295.19" y1="149.29" x2="225.73" y2="149.29"/><line class="cls-2" x1="216.69" y1="149.29" x2="212.31" y2="149.29"/><line class="cls-2" x1="295.19" y1="169.96" x2="225.73" y2="169.96"/><line class="cls-2" x1="216.69" y1="169.96" x2="212.31" y2="169.96"/><line class="cls-2" x1="295.19" y1="190.55" x2="225.73" y2="190.55"/><line class="cls-2" x1="216.69" y1="190.55" x2="212.31" y2="190.55"/><path class="cls-17" d="M174.53,179.68a17.73,17.73,0,0,0-17.32,14.07,27.31,27.31,0,0,0,34.64,0A17.73,17.73,0,0,0,174.53,179.68Z"/><path class="cls-18" d="M121.78,110.47a14.9,14.9,0,0,0-14.56,11.82,23,23,0,0,0,29.11,0A14.9,14.9,0,0,0,121.78,110.47Z"/><path class="cls-19" d="M193.54,309.66a17.73,17.73,0,0,0-17.32,14.07,27.31,27.31,0,0,0,34.64,0A17.73,17.73,0,0,0,193.54,309.66Z"/></g></g></svg>