<svg width="22" height="20" viewBox="0 0 22 20" xmlns="http://www.w3.org/2000/svg"><title>upload@3x</title><desc>Created with Sketch.</desc><g fill="none"><path d="M-1-2h24v24h-24z"/><g stroke="#fff" stroke-width="1.5"><path d="M6.758 13l4.242-4.242 4.242 4.242"/><path d="M11 10.5v8"/><path d="M17.875 13c2.209 0 3.125-1.791 3.125-4s-1.791-4-4-4c0-1.657-1.343-3-3-3-.748 0-1.431.273-1.957.726-.824-1.051-2.105-1.726-3.543-1.726-2.485 0-4.5 2.015-4.5 4.5 0 .526.09 1.031.256 1.5h-.256c-1.657 0-3 1.343-3 3s1.343 3 3 3"/></g></g></svg>