<svg id="Layer_1" data-name="Layer 1" xmlns="http://www.w3.org/2000/svg" viewBox="0 0 340.16 340.16"><defs><style>.cls-1{fill:none;stroke:#000;stroke-linecap:round;stroke-linejoin:round;stroke-width:20px;}</style></defs><title>icon-bug</title><circle class="cls-1" cx="170.08" cy="170.08" r="144.02"/><path d="M259.51,193.87a53.17,53.17,0,0,0-19.82-5.19c-2.89-.2-5.71-.15-8.43-.1L229,175.26c9.61-2.77,18.13-8.67,25.37-17.58a9.88,9.88,0,0,0-1.12-14.06c-4.28-3.5-10.2-2.8-14.06,1.66a63.14,63.14,0,0,1-5.57,5.86,22.93,22.93,0,0,1-12.06,5.76c-1.7-2.62-3.5-5.19-5.25-7.68-1.27-1.81-2.58-3.68-3.81-5.54a46.46,46.46,0,0,0,1.17-18,47.27,47.27,0,0,0-11.7-25.08c1.72-4.81,4.62-7.65,9.05-8.9,5.63-1.59,11.09-.37,15,3.33s5.4,9.09,4.11,14.78a10.77,10.77,0,0,0,1,7.67,9.44,9.44,0,0,0,6.25,4.6c5.4,1.22,10.48-2.19,11.83-7.92,4-16.85-6.61-35.55-23.11-40.83-14.52-4.65-31.68,2.14-40,15.52a44,44,0,0,0-37.75,0A35.44,35.44,0,0,0,146,85.57a39.27,39.27,0,0,0-5.45-5.51c-11.51-9.5-27.3-10.84-39.29-3.34C88.68,84.57,82,100.32,85.28,114.18c1.38,5.79,6.33,9.13,11.76,8,5.28-1.14,8.33-6.07,7.44-12a24.69,24.69,0,0,1-.4-7.28c1.09-6.66,6.57-11,14.67-11.66,6.1-.48,11.53,3.23,13.85,9.47-11.09,12.62-14.64,27.09-10.55,43l-.22.28c-2.68,3.52-5.45,7.17-7.93,11l-.27.43c-.34.53-.71,1.1-1,1.51-.61-.13-1.48-.37-2.17-.55-5.53-1.49-10.29-4.92-15-10.8-3.77-4.71-9.53-5.6-14-2.15A9.54,9.54,0,0,0,77.7,150a10.42,10.42,0,0,0,2.6,7.86,70.75,70.75,0,0,0,6.78,7,46.53,46.53,0,0,0,18.37,10.34l-2.26,13.32h0c-2.75,0-5.59-.1-8.49.1a52.08,52.08,0,0,0-19.84,5.24,9.63,9.63,0,0,0-5,12.15,9.51,9.51,0,0,0,5.25,5.62,10.71,10.71,0,0,0,8.63-.36A36.5,36.5,0,0,1,104.21,208c.84,4.15,2,8.24,3.05,12.19l.18.65c.2.73.43,1.44.68,2.11-9.21,4.34-16.73,11.48-22.36,21.25a9.57,9.57,0,0,0-1,7.34,9.77,9.77,0,0,0,4.67,5.95,9.87,9.87,0,0,0,13.18-3.44l.84-1.3a53.09,53.09,0,0,1,3.33-4.77,24.16,24.16,0,0,1,10.5-7.77,65.11,65.11,0,0,0,13.28,14.32c11.58,9.12,23.69,13.69,36.19,13.69a57.79,57.79,0,0,0,22-4.58c11.13-4.56,20.64-12.44,28.27-23.41l1.08.5a30.44,30.44,0,0,1,3.68,1.88,29.89,29.89,0,0,1,9.61,10.68,9.86,9.86,0,0,0,7.32,5.28,9.77,9.77,0,0,0,9.74-14.87c-5.9-9.79-13.2-16.63-22.26-20.84q.42-1.47.84-2.95c1.1-3.84,2.25-7.81,3.14-11.82l0-.09a37.61,37.61,0,0,1,20.29,3.14,12.88,12.88,0,0,0,6,1.21,9.57,9.57,0,0,0,8.66-8.37A9.82,9.82,0,0,0,259.51,193.87ZM142.17,239.76c-9.89-8-15.91-18.55-18.39-32.26-2.85-15.73-.72-30.16,6.33-42.87,6.49-11.7,15.41-18.93,27.24-22v104.8A38.77,38.77,0,0,1,142.17,239.76Zm52.21-110.81a54.33,54.33,0,0,0-54.31,0c.53-7,3.88-14.79,10.58-19.6a29.25,29.25,0,0,1,33-.12C190.44,114,193.86,121.89,194.38,128.95Zm-17.31,13.58a35.94,35.94,0,0,1,6.31,2.24,44.5,44.5,0,0,1,23.41,25c8.36,21.18,6.72,41.16-4.88,59.4a40.54,40.54,0,0,1-24.85,18.21Z"/></svg>