<svg id="Layer_1" data-name="Layer 1" xmlns="http://www.w3.org/2000/svg" viewBox="0 0 340.16 340.16"><defs><style>.cls-1{fill:none;stroke:#000;stroke-linecap:round;stroke-linejoin:round;stroke-width:20px;}</style></defs><title>icon-doc</title><circle class="cls-1" cx="170.08" cy="170.08" r="144.02"/><path d="M201.26,137c-20.49,0-41.27,0-61.75,0a14.34,14.34,0,0,0-7.78,1.9A7.72,7.72,0,0,0,128,145.6c0,4.1,3,8.49,11.46,8.5q10.92,0,21.83,0h39.92c8.45,0,11.46-4.4,11.46-8.5S209.71,137,201.26,137Z"/><path d="M139.5,128.29q11,0,22,0h39.77c8.45,0,11.46-4.41,11.46-8.5s-3-8.59-11.46-8.6c-20.49,0-41.27,0-61.75,0a14.35,14.35,0,0,0-7.78,1.9,7.72,7.72,0,0,0-3.69,6.71C128,123.88,131.06,128.27,139.5,128.29Z"/><path d="M201.16,162.8c-20.49,0-41.26,0-61.75,0a14.35,14.35,0,0,0-7.78,1.9,7.72,7.72,0,0,0-3.69,6.71c0,4.1,3,8.49,11.46,8.5q10.92,0,21.83,0h39.93c8.45,0,11.46-4.4,11.46-8.5S209.61,162.82,201.16,162.8Z"/><path d="M201.16,188.61c-20.49,0-41.26,0-61.75,0a14.35,14.35,0,0,0-7.78,1.9,7.72,7.72,0,0,0-3.69,6.71c0,4.1,3,8.49,11.46,8.5h39.7q11,0,22.06,0c8.45,0,11.46-4.4,11.46-8.5S209.61,188.63,201.16,188.61Z"/><path d="M201.16,214.42c-20.49,0-41.26,0-61.75,0a14.34,14.34,0,0,0-7.78,1.9,7.72,7.72,0,0,0-3.69,6.71c0,4.1,3,8.49,11.46,8.5q10.92,0,21.83,0h39.93c8.45,0,11.46-4.4,11.46-8.5S209.61,214.44,201.16,214.42Z"/><path d="M216.11,262.49H123.64a26.26,26.26,0,0,1-26.23-26.23V107.17a26.26,26.26,0,0,1,26.23-26.23h92.47a26.26,26.26,0,0,1,26.23,26.23V236.26A26.26,26.26,0,0,1,216.11,262.49ZM123.64,99a8.15,8.15,0,0,0-8.14,8.14V236.26a8.15,8.15,0,0,0,8.14,8.14h92.47a8.15,8.15,0,0,0,8.14-8.14V107.17A8.15,8.15,0,0,0,216.11,99Z"/></svg>