<svg id="Layer_1" data-name="Layer 1" xmlns="http://www.w3.org/2000/svg" viewBox="0 0 340.16 340.16"><defs><style>.cls-1{fill:none;stroke:#000;stroke-linecap:round;stroke-linejoin:round;stroke-width:20px;}</style></defs><title>icon-share</title><circle class="cls-1" cx="170.08" cy="170.08" r="144.02"/><path d="M217.45,86.06a29.25,29.25,0,0,1,.08,58.5q-.94,0-1.88-.06a29.25,29.25,0,0,1-19.51-9.13c-20.43,9.9-40.68,19.7-60.89,29.57a2.71,2.71,0,0,0-1.09,2,39.08,39.08,0,0,0,0,5.89,2.69,2.69,0,0,0,1.12,1.95c19.85,9.78,39.74,19.48,59.59,29.26a1.93,1.93,0,0,0,2.61-.54c5.89-5.26,12.43-8,19.5-8a30.44,30.44,0,0,1,9.42,1.56c10.81,3.5,17.43,11.17,19.77,22.33,3.37,16.11-8.07,32.06-24.62,34.46a28.59,28.59,0,0,1-4.11.3c-14.58,0-27.53-11.17-29-25.94a27.06,27.06,0,0,1,0-5.89c.19-1.58-.42-2.14-1.7-2.77-18.45-9-36.92-17.93-55.26-27.14a9.9,9.9,0,0,0-4.35-1.33,7.3,7.3,0,0,0-4.66,2,27,27,0,0,1-17.21,6,29.42,29.42,0,0,1-29-34.53A29.14,29.14,0,0,1,99.85,141a33,33,0,0,1,5.55-.48,28.12,28.12,0,0,1,19.55,7.9,2.57,2.57,0,0,0,1.73.87A3,3,0,0,0,128,149q29.44-14.35,58.94-28.59a2.11,2.11,0,0,0,1.46-2.47,29.07,29.07,0,0,1,28.71-31.82h.37m0-20h-.63a49.08,49.08,0,0,0-47.89,40.77c-14.52,7-27.89,13.51-40.47,19.63a47.38,47.38,0,0,0-23.06-5.93,53.15,53.15,0,0,0-8.91.77,48.37,48.37,0,0,0-26.2,13.54,49.35,49.35,0,0,0,34.91,84.26,47.6,47.6,0,0,0,23.1-6c13.56,6.76,27.26,13.43,40.6,19.92a48.48,48.48,0,0,0,15.85,28.56,49.3,49.3,0,0,0,32.66,12.45,48.76,48.76,0,0,0,7-.51,49.76,49.76,0,0,0,33.49-20.69,48.63,48.63,0,0,0,7.83-37.66c-3.84-18.33-15.62-31.56-33.17-37.26A50.52,50.52,0,0,0,217,175.44a46.89,46.89,0,0,0-22.77,6l-18.69-9.17-4.73-2.32L194,158.62a48.8,48.8,0,0,0,20.34,5.85c1,.07,2.11.1,3.16.1A48.76,48.76,0,0,0,252,150.41a49.36,49.36,0,0,0,14.74-34.33,49.25,49.25,0,0,0-49.25-50Z"/></svg>