<svg id="Layer_1" data-name="Layer 1" xmlns="http://www.w3.org/2000/svg" viewBox="0 0 340.16 340.16"><defs><style>.cls-1{fill:none;stroke:#000;stroke-linecap:round;stroke-linejoin:round;stroke-width:20px;}</style></defs><title>icon-star</title><circle class="cls-1" cx="170.08" cy="170.08" r="144.02"/><path d="M170.08,77.1a2.13,2.13,0,0,1,2.06,1.49l20.11,61.27a2.17,2.17,0,0,0,2.06,1.49l64.49.2a2.17,2.17,0,0,1,1.28,3.93L208,183.55a2.17,2.17,0,0,0-.79,2.42L227,247.36a2.18,2.18,0,0,1-2.08,2.85,2.14,2.14,0,0,1-1.26-.42L171.35,212a2.17,2.17,0,0,0-2.54,0l-52.29,37.75a2.14,2.14,0,0,1-1.26.42,2.18,2.18,0,0,1-2.08-2.85L132.92,186a2.17,2.17,0,0,0-.79-2.42L80.08,145.49a2.17,2.17,0,0,1,1.28-3.93l64.49-.2a2.17,2.17,0,0,0,2.06-1.49L168,78.6a2.13,2.13,0,0,1,2.06-1.49m0-20A22.13,22.13,0,0,0,149,72.36l-16.1,49-51.62.16a22.17,22.17,0,0,0-13,40.07l41.67,30.47-15.8,49.14A22.17,22.17,0,0,0,128.23,266l41.85-30.21L211.93,266a22,22,0,0,0,13,4.2,22.18,22.18,0,0,0,21.12-29l-15.8-49.14,41.67-30.47a22.17,22.17,0,0,0-13-40.07l-51.62-.16-16.1-49A22.13,22.13,0,0,0,170.08,57.1Z"/></svg>