<svg id="Layer_1" data-name="Layer 1" xmlns="http://www.w3.org/2000/svg" viewBox="0 0 340.16 340.16"><defs><style>.cls-1{fill:none;stroke-linecap:round;stroke-linejoin:round;stroke-width:20px;}.cls-1,.cls-2{stroke:#000;}.cls-2{stroke-miterlimit:10;stroke-width:8px;}</style></defs><title>icon-talk</title><circle class="cls-1" cx="170.08" cy="170.08" r="144.02"/><path class="cls-2" d="M174.84,90c2.92.43,5.86.76,8.76,1.31,18.68,3.57,33.91,13,45.89,27.61A73.86,73.86,0,0,1,246.28,159c2,19.57-3.34,37.23-14.75,53.13a74.27,74.27,0,0,1-14.84,15.3,3.48,3.48,0,0,0-1.24,1.72c-3.58,14.61-13.21,23.95-26.32,30.24a69.49,69.49,0,0,1-17.68,5.67c-3.93.72-6.86-1.71-6.87-5.74,0-5.35,0-10.7,0-16-4-.71-7.88-1.24-11.69-2.11-29.08-6.64-52.83-31.56-58.19-61a76.49,76.49,0,0,1,33.38-77.36,75.42,75.42,0,0,1,36-12.64,7.15,7.15,0,0,0,1.14-.28Zm.68,162.89a52.14,52.14,0,0,0,13.41-5.69c8.66-5.25,14.53-12.52,16.23-22.73a6.28,6.28,0,0,1,2.84-4.27,63,63,0,0,0,13.35-12.43c12.25-15.44,16.55-33,13.41-52.33-3.08-19-12.74-33.85-28.94-44.23-13.63-8.74-28.66-11.67-44.66-9.65a64.38,64.38,0,0,0-56.58,59.84c-1.16,15.59,2.28,30.09,11.28,42.93,12.93,18.45,31,27.37,53.4,28,4.22.12,6.26,2.14,6.26,6.37C175.52,243.37,175.52,248,175.52,252.88Z"/><path class="cls-2" d="M207.85,166.73h.33a5.23,5.23,0,0,1,5.14,6.09c-2.11,13.17-9,23.56-20.7,30.88a42.54,42.54,0,0,1-45.17,0c-11.7-7.32-18.58-17.7-20.68-30.87a5.23,5.23,0,0,1,5.14-6.09h.42a5.24,5.24,0,0,1,5.17,4.59c1.2,8.86,5.13,16.41,12.83,22a32.88,32.88,0,0,0,22.12,6.08c15.49-1,28-11.72,30.24-28.09A5.25,5.25,0,0,1,207.85,166.73Z"/><rect class="cls-2" x="148.23" y="139.4" width="10.74" height="10.74" rx="5.37" ry="5.37"/><rect class="cls-2" x="181.07" y="139.36" width="10.74" height="10.74" rx="5.37" ry="5.37"/></svg>