<svg id="Layer_1" data-name="Layer 1" xmlns="http://www.w3.org/2000/svg" viewBox="0 0 340.16 340.16"><defs><style>.cls-1{fill:none;stroke:#000;stroke-linecap:round;stroke-linejoin:round;stroke-width:20px;}</style></defs><title>icon-write</title><circle class="cls-1" cx="170.08" cy="170.08" r="144.02"/><path d="M256.28,127.64c-1.14-5.94-4.81-9.91-8.47-13.46-6.06-5.89-12.06-11.89-17.83-17.83-3.35-3.45-7.42-7.22-13.35-8.37l-.33-.06h-4.94L211,88c-5.84,1-9.84,4.63-13.12,7.93-21.89,22-44.19,44.26-65.76,65.82l-20,20-3.06,3c-2.73,2.71-5.55,5.5-8.26,8.35a11,11,0,0,0-2.92,5.57c-1.07,7.29-2.07,14.7-3,21.87q-.67,5-1.35,9.93c-.32,2.3-.67,4.59-1,6.88q-.25,1.6-.49,3.21l0,4.93.82.92a9.49,9.49,0,0,0,9,5.81,13.89,13.89,0,0,0,1.9-.14q14.08-1.94,28.17-3.83l9.25-1.25c3.6-.49,7.69-1,11.26-4.63,33-33.18,65.51-65.67,95.75-95.83,3.57-3.56,7.14-7.52,8.16-13.34l.05-.3V128Zm-49.4,32.88-12,12q-27.58,27.58-55.14,55.21a5.52,5.52,0,0,1-.92.16l-.4.05-25.58,3.46c.33-2.45.65-4.88,1-7.3l.46-3.4c.7-5.21,1.43-10.6,2.19-15.89a.83.83,0,0,1,.07-.2q32.26-32.34,64.57-64.62l2.59-2.59Zm30-30-.22.23-15.79,15.79L197.7,123.42l15.77-15.77.25-.24.27.26,22.58,22.58Z"/></svg>