<svg id="Layer_1" data-name="Layer 1" xmlns="http://www.w3.org/2000/svg" viewBox="0 0 367 152"><defs><style>.cls-1{fill:none;stroke:#1d74f5;stroke-miterlimit:10;stroke-width:3px;}</style></defs><title>rockets-sizes</title><path class="cls-1" d="M53.33,22a82.44,82.44,0,0,0-9.2,11.75A69.88,69.88,0,0,0,38,45.52a58,58,0,0,0-3.69,14.64,103.71,103.71,0,0,0-.24,14.58c.09,3.24.18,6.48.53,9.71a12.83,12.83,0,0,0,.29,4.47,1.47,1.47,0,0,0-.08.39c.38,4.78.75,9.57,1.17,14.35a3.62,3.62,0,0,1-1.21,3.21c-3.46,3.34-7.1,6.47-10.63,9.74A3.09,3.09,0,0,0,23,119.46c.31,2.51.67,5,.81,7.54.13,2.17.46,4.3.69,6.45.1.94.34,1.4,1.42.69.86-.57,1.74-1.13,2.63-1.68,2.85-1.78,5.73-3.49,8.58-5.27a2.38,2.38,0,0,1,3,.91,45.45,45.45,0,0,1,1.54,4.65,3.3,3.3,0,0,0,2.71,2.53,39,39,0,0,0,16.4.24c.81-.16,1.9-.3,2.31-1.34.63-1.62,1.24-3.25,1.86-4.87.29-.19.29-.52.42-.8.43-.88,2-1.49,2.66-1,1.84,1.22,3.66,2.49,5.5,3.72,2.09,1.4,4.19,2.8,6.3,4.16.34.22.89.59,1-.3.7-5.08,1.43-10.15,2.1-15.23a1.78,1.78,0,0,0-.45-1.59c-3.37-3.37-6.61-6.89-10.1-10.12-1.64-1.51-2.38-2.94-2-5.19a52.42,52.42,0,0,0,.89-8.79l.07,0,0-.07a56.92,56.92,0,0,0,.91-9c.32-3.78.63-7.56,1-11.34,1-11.31-.18-22.23-5.21-32.63a93.09,93.09,0,0,0-5.85-10.66A76.19,76.19,0,0,0,55.64,22C54.61,20.87,54.37,20.83,53.33,22Zm5.92,49.46A8.2,8.2,0,0,1,48.18,59.32c3.41-3.19,8.19-2.91,11.56.33C62.75,63.18,62.93,68,59.25,71.43Z"/><path class="cls-1" d="M156,112a30,30,0,0,0-6.18-9.63,3,3,0,0,1-.83-2,72.92,72.92,0,0,0-6.31-25,70.94,70.94,0,0,0-14.6-21.07c-.36-.36-.68-.75-1.27-.57L125,55.65c.18.48-.28.61-.49.84a72.61,72.61,0,0,0-10.07,14,73.38,73.38,0,0,0-8.84,30.26,1.9,1.9,0,0,1-.51,1.4,23.63,23.63,0,0,0-3,3.6c-6.6,9.61-7.28,19.83-3,30.61,1.72-5.35,3.93-10.4,8.22-14.42.27,1,.49,1.91.74,2.78s.5,1.77.77,2.65a5.25,5.25,0,0,0,1,2.31h35.14a1.88,1.88,0,0,0,.26-.52,74.75,74.75,0,0,0,2.11-7.3c4.3,4.12,6.56,9.15,8.19,14.58a14.91,14.91,0,0,0,.86-2.11A31.11,31.11,0,0,0,156,112Zm-23.6-18a7.29,7.29,0,0,1-10.39.13,7.36,7.36,0,0,1,.09-10.42,7.53,7.53,0,0,1,10.46-.23C135.48,86,135.26,91.16,132.42,94Z"/><path class="cls-1" d="M212.69,120.75a19.76,19.76,0,0,0-.91-6c-.34-1-.52-1.08-1.33-.41a15.33,15.33,0,0,0-2.25,2.28c-.66.83-1.29,1.68-2,2.55-.57-.58-1.09-1.16-1.67-1.67a.86.86,0,0,1-.27-1,29.91,29.91,0,0,0,.6-13.52A32.72,32.72,0,0,0,193.19,83.4a.92.92,0,0,0-1.39,0,31.84,31.84,0,0,0-5.24,5.37c-6,7.88-8.15,16.65-6.08,26.39.95,1.72-.08,2.76-1.27,3.77-.3.25-.4.28-.63-.07a20.72,20.72,0,0,0-3.44-4.05c-1.32-1.18-1.51-1.12-2,.57a23.37,23.37,0,0,0-.59,8.47A30.05,30.05,0,0,0,176.51,136a.7.7,0,0,0,1,.37c1.79-.54,3.59-1.05,5.38-1.56a.72.72,0,0,0,.59-.85,28.81,28.81,0,0,0-.41-3.77c-.05-.3-.16-.6.12-.88.85-.83,1.67-1.69,2.51-2.54,1,1,1.62,2.27,2.67,3.16l.08.08h8.37a.61.61,0,0,1,.14-.18,22.87,22.87,0,0,0,2.29-2.76c.25-.3.37-.24.6,0q1,1.07,2.12,2.11a.79.79,0,0,1,.25.83,30.66,30.66,0,0,0-.42,3.77c0,.65.21.9.8,1.06,1.64.44,3.28.9,4.89,1.42a1,1,0,0,0,1.4-.55A29.85,29.85,0,0,0,212.69,120.75Zm-20.14-13.42a6.35,6.35,0,0,1-6.32-6.32,6.31,6.31,0,1,1,6.32,6.32Z"/><path class="cls-1" d="M267.52,104c-.8,3.47-1.57,6.59-2.23,9.74a2.09,2.09,0,0,1-2.51,2c-4-.12-8-.1-12,0a1.92,1.92,0,0,1-2.26-1.75c-.71-3.21-1.47-6.41-2.29-10-3.18,2.76-6.16,5.5-6.86,9.59-1,6.08-1.65,12.23-2.44,18.36-.06.48-.08,1-.15,1.43-.41,2.67-2,3.32-4,1.55a7,7,0,0,1-2.06-2.77c-3.52-10.08-5.15-20.43-2.64-30.93,1.76-7.36,6.65-12.87,12.69-17.24,1.88-1.36,2.92-2.7,2.3-5a4,4,0,0,1,0-1.08h27.38c.1.16.25.29.22.38-.78,3,.76,4.69,3.1,6.46,6.74,5.07,11.79,11.57,12.68,20.19a59.83,59.83,0,0,1-3.8,28.1,2.19,2.19,0,0,1-.47.91c-1.05.86-2.13,2.3-3.24,2.34-1.85.07-1.5-1.94-1.69-3.21-1-6.38-1.72-12.79-2.82-19.14C273.77,109.65,270.76,106.87,267.52,104Z"/><path class="cls-1" d="M242.41,72.07c-1.29-15-2.78-30,.73-44.93,1.17-5,.38-4.05,5-4.68a64.85,64.85,0,0,1,20.08.67c1.38.24,1.74,1.08,2,2.2a86.36,86.36,0,0,1,2.52,25.12c-.22,6.65-.81,13.29-1.22,19.94-.07,1.13-.19,1.94-1.7,1.93-8.72-.06-17.45,0-26.17,0A8.48,8.48,0,0,1,242.41,72.07Zm22.64-35a7.74,7.74,0,1,0-7.73,7.74A7.72,7.72,0,0,0,265.05,37.06Zm-7.78,25.23a5.53,5.53,0,0,0,5.63-5.6,5.64,5.64,0,0,0-5.47-5.59,5.56,5.56,0,0,0-5.7,5.53A5.46,5.46,0,0,0,257.28,62.28Z"/><path class="cls-1" d="M268.52,17.22H245.31c1.89-4.55,4.25-8.54,8.48-11.16,2.69-1.66,5.14-1,7.44.78C264.84,9.58,267,13.37,268.52,17.22Z"/><path class="cls-1" d="M338.33,137.87c-.41-4.56-.73-9.13-1.3-13.68-.18-1.41.22-2.9-1.24-4.25-2.41-2.22-4.58-4.54-6.74-6.86a3,3,0,0,1-.86-1.93c.14-9.84.42-19.69.52-29.53a33.36,33.36,0,0,0-.73-8.46c-1.8-7.2-3.94-14.37-6-21.54-.53-1.83-1.39-3.61-2.1-5.42h-.53c-1.77,5.28-3.8,10.53-5.25,15.85-1.4,5.13-3,10.32-3.13,15.5-.35,11.12.17,22.25.25,33.37a3.69,3.69,0,0,1-1,2.36c-2.09,2.3-4.38,4.53-6.53,6.81a3,3,0,0,0-.88,1.59c-.51,4.56-.93,9.12-1.39,13.68-.1,1-.22,2-.33,3,3.74.33,7.14.41,9.58-1.75a5.8,5.8,0,0,1,1.61-.62c1,.86-.57,2.14,1.29,2.39.79.1,2.44-.35,2-1.52h8.17c.27,1.14,1.28,1.62,3,1.44.08-.71-.76-.46-.63-1.54,1.89.83,3.68.17,5.08,1.08a3.5,3.5,0,0,0,1.39.55,43.31,43.31,0,0,0,5.83.07C338.33,138.16,338.34,138,338.33,137.87Zm-18-56.68A4.33,4.33,0,1,1,324,77.6,4.33,4.33,0,0,1,320.37,81.19Z"/></svg>