<?xml version="1.0" encoding="utf-8"?>
<!-- Generator: Adobe Illustrator 16.0.0, SVG Export Plug-In . SVG Version: 6.00 Build 0)  -->
<!DOCTYPE svg PUBLIC "-//W3C//DTD SVG 1.1//EN" "http://www.w3.org/Graphics/SVG/1.1/DTD/svg11.dtd">
<svg version="1.1" id="Layer_1" xmlns="http://www.w3.org/2000/svg" xmlns:xlink="http://www.w3.org/1999/xlink" x="0px" y="0px"
	 width="787.5px" height="260px" viewBox="-531.5 0 787.5 260" enable-background="new -531.5 0 787.5 260" xml:space="preserve">
<g>
	<path fill="#9EDCF2" d="M200.9,200.15c0,13.899-32.2,25.1-71.9,25.1s-71.9-11.3-71.9-25.1c0-13.9,32.2-25.101,71.9-25.101
		S200.9,186.25,200.9,200.15L200.9,200.15z"/>
	<g>
		<g>
			<defs>
				<path id="SVGID_1_" d="M98.1,245.15c1.6,7.5,5.5,11.899,9.4,14.5h41.1c5-3.4,10.101-9.801,10.101-21.801v-31
					c0,0,0.6-7.699,7.7-10.199c0,0,4.1-2.9-0.301-4.5c0,0-19.5-1.601-19.5,14.399v23.601c0,0,0.801,8.699-3.8,12.3v-29.2
					c0,0,0.3-9.3,5.101-12.8c0,0,3.199-5.7-3.801-4.2c0,0-13.399,1.9-14,17.6l-0.3,30h-3.2l-0.3-30c-0.6-15.6-14-17.6-14-17.6
					c-7-1.6-3.8,4.2-3.8,4.2c4.8,3.5,5.1,12.8,5.1,12.8v29.5c-4.6-3.3-3.8-12.6-3.8-12.6V206.55c0-16-19.5-14.399-19.5-14.399
					c-4.5,1.6-0.3,4.5-0.3,4.5c7,2.6,7.7,10.199,7.7,10.199v21.7L98.1,245.15z"/>
			</defs>
			<clipPath id="SVGID_2_">
				<use xlink:href="#SVGID_1_"  overflow="visible"/>
			</clipPath>
			<path clip-path="url(#SVGID_2_)" fill="#7DBCE7" d="M200.9,200.15c0,13.899-32.2,25.1-71.9,25.1s-71.9-11.3-71.9-25.1
				c0-13.9,32.2-25.101,71.9-25.101S200.9,186.25,200.9,200.15L200.9,200.15z"/>
		</g>
	</g>
	<path fill="#9EDCF2" d="M46.9,126.25l-2.1,7.2c0,0-0.5,2.6,1.9,3.1c2.6-0.1,2.4-2.5,2.2-3.2L46.9,126.25L46.9,126.25z"/>
	<path fill="#010101" d="M255.8,95.95l0.2-0.9c-21.1-4.2-42.7-4.3-55.8-3.7c2.1-7.7,2.8-16.7,2.8-26.6c0-14.3-5.4-25.7-14-34.3
		c1.5-4.9,3.5-15.8-2-29.7c0,0-9.8-3.1-32.1,11.8c-8.7-2.2-18-3.3-27.3-3.3c-10.2,0-20.5,1.3-30.2,3.9c-23-15.7-33.1-12.5-33.1-12.5
		c-6.6,16.5-2.5,28.8-1.3,31.8c-7.8,8.4-12.5,19.1-12.5,32.2c0,9.9,1.1,18.8,3.9,26.5c-13.2-0.5-34-0.3-54.4,3.8l0.2,0.9
		c20.4-4.1,41.4-4.2,54.5-3.7c0.6,1.6,1.3,3.2,2,4.7c-13,0.4-35.1,2.1-56.3,8.1l0.3,0.9c21.4-6,43.7-7.6,56.6-8
		c7.8,14.4,23,23.8,50.2,26.7c-3.9,2.6-7.8,7-9.4,14.5c-5.3,2.5-21.9,8.7-31.9-8.5c0,0-5.6-10.2-16.3-11c0,0-10.4-0.2-0.7,6.5
		c0,0,6.9,3.3,11.7,15.601c0,0,6.3,21,36.4,14.199v21.5c0,0-0.6,7.7-7.7,10.2c0,0-4.2,2.9,0.3,4.5c0,0,19.5,1.601,19.5-14.399
		V154.05c0,0-0.8-9.399,3.8-12.6v38.8c0,0-0.3,9.3-5.1,12.8c0,0-3.2,5.7,3.8,4.2c0,0,13.4-1.9,14-17.6l0.3-39.301h3.2l0.3,39.301
		c0.6,15.6,14,17.6,14,17.6c7,1.6,3.8-4.2,3.8-4.2c-4.8-3.5-5.1-12.8-5.1-12.8v-38.5c4.6,3.6,3.8,12.3,3.8,12.3v23.601
		c0,16,19.5,14.399,19.5,14.399c4.5-1.6,0.3-4.5,0.3-4.5c-7-2.6-7.7-10.2-7.7-10.2v-31c0-12.1-5.1-18.5-10.1-21.8
		c29-2.9,42.899-12.2,49.3-26.8c12.7,0.3,35.6,1.9,57.4,8.1l0.3-0.9c-21.7-6.1-44.4-7.7-57.3-8.1c0.6-1.5,1.1-3,1.6-4.6
		C212.9,91.75,234.6,91.75,255.8,95.95L255.8,95.95z"/>
	<path fill="#F5CCB3" d="M174.6,64.05c6.2,5.7,9.9,12.5,9.9,19.8c0,34.4-25.6,35.3-57.2,35.3c-31.6,0-57.2-4.8-57.2-35.3
		c0-7.3,3.6-14.1,9.8-19.7c10.3-9.4,27.7-4.4,47.4-4.4C147,59.75,164.3,54.65,174.6,64.05L174.6,64.05z"/>
	<path fill="#FFFFFF" d="M108.3,85.65c0,9.5-5.3,17.1-11.9,17.1s-11.9-7.7-11.9-17.1c0-9.5,5.3-17.1,11.9-17.1
		C103,68.45,108.3,76.15,108.3,85.65L108.3,85.65z"/>
	<path fill="#AF5C51" d="M104.5,85.85c0,6.3-3.6,11.4-7.9,11.4c-4.4,0-7.9-5.1-7.9-11.4c0-6.3,3.6-11.4,7.9-11.4
		C100.9,74.45,104.5,79.55,104.5,85.85L104.5,85.85z"/>
	<path fill="#FFFFFF" d="M172.2,85.65c0,9.5-5.3,17.1-11.9,17.1c-6.6,0-11.899-7.7-11.899-17.1c0-9.5,5.3-17.1,11.899-17.1
		C166.8,68.45,172.2,76.15,172.2,85.65L172.2,85.65z"/>
	<path fill="#AF5C51" d="M168.3,85.85c0,6.3-3.6,11.4-7.899,11.4c-4.4,0-7.9-5.1-7.9-11.4c0-6.3,3.6-11.4,7.9-11.4
		C164.8,74.45,168.3,79.55,168.3,85.85L168.3,85.85z"/>
	<path fill="#AF5C51" d="M130.5,100.85c0,1.6-1.3,3-3,3c-1.6,0-3-1.3-3-3c0-1.7,1.3-3,3-3C129.1,97.85,130.5,99.15,130.5,100.85
		L130.5,100.85z"/>
	<path fill="#AF5C51" d="M120.6,108.35c-0.2-0.5,0.1-1,0.6-1.2c0.5-0.2,1,0.1,1.2,0.6c0.8,2.2,2.8,3.6,5.1,3.6s4.3-1.5,5.1-3.6
		c0.2-0.5,0.7-0.8,1.2-0.6c0.5,0.2,0.8,0.7,0.601,1.2c-1,2.9-3.801,4.9-6.9,4.9C124.4,113.25,121.6,111.25,120.6,108.35
		L120.6,108.35z"/>
	<path fill="#C4E5D9" d="M54.5,121.95c0,0.8-0.9,1.4-2.1,1.4c-1.1,0-2.1-0.6-2.1-1.4c0-0.8,0.9-1.4,2.1-1.4
		C53.6,120.55,54.5,121.15,54.5,121.95L54.5,121.95z"/>
	<path fill="#C4E5D9" d="M60.3,125.15c0,0.8-0.9,1.4-2.1,1.4c-1.1,0-2.1-0.6-2.1-1.4c0-0.8,0.9-1.4,2.1-1.4
		C59.4,123.75,60.3,124.35,60.3,125.15L60.3,125.15z"/>
	<path fill="#C4E5D9" d="M63.8,129.35c0,0.8-0.9,1.4-2.1,1.4c-1.1,0-2.1-0.6-2.1-1.4c0-0.8,0.9-1.4,2.1-1.4
		C62.9,127.85,63.8,128.55,63.8,129.35L63.8,129.35z"/>
	<path fill="#C4E5D9" d="M67,134.15c0,0.8-0.9,1.399-2.1,1.399c-1.1,0-2.1-0.6-2.1-1.399c0-0.801,0.9-1.4,2.1-1.4
		C66.1,132.65,67,133.35,67,134.15L67,134.15z"/>
	<path fill="#C4E5D9" d="M70.5,138.55c0,0.8-0.9,1.4-2.1,1.4c-1.1,0-2.1-0.601-2.1-1.4s0.9-1.399,2.1-1.399
		C69.6,137.15,70.5,137.75,70.5,138.55L70.5,138.55z"/>
	<path fill="#C4E5D9" d="M75.3,142.45c0,0.8-0.9,1.399-2.1,1.399c-1.1,0-2.1-0.6-2.1-1.399s0.9-1.4,2.1-1.4
		C74.4,140.95,75.3,141.65,75.3,142.45L75.3,142.45z"/>
	<path fill="#C4E5D9" d="M82,144.95c0,0.8-0.9,1.399-2.1,1.399c-1.1,0-2.1-0.6-2.1-1.399s0.9-1.4,2.1-1.4
		C81.1,143.55,82,144.15,82,144.95L82,144.95z"/>
	<path fill="#C4E5D9" d="M88.7,144.95c0,0.8-0.9,1.399-2.1,1.399c-1.1,0-2.1-0.6-2.1-1.399s0.9-1.4,2.1-1.4
		C87.8,143.55,88.7,144.15,88.7,144.95L88.7,144.95z"/>
	<path fill="#C4E5D9" d="M95.5,143.85c0,0.801-0.9,1.4-2.1,1.4c-1.1,0-2.1-0.6-2.1-1.4c0-0.8,0.9-1.399,2.1-1.399
		C94.5,142.45,95.5,143.05,95.5,143.85L95.5,143.85z"/>
</g>
<g>
	<path fill="#0F0D0E" d="M-416.533,131.654h-47.867c-1.235,0-2.237,0.96-2.237,2.142v22.402c0,1.183,1.002,2.145,2.237,2.145h18.673
		v27.833c0,0-4.193,1.368-15.784,1.368c-13.676,0-32.78-4.783-32.78-44.997c0-40.222,19.893-45.515,38.569-45.515
		c16.167,0,23.132,2.725,27.563,4.038c1.393,0.408,2.681-0.92,2.681-2.101l5.339-21.646c0-0.554-0.195-1.22-0.854-1.672
		c-1.8-1.229-12.78-7.111-40.518-7.111c-31.955,0-64.733,13.014-64.733,75.574c0,62.563,37.528,71.887,69.152,71.887
		c26.185,0,42.07-10.712,42.07-10.712c0.654-0.346,0.725-1.222,0.725-1.622v-69.87
		C-414.297,132.614-415.298,131.654-416.533,131.654z"/>
	<path fill="#0F0D0E" d="M-169.848,76.036c0-1.192-0.987-2.154-2.222-2.154h-26.952c-1.23,0-2.231,0.962-2.231,2.154
		c0,0.005,0.006,49.858,0.006,49.858h-42.011V76.036c0-1.192-0.991-2.154-2.223-2.154h-26.951c-1.227,0-2.227,0.962-2.227,2.154
		V211.04c0,1.19,1,2.16,2.227,2.16h26.951c1.232,0,2.223-0.97,2.223-2.16v-57.747h42.011c0,0-0.073,57.742-0.073,57.747
		c0,1.19,1,2.16,2.233,2.16h27.015c1.234,0,2.222-0.97,2.224-2.16V76.036z"/>
	<g>
		<g>
			<path fill="#0F0D0E" d="M-365.674,93.751c0-9.29-7.78-16.797-17.38-16.797c-9.589,0-17.375,7.507-17.375,16.797
				c0,9.281,7.786,16.808,17.375,16.808C-373.454,110.559-365.674,103.032-365.674,93.751z"/>
			<path fill="#0F0D0E" d="M-367.601,182.562c0-3.46,0-62.319,0-62.319c0-1.184-0.997-2.15-2.23-2.15h-26.867
				c-1.232,0-2.335,1.216-2.335,2.399c0,0,0,74.989,0,89.284c0,2.623,1.708,3.403,3.918,3.403c0,0,11.467,0,24.207,0
				c2.656,0,3.307-1.248,3.307-3.446C-367.601,204.947-367.601,186.201-367.601,182.562z"/>
		</g>
	</g>
	<path fill="#0F0D0E" d="M-67.419,118.295h-26.745c-1.227,0-2.225,0.968-2.225,2.159v66.196c0,0-6.794,4.759-16.438,4.759
		c-9.643,0-12.203-4.188-12.203-13.228c0-9.051,0-57.728,0-57.728c0-1.19-0.997-2.159-2.225-2.159h-27.143
		c-1.226,0-2.229,0.968-2.229,2.159c0,0,0,35.251,0,62.098c0,26.849,15.632,33.418,37.136,33.418c17.641,0,31.865-9.33,31.865-9.33
		s0.678,4.916,0.983,5.499c0.307,0.581,1.105,1.169,1.969,1.169l17.268-0.073c1.226,0,2.229-0.969,2.229-2.155l-0.008-90.625
		C-65.187,119.264-66.187,118.295-67.419,118.295z"/>
	<path fill="#0F0D0E" d="M5.68,115.263c-15.19,0-25.522,6.488-25.522,6.488V76.036c0-1.192-0.995-2.154-2.224-2.154h-27.028
		c-1.229,0-2.228,0.962-2.228,2.154V211.04c0,1.19,0.999,2.16,2.231,2.16c0.002,0,18.747,0,18.752,0
		c0.845,0,1.483-0.417,1.956-1.147c0.466-0.725,1.139-6.225,1.139-6.225s11.052,10.025,31.974,10.025
		c24.562,0,38.648-11.927,38.648-53.539C43.378,120.7,20.881,115.263,5.68,115.263z M-4.869,191.327
		c-9.277-0.271-15.569-4.3-15.569-4.3v-42.753c0,0,6.208-3.642,13.824-4.293c9.631-0.825,18.912,1.959,18.912,23.951
		C12.297,187.125,8.108,191.702-4.869,191.327z"/>
	<path fill="#0F0D0E" d="M-290.14,118.081h-20.218c0,0-0.03-25.563-0.03-25.568c0-0.968-0.521-1.451-1.689-1.451h-27.55
		c-1.072,0-1.647,0.451-1.647,1.437v26.42c0,0-13.807,3.19-14.741,3.448c-0.929,0.258-1.613,1.08-1.613,2.058v16.603
		c0,1.193,0.996,2.157,2.229,2.157h14.125c0,0,0,17.365,0,39.941c0,29.667,21.74,32.582,36.408,32.582
		c6.703,0,14.721-2.061,16.045-2.529c0.8-0.28,1.266-1.074,1.266-1.935l0.022-18.266c0-1.189-1.05-2.154-2.234-2.154
		c-1.178,0-4.192,0.459-7.295,0.459c-9.93,0-13.295-4.42-13.295-10.143c0-5.716-0.001-37.956-0.001-37.956h20.219
		c1.232,0,2.23-0.964,2.23-2.157v-20.796C-287.909,119.039-288.907,118.081-290.14,118.081z"/>
</g>
</svg>
