<svg width="122" height="24" xmlns="http://www.w3.org/2000/svg"><g fill-rule="nonzero" fill="none"><g fill="#030C1A"><path d="M40.02 11.5c0 1.199-.447 1.986-1.306 2.362l1.235 4.69c.053.214-.054.321-.251.321h-1.86c-.18 0-.269-.09-.305-.25l-1.199-4.546H35.1v4.51c0 .18-.107.286-.286.286h-1.86c-.18 0-.287-.107-.287-.286V4.842c0-.18.107-.287.286-.287h4.49c1.682 0 2.577.895 2.577 2.577V11.5zm-3.149.214c.465 0 .716-.25.716-.716V7.634c0-.466-.25-.716-.716-.716H35.1v4.797h1.771zM41.45 7.132c0-1.682.895-2.577 2.577-2.577h2.003c1.682 0 2.577.895 2.577 2.577v9.164c0 1.682-.895 2.577-2.577 2.577h-2.003c-1.682 0-2.577-.895-2.577-2.577V7.132zm4.133 9.432c.465 0 .715-.233.715-.716V7.58c0-.465-.25-.716-.715-.716h-1.038c-.465 0-.715.25-.715.716v8.269c0 .482.25.715.715.715h1.038zM57.569 9.065c0 .18-.108.287-.286.287h-1.79c-.196 0-.285-.108-.285-.287V7.634c0-.466-.25-.716-.716-.716h-.93c-.483 0-.716.25-.716.716v8.161c0 .483.25.716.716.716h.93c.465 0 .716-.233.716-.716v-1.432c0-.179.089-.286.286-.286h1.789c.18 0 .286.107.286.286v1.933c0 1.682-.913 2.577-2.576 2.577h-2.004c-1.682 0-2.594-.895-2.594-2.577V7.132c0-1.682.912-2.577 2.594-2.577h2.004c1.664 0 2.576.895 2.576 2.577v1.933zM65.118 18.873c-.215 0-.34-.09-.412-.268l-2.254-5.316-.662 1.271v3.955c0 .233-.125.358-.358.358h-1.717c-.233 0-.358-.125-.358-.358V4.913c0-.232.125-.358.358-.358h1.717c.233 0 .358.126.358.358v5.548l2.755-5.637c.09-.18.215-.269.412-.269h1.878c.268 0 .376.18.25.43l-3.04 6.246 3.237 7.23c.125.233.018.412-.268.412h-1.896zM75.726 6.632c0 .178-.071.304-.286.304h-4.473v3.58h3.418c.179 0 .286.107.286.303v1.772c0 .197-.108.305-.286.305h-3.418v3.615h4.473c.215 0 .286.09.286.286v1.79c0 .179-.071.286-.286.286h-6.583c-.162 0-.27-.108-.27-.286V4.842c0-.18.108-.287.27-.287h6.583c.215 0 .286.108.286.287v1.79zM84.027 4.555c.197 0 .286.108.286.287v1.79c0 .178-.09.286-.286.286h-2.075v11.669c0 .197-.09.286-.286.286h-1.861c-.18 0-.286-.09-.286-.286V6.917h-2.075c-.18 0-.286-.107-.286-.285v-1.79c0-.18.107-.287.286-.287h6.583zM84.133 16.868c0-.232.125-.357.358-.357h1.628c.233 0 .358.125.358.357v1.647c0 .233-.125.358-.358.358h-1.628c-.233 0-.358-.125-.358-.358v-1.647zM95.44 9.065c0 .18-.108.287-.287.287h-1.789c-.196 0-.286-.108-.286-.287V7.634c0-.466-.25-.716-.715-.716h-.93c-.483 0-.716.25-.716.716v8.161c0 .483.25.716.716.716h.93c.465 0 .715-.233.715-.716v-1.432c0-.179.09-.286.286-.286h1.79c.179 0 .286.107.286.286v1.933c0 1.682-.913 2.577-2.577 2.577H90.86c-1.681 0-2.594-.895-2.594-2.577V7.132c0-1.682.913-2.577 2.594-2.577h2.004c1.664 0 2.577.895 2.577 2.577v1.933zM101.951 4.842c0-.18.107-.287.286-.287h1.843c.214 0 .303.108.303.287v13.745c0 .179-.089.286-.303.286h-1.843c-.18 0-.286-.108-.286-.286v-5.691h-2.29v5.691c0 .18-.107.286-.286.286h-1.843c-.215 0-.304-.107-.304-.286V4.842c0-.18.09-.287.304-.287h1.843c.18 0 .286.108.286.287v5.69h2.29v-5.69zM112.542 18.873c-.161 0-.25-.09-.286-.25l-.501-2.613h-3.185l-.482 2.613c-.036.16-.126.25-.287.25h-1.914c-.196 0-.286-.107-.233-.304l2.97-13.763c.036-.179.143-.25.304-.25h2.487c.161 0 .269.071.304.25l2.97 13.763c.036.197-.035.304-.25.304h-1.897zm-2.38-11.186l-1.145 6.246h2.29l-1.145-6.246zM121.38 4.555c.196 0 .285.108.285.287v1.79c0 .178-.09.286-.286.286h-2.075v11.669c0 .197-.09.286-.286.286h-1.86c-.18 0-.287-.09-.287-.286V6.917h-2.075c-.179 0-.286-.107-.286-.285v-1.79c0-.18.108-.287.286-.287h6.583z"/></g><path d="M28.06 11.94c0-1.403-.42-2.75-1.248-4-.743-1.124-1.785-2.118-3.096-2.956-2.532-1.618-5.859-2.509-9.368-2.509-1.172 0-2.327.1-3.448.296a11.41 11.41 0 0 0-2.37-1.7C3.928-1.16.112 1.018.112 1.018S3.66 3.934 3.083 6.49C1.496 8.064.636 9.964.636 11.941v.038c0 1.977.86 3.876 2.447 5.451.577 2.556-2.97 5.471-2.97 5.471s3.815 2.178 8.417-.052a11.427 11.427 0 0 0 2.37-1.7c1.12.196 2.276.295 3.448.295 3.51 0 6.836-.89 9.368-2.508 1.31-.838 2.353-1.832 3.096-2.956.829-1.251 1.248-2.597 1.248-4v-.02-.02z" fill="#C1272D"/><path d="M14.348 4.46c6.498 0 11.766 3.366 11.766 7.519 0 4.152-5.268 7.518-11.766 7.518-1.447 0-2.832-.168-4.113-.473-1.3 1.566-4.163 3.743-6.943 3.04.904-.972 2.244-2.614 1.957-5.319-1.666-1.297-2.667-2.957-2.667-4.766 0-4.153 5.268-7.519 11.766-7.519" fill="#FFF"/><g transform="translate(7.253 10.605)" fill="#C1272D"><ellipse cx="7.095" cy="1.616" rx="1.563" ry="1.564"/><ellipse cx="12.529" cy="1.616" rx="1.563" ry="1.564"/><ellipse cx="1.66" cy="1.616" rx="1.563" ry="1.563"/></g><path d="M14.348 18.508c-1.447 0-2.832-.145-4.113-.41-1.148 1.198-3.515 2.81-5.967 2.75-.323.49-.674.89-.976 1.215 2.78.704 5.642-1.473 6.943-3.039 1.28.305 2.667.473 4.113.473 6.446 0 11.68-3.313 11.764-7.42-.083 3.56-5.318 6.43-11.764 6.43z" fill="#CCC"/></g></svg>