<svg xmlns="http://www.w3.org/2000/svg" viewBox="0 0 42.1 49.9"><title>android</title><path d="M7.23,15.6A12.73,12.73,0,0,1,14.6,4.4h0L12.5.65a.48.48,0,0,1,.2-.6.44.44,0,0,1,.6.17L15.4,4A15.62,15.62,0,0,1,21.1,3,14.68,14.68,0,0,1,26.8,4.1L29,.23a.44.44,0,0,1,.6-.17.48.48,0,0,1,.2.6L27.6,4.47a12.62,12.62,0,0,1,7.3,11.1H7.23Zm0,1.2v20a3.34,3.34,0,0,0,3.37,3.3h21a3.33,3.33,0,0,0,3.3-3.3v-20H7.23Zm21.5-7.2a1.24,1.24,0,0,0-1.2-1.2,1.18,1.18,0,0,0-1.2,1.2,1.16,1.16,0,0,0,1.2,1.2A1.22,1.22,0,0,0,28.73,9.6Zm-12.8,0a1.2,1.2,0,1,0-2.4,0,1.2,1.2,0,0,0,2.4,0Z" style="fill:#abbf4e"/><path d="M39,16.3a3.12,3.12,0,0,1,3.1,3.1V32.2a3.1,3.1,0,1,1-6.2,0V19.4A3.12,3.12,0,0,1,39,16.3Z" style="fill:#abbf4e"/><path d="M15.7,31a3.12,3.12,0,0,1,3.1,3.1V46.9a3,3,0,0,1-3.1,3,3.06,3.06,0,0,1-3.2-3V34.1A3.14,3.14,0,0,1,15.7,31Z" style="fill:#abbf4e"/><path d="M3.13,16.3a3.12,3.12,0,0,1,3.13,3.1V32.2A3.13,3.13,0,0,1,0,32.2V19.4A3.12,3.12,0,0,1,3.13,16.3Z" style="fill:#abbf4e"/><path d="M26.7,31a3.14,3.14,0,0,1,3.2,3.1V46.9a3.15,3.15,0,0,1-6.3,0V34.1A3.12,3.12,0,0,1,26.7,31Z" style="fill:#abbf4e"/></svg>