<?xml version="1.0" encoding="UTF-8"?>
<svg width="240px" height="32px" viewBox="0 0 240 32" version="1.1" xmlns="http://www.w3.org/2000/svg" xmlns:xlink="http://www.w3.org/1999/xlink">
    <!-- Generator: Sketch 47 (45396) - http://www.bohemiancoding.com/sketch -->
    <title>clients</title>
    <desc>Created with Sketch.</desc>
    <defs>
        <linearGradient x1="50%" y1="0%" x2="50%" y2="100%" id="linearGradient-1">
            <stop stop-color="#28D5F9" offset="0%"></stop>
            <stop stop-color="#1872F3" offset="100%"></stop>
        </linearGradient>
    </defs>
    <g id="download" stroke="none" stroke-width="1" fill="none" fill-rule="evenodd" opacity="0.400000006">
        <g transform="translate(-600.000000, -340.000000)" id="Hero">
            <g>
                <g id="clients" transform="translate(600.000000, 340.000000)">
                    <g id="windows" opacity="0.300000012" fill-rule="nonzero" fill="#929DB3">
                        <polygon id="Shape" points="0 4.50909091 12.9818182 2.74181818 12.9818182 15.2727273 0.0118545455 15.3454545"></polygon>
                        <polygon id="Shape" points="14.5454545 2.51272727 31.7454545 -3.63636364e-05 31.7454545 15.0909091 14.5454545 15.2363636"></polygon>
                        <polygon id="Shape" points="12.9818182 16.6909091 12.9818182 29.2363636 0.0100727273 27.4545455 0.00934545455 16.6181818"></polygon>
                        <polygon id="Shape" points="31.7454545 16.8363636 31.7454545 31.8545455 14.5454545 29.4181818 14.5090909 16.8"></polygon>
                    </g>
                    <g id="finder" opacity="0.300000012" transform="translate(56.000000, 2.000000)">
                        <g id="c-link" fill-rule="nonzero" fill="#929DB3">
                            <path d="M1.45454545,0 L29.6390773,0 L29.6390773,0 C30.5413173,-1.65738789e-16 31.2727273,0.731409988 31.2727273,1.63364993 L31.2727273,27.3663501 L31.2727273,27.3663501 C31.2727273,28.26859 30.5413173,29 29.6390773,29 L1.45454545,29 L1.45454545,29 C0.651222182,29 1.88211471e-15,28.3487778 0,27.5454545 L0,1.45454545 L0,1.45454545 C-9.83787274e-17,0.651222182 0.651222182,-7.44765138e-17 1.45454545,-2.22044605e-16 Z" id="c"></path>
                        </g>
                        <path d="M16.2956709,0 C13.0694932,7.9296875 13.0925373,13.8203125 13.0925373,13.8203125 C13.0925373,14.1941406 13.3805889,14.5 13.760817,14.5 L17.0215609,14.5 C17.3211345,14.5 17.5515758,14.7265625 17.5400537,15.0324219 C17.5400537,15.0324219 17.0561271,22.5316406 18.8305248,29 L29.8198077,29 L29.8198077,29 C30.623131,29 31.2743532,28.3487778 31.2743532,27.5454545 L31.2743532,1.45454545 L31.2743532,1.45454545 C31.2743532,0.651222182 30.623131,7.44765138e-17 29.8198077,2.22044605e-16 L16.2956709,0 Z" id="j" fill="#474E59" fill-rule="nonzero"></path>
                        <g id="Clipped" transform="translate(8.000000, 7.250000)" fill-rule="nonzero" fill="#FFFFFF" opacity="0.1">
                            <rect id="Rectangle-path" x="0.0515603799" y="0.144422311" width="1.28358209" height="3.35059761" rx="0.583446404"></rect>
                        </g>
                        <g id="Clipped" transform="translate(21.818182, 7.250000)" fill-rule="nonzero" fill="#FFFFFF" opacity="0.1">
                            <rect id="Rectangle-path" x="0.119402985" y="0.144422311" width="1.28358209" height="3.35059761" rx="0.583446404"></rect>
                        </g>
                        <g id="Clipped" transform="translate(8.000000, 7.250000)" fill-rule="nonzero" fill="#272B32">
                            <rect id="Rectangle-path" x="0.0515603799" y="0.0288844622" width="1.28358209" height="3.35059761" rx="0.641791045"></rect>
                        </g>
                        <g id="Clipped" transform="translate(21.818182, 7.250000)" fill-rule="nonzero" fill="#272B32">
                            <rect id="Rectangle-path" x="0.119402985" y="0.0288844622" width="1.28358209" height="3.35059761" rx="0.641791045"></rect>
                        </g>
                        <g id="Clipped" transform="translate(5.818182, 18.850000)" stroke="#FFFFFF" stroke-width="1.16689281" stroke-linecap="round" opacity="0.1">
                            <path d="M0.65807327,0.155976096 C0.65807327,0.155976096 3.63364993,4.02649402 10.2849389,3.79541833 C16.936228,3.56434263 18.9782904,0.155976096 18.9782904,0.155976096" id="Shape"></path>
                        </g>
                        <g id="Clipped" transform="translate(5.818182, 18.850000)" stroke="#272B33" stroke-width="1.16689281" stroke-linecap="round">
                            <path d="M0.65807327,0.040438247 C0.65807327,0.040438247 3.63364993,3.91095618 10.2849389,3.67988048 C16.936228,3.44880478 18.9782904,0.040438247 18.9782904,0.040438247" id="Shape"></path>
                        </g>
                    </g>
                    <g id="linux" opacity="0.300000012" transform="translate(112.000000, 0.000000)" fill-rule="nonzero">
                        <path d="M13.1022923,0.353735134 C12.2653692,0.353735134 12.1346,0.364055634 11.5592154,0.507768595 C10.8792154,0.688377343 10.4869077,0.912848216 10.0161385,1.37985084 C9.78075385,1.61206208 9.64998462,1.75912921 9.54536923,1.95005846 C9.25767692,2.43770208 9.0746,2.9872687 8.94383077,3.73550494 C8.89152308,4.09672243 8.89152308,4.25152993 8.89152308,5.15457367 C8.89152308,6.08341867 8.99613846,8.99895989 9.0746,9.85040113 C9.12690769,10.4180286 9.10075385,10.4954324 8.60383077,11.1662649 C8.44690769,11.3984761 8.21152308,11.7338924 8.08075385,11.9403024 C7.74075385,12.4305261 7.29613846,13.0755573 6.90383077,13.5657811 C6.19767692,14.4430236 6.04075385,14.7784398 5.59613846,15.9652973 C5.15152308,17.1263536 4.88998462,17.6939811 4.26229231,18.9066398 C3.94844615,19.5258698 3.86998462,19.7838823 3.84383077,20.1967023 C3.81767692,20.583721 3.86998462,21.099746 3.94844615,21.1771498 C3.9746,21.2287523 4.05306154,21.2545535 4.15767692,21.2287523 C4.13152308,21.2287523 4.13152308,21.2545535 4.13152308,21.2545535 C3.94844615,21.3835598 3.73921538,21.615771 3.60844615,21.9511873 C3.58229231,21.9511873 3.58229231,21.9511873 3.58229231,21.9769885 C3.55613846,22.028591 3.50383077,22.1575973 3.42536923,22.338206 C3.24229231,22.8800323 3.08536923,23.1122435 2.80290769,23.2412497 C2.56490769,23.370256 2.35044615,23.4218585 1.72798462,23.4218585 C1.08198462,23.4218585 0.940753846,23.4476597 0.749830769,23.6024672 C0.4046,23.886281 0.352292308,24.4539085 0.587676923,25.2537472 C0.802138462,25.9761822 0.791676923,26.363201 0.514707692,27.1372385 C0.3638,27.6532635 0.342876923,27.6532635 0.342876923,27.911276 C0.342876923,27.911276 0.358569231,28.1692884 0.389692308,28.1692884 C0.457430769,28.1692884 0.672153846,28.4273009 0.878769231,28.4273009 C1.11415385,28.6853134 2.29107692,28.9433259 3.13846154,29.2013384 C4.44615385,29.4593509 4.91692308,29.4593509 6.12,29.9753759 C7.19230769,30.4914009 7.66307692,30.4914009 8.02923077,30.4914009 L8.70923077,30.4914009 C8.89230769,30.4914009 9.07538462,30.2333884 9.49384615,29.9753759 C10.2,29.4593509 10.5661538,29.2013384 11.3769231,29.2013384 C11.6646154,28.9433259 11.9261538,28.9433259 14.2015385,28.9433259 C15.5615385,28.9433259 16.7907692,28.9433259 16.8953846,29.2013384 C17.1569231,29.2013384 17.2353846,29.2013384 17.4707692,29.4593509 C17.7846154,30.2333884 18.1769231,30.4914009 18.9092308,30.4914009 L20.1123077,30.4914009 C20.7138462,30.4914009 21.0015385,30.2333884 21.6815385,29.4593509 C22.4661538,28.6853134 23.1984615,28.4273009 24.2184615,27.911276 C24.7415385,27.6532635 24.9769231,27.6532635 25.5784615,27.1372385 C26.3369231,26.6212135 26.4153846,26.363201 26.4153846,26.1051885 C26.4153846,25.7697722 26.2846154,25.5633622 25.6046154,25.0989397 C24.9507692,24.6861197 24.6369231,24.4281072 24.3753846,24.0152872 C24.1661538,23.7314735 24.1138462,23.5250635 24.0876923,23.1122435 C24.0615385,22.9058335 24.0615385,22.7768273 24.0353846,22.6994235 C24.0092308,22.3898085 23.8784615,22.0543923 23.6692308,21.9511873 C23.3815385,21.7963798 23.2769231,21.8479823 23.1723077,21.8995848 C23.4861538,21.5383673 23.6169231,21.3577585 23.7215385,21.0481435 C23.9046154,20.480516 23.8784615,19.861286 23.5384615,18.210006 C23.1461538,16.3007136 22.4923077,14.9332473 21.1323077,13.2303648 C20.2953846,12.1209111 19.9292308,11.5790849 19.0923077,10.0310099 C18.6738462,9.25697238 18.5692308,8.99895989 18.4646154,8.56033864 C18.3076923,7.9669099 18.2553846,7.42508365 18.1507692,5.90280992 C18.0461538,4.45793993 17.9676923,3.86451119 17.8369231,3.37428744 C17.4707692,2.02230196 16.3984615,0.995412215 14.8815385,0.56195122 C14.2538462,0.389598871 13.9661538,0.353735134 13.1030769,0.353735134 L13.1022923,0.353735134 Z" id="Shape" fill="#272B33"></path>
                        <g id="Group" transform="translate(0.514708, 6.805854)" fill="#31363E">
                            <path d="M15.7969231,2.02281798 C15.7969231,2.73493247 14.9338462,2.88973997 14.5153846,3.14775247 C14.1230769,3.50896997 11.8738462,4.51521871 11.2723077,4.51521871 C10.3046154,4.30880871 9.15384615,2.88973997 8.99692308,1.96605523 C8.99692308,1.42164886 9.70307692,0.98560774 10.0953846,0.626970369 C10.4876923,0.270913122 10.9323077,-0.0645031244 11.7169231,0.0774037492 C12.2923077,0.0776617617 13.2338462,0.356057247 13.6261538,0.714694618 C14.4107692,0.970126991 15.7969231,1.13525499 15.7969231,2.02281798 L15.7969231,2.02281798 Z" id="Shape"></path>
                            <path d="M0.0462923077,21.1570248 C0.935523077,21.5440435 3.00167692,22.0600685 3.73398462,22.1632735 C4.23090769,22.3438823 7.44783077,23.0921185 8.18013846,23.0921185 C9.2786,22.318081 9.46167692,21.1570248 9.17398462,19.9701673 C7.78783077,17.7770611 6.71552308,14.9131224 4.15244615,13.9326749 C3.89090769,14.0616811 3.68167692,14.3970974 3.60321538,14.4486999 C3.42013846,14.5777061 3.21090769,14.8357186 3.08013846,15.1453336 C2.94936923,15.4807498 2.8186,15.8677686 2.66167692,16.4611973 C2.37136923,17.0546261 1.16044615,16.5127998 0.328753846,16.9514211 C0.0279846154,17.8544648 0.543215385,20.0991736 0.0410615385,21.1570248 L0.0402769231,21.1570248 L0.0462923077,21.1570248 Z" id="Shape"></path>
                            <path d="M23.9569231,17.8028623 C24.5061538,18.2414836 25.3692308,18.5768998 25.7615385,19.3251361 C25.0292308,20.2023786 24.3753846,20.5119935 23.4338462,20.976416 C22.1261538,21.5698448 21.3153846,22.1632735 20.7138462,22.5502923 C20.1123077,23.0663173 18.7261538,23.3759323 18.0984615,23.2985285 C17.7061538,23.040516 17.2615385,19.9185648 17.4184615,18.8865148 C17.4184615,18.3446886 16.7384615,16.1773836 17.8107692,14.8615199 C18.8569231,14.6551099 19.7461538,15.6097561 20.4261538,16.2547873 C20.9753846,15.8935698 21.8384615,15.3259424 22.4923077,15.1969361 C22.7015385,15.1453336 22.7015385,14.9131224 23.1461538,15.1453336 C23.3553846,15.2743399 23.4861538,15.6097561 23.5123077,15.9193711 C23.5384615,16.3837936 23.5907692,17.4158436 23.9569231,17.8028623 L23.9569231,17.8028623 Z" id="Shape"></path>
                        </g>
                        <g id="Group" transform="translate(0.306523, 0.333352)" fill="#929DB3">
                            <g transform="translate(0.034785, 0.007663)" id="Shape">
                                <path d="M7.68923077,30.1874622 C7.32307692,30.1874622 6.85230769,29.9294497 5.78,29.6714372 C4.55076923,29.1554122 4.10615385,28.8973997 2.79846154,28.6393872 C1.94846154,28.6393872 0.768923077,28.3813747 0.538769231,28.1233622 C0.329538462,28.1233622 0.112461538,27.8653497 0.0470769231,27.8653497 C0.0162153846,27.6073372 -2.9e-15,27.6073372 -2.9e-15,27.6073372 C-2.30892308e-15,27.3493247 0.0209492308,27.0913122 0.172353846,26.8332997 C0.446969231,26.0592622 0.460046154,25.620641 0.246892308,24.9240073 C0.00993846154,24.1241685 0.0653846154,23.556541 0.408,23.2727273 C0.598923077,23.0921185 0.740153846,23.0663173 1.38353846,23.0663173 C2.00861538,23.0663173 2.22046154,23.040516 2.46369231,22.9115098 C2.74615385,22.7567023 2.90307692,22.524491 3.08615385,22.008466 C3.19076923,21.6730498 3.26923077,21.5440435 3.34769231,21.5440435 C3.42615385,21.5440435 3.47846154,21.6730498 3.47846154,21.8536585 C3.47846154,22.0342673 3.29538462,22.7050998 3.19076923,22.8599073 C3.11230769,23.0663173 2.98153846,23.1953235 2.82461538,23.2985285 C2.54215385,23.453336 2.00338462,23.5049385 1.40969231,23.4017335 C1.03307692,23.350131 0.816,23.350131 0.672153846,23.453336 C0.457692308,23.5823423 0.423692308,23.866156 0.578,24.2273735 C0.878769231,24.898206 0.936307692,25.0530135 0.999076923,25.2852248 C1.07492308,25.5690385 1.088,25.8012497 1.04092308,26.0592622 C0.993846154,26.3172747 0.910153846,26.5752872 0.664307692,26.8332997 C0.538769231,27.0913122 0.421076923,27.3493247 0.405384615,27.3493247 C0.363538462,27.3493247 0.426307692,27.6073372 0.598923077,27.6073372 C0.745384615,27.8653497 2.82461538,28.3813747 4.31276923,28.6393872 C4.75738462,28.6393872 5.59430769,28.8973997 6.14353846,29.1554122 C6.69276923,29.1554122 7.26815385,29.4134247 7.42507692,29.4134247 C7.89584615,29.4134247 8.31430769,29.4134247 8.62815385,29.1554122 C9.04661538,28.8973997 9.33430769,28.3813747 9.36046154,27.6073372 C9.38661538,27.0913122 9.282,26.8332997 9.02046154,26.3172747 C8.81123077,25.8012497 8.70661538,25.6980447 7.73892308,24.2531748 C6.01276923,21.698851 5.25430769,20.8474098 4.62661538,20.6926023 C4.41738462,20.666801 4.28661538,20.6926023 3.99892308,20.8216085 C3.73738462,20.9248135 3.65892308,20.9248135 3.60661538,20.8474098 C3.52815385,20.7442048 3.47584615,20.2281798 3.502,19.8669623 C3.52815385,19.4283411 3.60661538,19.1703286 3.92046154,18.5768998 C4.54815385,17.3642411 4.80969231,16.7966136 5.25430769,15.6355573 C5.67276923,14.4486999 5.85584615,14.1132836 6.562,13.2102399 C6.95430769,12.7200161 7.39892308,12.0749849 7.73892308,11.5847611 C7.86969231,11.4041524 8.10507692,11.0687361 8.262,10.8107236 C8.75892308,10.1398912 8.78507692,10.0882887 8.73276923,9.52066116 C8.65430769,8.64341867 8.54969231,5.75367869 8.54969231,4.79903245 C8.54969231,3.89598871 8.54969231,3.76698246 8.602,3.40576497 C8.73276923,2.65752872 8.91584615,2.09506148 9.20353846,1.60999798 C9.30815385,1.41906874 9.43892308,1.26942149 9.67430769,1.03721024 C10.1450769,0.570207619 10.5373846,0.345736747 11.2173846,0.170288248 C11.7927692,0.0258012497 11.9235385,0.0116105624 12.7604615,0.0123845999 C13.6235385,0.0130554324 13.8850769,0.046700262 14.5389231,0.228599073 C16.0558462,0.654319694 17.1281538,1.68120943 17.4943077,3.0409353 C17.6250769,3.53115904 17.6773846,4.12458778 17.782,5.54365652 C17.9127692,7.09173151 17.9650769,7.63355775 18.122,8.22698649 C18.2266154,8.63980649 18.3312308,8.92362024 18.7496923,9.69765773 C19.5866154,11.2457327 19.9266154,11.787559 20.7896923,12.8712114 C22.1496923,14.5998952 22.8035385,15.9415602 23.1958462,17.8508527 C23.5096923,19.5021326 23.562,20.1471639 23.3789231,20.7147914 C23.2481538,21.0502076 23.1435385,21.2050151 22.7512308,21.6436364 C21.9143077,22.5466801 20.9727692,23.1401088 20.3450769,23.1401088 C19.7696923,23.1401088 19.2466154,22.7272889 18.8543077,22.0306551 C18.6973846,21.6436364 18.6973846,21.3340214 18.2004615,21.4372264 C17.9650769,21.5146301 17.7558462,21.7984439 17.7035385,22.1854626 C17.6512308,22.4692764 17.6512308,23.5013263 17.7035385,23.7593388 C17.7296923,23.8625438 17.8081538,24.2237613 17.8604615,24.5333763 C17.9650769,25.0494013 17.9650769,25.1010038 17.9650769,25.6428301 C17.9650769,26.0556501 17.9389231,26.3136626 17.8604615,26.8296876 C17.782,27.3457126 17.782,27.6037251 17.782,27.8617376 C17.8081538,28.1197501 17.8081538,28.1197501 17.8866154,28.3777625 C18.0173846,28.635775 18.2789231,28.8937875 18.5143077,29.1518 C19.0112308,29.4098125 19.6912308,29.4098125 20.2666154,29.1518 C20.4496923,29.1518 20.6850769,28.8937875 21.0773846,28.635775 C21.7573846,28.1197501 22.2281538,27.6037251 22.5943077,27.6037251 C22.7512308,27.3457126 23.0912308,27.3457126 23.3527692,27.3457126 C24.5035385,26.8296876 25.0266154,26.5716751 25.3143077,26.3136626 C25.6543077,26.0556501 25.8112308,25.7976376 25.7589231,25.5912276 C25.6804615,25.3332151 25.3666154,25.1268051 24.6866154,24.9461963 C24.1896923,24.8171901 24.0589231,24.7655876 23.8496923,24.5333763 C23.6666154,24.3527676 23.5358462,24.0689538 23.4312308,23.6819351 C23.3266154,23.3207176 23.3004615,22.7272889 23.4050769,22.4950776 C23.4573846,22.3144689 23.5096923,22.2370651 23.5881538,22.2370651 C23.6666154,22.2370651 23.7189231,22.3918726 23.7450769,22.7530901 C23.7712308,23.1659101 23.8235385,23.3981213 24.0327692,23.6819351 C24.2943077,24.0689538 24.582,24.3269663 25.262,24.7655876 C25.942,25.2300101 26.1250769,25.4364201 26.1250769,25.7718363 C26.1250769,26.0556501 25.9943077,26.3136626 25.2358462,26.8296876 C24.6081538,27.0877001 24.3989231,27.3457126 23.8758462,27.6037251 C22.8296923,27.8617376 22.1235385,28.3777625 21.3389231,29.1518 C20.6589231,29.9258375 20.3712308,30.18385 19.7696923,30.18385 L18.5666154,30.18385 C17.8343077,30.18385 17.442,29.9258375 17.102,29.1518 C16.8927692,28.8937875 16.7881538,28.635775 16.5527692,28.635775 L13.8327692,28.635775 L11.0081538,28.635775 C10.2235385,28.8937875 9.83123077,29.1518 9.12507692,29.667825 C8.73276923,29.9258375 8.54969231,30.18385 8.36661538,30.18385 L7.66046154,30.18385 L7.68661538,30.18385 L7.68923077,30.1874622 Z M10.2784615,28.3813747 C10.3569231,28.3813747 10.4353846,28.1233622 10.4876923,28.1233622 C10.5923077,27.8653497 10.5923077,27.8653497 10.6184615,27.6073372 C10.6184615,27.0913122 10.54,26.8332997 10.2,26.5752872 C9.99076923,26.3172747 9.93846154,26.3172747 10.0692308,26.3172747 C10.2,26.0592622 10.3569231,26.3172747 10.6184615,26.5752872 C11.1153846,26.8332997 11.4292308,27.0913122 12.5276923,26.8332997 C13.7307692,26.8332997 14.3846154,26.8332997 15.0384615,26.5752872 C15.4569231,26.3172747 15.7446154,26.0592622 16.0846154,25.5432373 C16.3461538,25.2336223 16.4507692,25.104616 16.6076923,25.0530135 C16.8430769,24.9498085 16.9738462,25.1562185 16.9476923,25.5948398 C16.9476923,25.8012497 16.9215385,26.0592622 16.8430769,26.3172747 C16.5815385,27.0913122 16.5030769,27.6073372 16.5553846,28.1233622 C16.6076923,28.1233622 16.7384615,28.3813747 16.8692308,28.3813747 C16.9476923,28.1233622 16.9476923,28.1233622 16.9738462,28.1233622 C17,27.8653497 17.0523077,27.6073372 17.1046154,27.3493247 C17.1307692,27.0913122 17.1830769,26.5752872 17.2092308,26.5752872 C17.2876923,26.0592622 17.34,24.6659948 17.34,23.143721 C17.34,21.8278573 17.34,21.8278573 17.3923077,21.6214473 C17.4707692,21.4666398 17.4969231,21.4150373 17.6276923,21.286031 C17.7846154,21.1312235 17.9676923,21.0538198 18.3338462,21.0280185 L18.5953846,21.0022173 L18.6215385,20.8474098 C18.7,20.4345898 18.9353846,20.2281798 19.4061538,20.0991736 C19.5630769,20.0475711 19.72,20.0475711 20.06,20.0475711 C20.5307692,20.0475711 20.6615385,20.0733723 21.1061538,20.2797823 C21.2892308,20.3571861 21.4461538,20.3829873 21.4461538,20.3313848 C21.4461538,20.3055836 21.2107692,20.0733723 21.0276923,19.9443661 C20.9230769,19.8669623 20.7661538,19.7895586 20.6615385,19.7379561 C20.5046154,19.6863536 20.4523077,19.6347511 20.4523077,19.6089498 C20.4523077,19.5573473 20.4784615,19.3767386 20.5569231,19.1703286 C20.7138462,18.5768998 20.7661538,18.1898811 20.7661538,17.6222536 C20.7661538,16.6934086 20.6092308,16.0741786 20.06,15.0163274 C19.5369231,14.0358799 19.0138462,13.3134449 18.5692308,13.0554324 C18.4384615,12.9780286 18.3076923,12.9264261 18.3076923,12.9522274 C18.3076923,12.9780286 18.4123077,13.1328361 18.5430769,13.2876436 C19.1184615,14.1132836 19.7461538,15.1711349 20.0076923,15.8161661 C20.2169231,16.3321911 20.3738462,17.0288248 20.4261538,17.6480548 C20.5046154,18.7059061 20.2169231,19.5831486 19.72,19.7895586 C19.6153846,19.8411611 19.5107692,19.8669623 19.2753846,19.8669623 C18.8830769,19.8927636 18.8307692,19.8669623 18.7261538,19.6605523 L18.6738462,19.5315461 L18.6476923,18.3704898 C18.6215385,16.4353961 18.5169231,16.0999798 17.4969231,14.2680911 C17.1830769,13.7004636 17.1046154,13.5456561 16.9738462,13.0296311 C16.6861538,11.9975811 16.4246154,11.3783511 16.0061538,10.8107236 C15.3523077,9.9592824 15.2738462,9.59806491 15.5353846,8.82402741 C15.6923077,8.30800242 15.6923077,8.04998992 15.5092308,7.86938117 C15.4046154,7.74037492 15.3,7.68877242 14.7246154,7.50816368 C13.8353846,7.25015118 13.4169231,6.99213868 13.3123077,6.65672243 C13.2076923,6.34710744 13.2861538,5.80528119 13.4953846,5.5472687 C13.6261538,5.36665995 13.8092308,5.2892562 14.0969231,5.2892562 C14.28,5.2892562 14.3584615,5.31505745 14.4892308,5.36665995 C14.6984615,5.4440637 14.8553846,5.5988712 14.9338462,5.75367869 C15.0123077,5.90848619 15.0123077,6.29550494 14.9338462,6.57931869 C14.7769231,7.04374118 14.7769231,6.99213868 14.8815385,7.06954243 C15.0646154,7.25015118 15.3784615,7.25015118 15.5092308,7.09534368 C15.6138462,6.96633743 15.64,6.83733118 15.6661538,6.45031244 C15.6923077,6.03749244 15.64,5.77947994 15.4569231,5.26345495 C15.2215385,4.54101996 14.9861538,4.33460996 14.28,4.23140496 C13.7569231,4.15400121 13.4692308,4.20560371 13.2076923,4.48941746 C12.7892308,4.90223745 12.58,5.5988712 12.6584615,6.26970369 C12.7107692,6.65672243 12.7107692,6.68252368 12.4753846,6.60511994 C12.2923077,6.55351744 11.8738462,6.50191494 11.6123077,6.50191494 C11.3507692,6.52771619 11.3246154,6.50191494 11.3246154,6.19229994 C11.3246154,5.0312437 10.9584615,4.38621246 10.3046154,4.38621246 C9.86,4.38621246 9.46769231,4.7216287 9.33692308,5.26345495 C9.28461538,5.4956662 9.28461538,6.08909494 9.36307692,6.45031244 C9.46769231,7.14694618 9.75538462,7.50816368 9.96461538,7.22434993 C10.0430769,7.12114493 10.1215385,6.96633743 10.1215385,6.91473493 L9.96461538,6.81152993 C9.88615385,6.78572868 9.80769231,6.70832493 9.78153846,6.65672243 C9.59846154,6.39870994 9.52,5.93428744 9.59846154,5.67627494 C9.67692308,5.36665995 10.1215385,5.1860512 10.4353846,5.31505745 C10.6707692,5.4440637 10.9584615,5.98588994 10.9323077,6.34710744 C10.9061538,6.60511994 10.8538462,6.70832493 10.5923077,6.88893368 C10.4615385,6.99213868 10.2523077,7.14694618 10.1476923,7.25015118 C10.0169231,7.37915743 9.86,7.50816368 9.78153846,7.53396493 C9.46769231,7.76617617 9.28461538,8.04998992 9.28461538,8.30800242 C9.28461538,8.46280992 9.36307692,8.56601492 9.57230769,8.66921992 C9.72923077,8.74662366 9.88615385,8.90143116 10.0430769,9.13364241 C10.2784615,9.44325741 10.54,9.54646241 11.1153846,9.54646241 C11.8476923,9.52066116 12.4753846,9.39165491 13.6784615,8.92723241 C14.3584615,8.69502117 14.5415385,8.61761742 14.5676923,8.56601492 C14.6723077,8.41120742 14.8030769,8.30800242 14.8815385,8.30800242 C14.9861538,8.30800242 15.0646154,8.38540617 15.0646154,8.48861117 C15.0646154,8.66921992 14.8030769,8.82402741 13.8615385,9.13364241 C13.5738462,9.21104616 13.1292308,9.39165491 12.8938462,9.49485991 C12.3969231,9.7528724 12.2661538,9.77867365 11.9261538,9.8560774 C11.6646154,9.9076799 11.0369231,9.9076799 10.6969231,9.8560774 C10.4353846,9.83027615 10.2523077,9.8560774 10.2784615,9.9076799 C10.2784615,9.98508365 10.9323077,10.4753074 11.0630769,10.5527111 C11.2723077,10.6043136 11.6907692,10.6301149 11.9523077,10.5785124 C12.3707692,10.4753074 13.6261538,9.93348115 14.2538462,9.59806491 C14.4630769,9.46905866 14.5938462,9.41745616 14.6723077,9.41745616 C14.8030769,9.41745616 14.8815385,9.49485991 14.8815385,9.59806491 C14.8815385,9.70126991 14.6723077,9.9076799 14.4369231,9.98508365 C14.0184615,10.1656924 13.94,10.2172949 13.5215385,10.4753074 C12.9723077,10.8107236 12.7369231,10.9913324 12.3446154,11.3009474 C11.9523077,11.6621649 11.8476923,11.6879661 11.4030769,11.7137674 C11.0630769,11.7137674 10.9584615,11.6621649 10.7230769,11.4815561 C10.54,11.3267486 10.1215385,10.8107236 9.99076923,10.5785124 C9.86,10.3463011 9.57230769,10.0366862 9.52,10.0366862 C9.46769231,10.0366862 9.44153846,10.0366862 9.36307692,10.3979036 C9.31076923,10.6559161 9.10153846,11.1461399 8.76153846,11.8169724 C8.34307692,12.6168111 8.31692308,12.6942149 8.31692308,13.5456561 C8.31692308,14.2422899 8.34307692,14.1906874 7.97692308,14.6809111 C7.55846154,15.2743399 6.87846154,16.8224148 6.72153846,17.5964523 C6.61692308,18.1898811 6.51230769,19.1703286 6.53846154,19.7379561 C6.56461538,20.1765773 6.53846154,20.3055836 6.43384615,20.3829873 C6.32923077,20.4345898 6.19846154,20.3829873 5.93692308,20.1249748 C5.49230769,19.6863536 5.36153846,19.3509373 5.36153846,18.6801048 C5.36153846,18.2672848 5.41384615,17.9318686 5.49230769,17.6222536 C5.57076923,17.3642411 5.57076923,17.2868373 5.49230769,17.2868373 C5.44,17.3126386 5.28307692,17.6222536 5.20461538,17.9060673 C5.15230769,18.0608748 5.12615385,18.2414836 5.12615385,18.6027011 C5.12615385,19.0413223 5.12615385,19.0929248 5.17846154,19.4025398 C5.28307692,19.7637573 5.44,20.1249748 5.67538462,20.4345898 C6.01538462,20.873211 7.79384615,22.421286 8.97076923,23.3243298 C9.25846154,23.5307398 9.57230769,23.7887523 9.67692308,23.9177585 C10.3046154,24.5627898 10.1738462,25.1820198 9.31076923,25.6464422 C9.18,25.723846 9.07538462,25.8012497 9.07538462,25.8012497 C9.07538462,25.8012497 9.18,26.0592622 9.31076923,26.0592622 C9.80769231,26.8332997 10.0953846,27.3493247 10.2,27.6073372 C10.2523077,27.8653497 10.2523077,28.1233622 10.1738462,28.3813747 L10.1476923,28.3813747 L10.2784615,28.3813747 L10.2784615,28.3813747 Z M10.7753846,7.14694618 C10.6969231,6.99213868 10.8538462,6.83733118 11.1415385,6.83733118 C11.2461538,6.83733118 11.3507692,6.86313243 11.3507692,6.86313243 C11.3769231,6.91473493 11.2723077,6.96633743 11.1938462,6.96633743 C11.1415385,6.96633743 11.1153846,6.99213868 11.0630769,7.06954243 C11.0107692,7.17274743 10.9846154,7.19854868 10.9061538,7.19854868 C10.8276923,7.22434993 10.8015385,7.19854868 10.7753846,7.14694618 L10.7753846,7.14694618 Z M12.5015385,7.04374118 C12.3446154,6.96633743 12.2138462,6.88893368 12.24,6.86313243 C12.24,6.86313243 12.3446154,6.83733118 12.4492308,6.83733118 C12.7107692,6.81152993 12.8153846,6.83733118 12.8153846,6.96633743 C12.8153846,7.01793993 12.7892308,7.04374118 12.7630769,7.06954243 C12.7107692,7.09534368 12.6846154,7.09534368 12.6846154,7.09534368 C12.6846154,7.09534368 12.6061538,7.06954243 12.5015385,7.04374118 L12.5015385,7.04374118 Z M6.48615385,15.0421286 C6.74769231,14.7583149 6.82615385,14.6035074 6.82615385,14.3970974 C6.8,14.2680911 6.74769231,14.2164886 6.64307692,14.2422899 C6.56461538,14.2680911 6.51230769,14.3454949 6.43384615,14.6035074 C6.40769231,14.7325136 6.35538462,14.8099174 6.22461538,14.9389236 C6.06769231,15.1195324 6.04153846,15.1969361 6.09384615,15.2485386 C6.17230769,15.3259424 6.22461538,15.2743399 6.48615385,15.0421286 Z M17.6015385,10.2172949 C17.6538462,10.1656924 17.7846154,9.88187865 17.7846154,9.77867365 C17.7846154,9.67546866 17.7584615,9.64966741 17.7061538,9.57226366 C17.6538462,9.52066116 17.6015385,9.49485991 17.5753846,9.49485991 L17.3138462,9.39165491 C17.1830769,9.31425116 17.0523077,9.23684741 16.9215385,9.10784116 C16.8169231,9.00463616 16.7123077,8.92723241 16.6861538,8.92723241 C16.66,8.92723241 16.66,8.95303366 16.6338462,9.00463616 C16.6076923,9.13364241 16.66,9.34005241 16.7646154,9.57226366 C16.8692308,9.77867365 16.9215385,9.83027615 17.1569231,10.0108849 C17.4184615,10.2430961 17.4969231,10.2688974 17.6015385,10.2172949 Z M10.6446154,6.39870994 C10.6707692,6.29550494 10.6707692,6.24390244 10.5923077,5.96008869 C10.54,5.83108244 10.4876923,5.72787744 10.4353846,5.65047369 C10.3569231,5.57306995 10.3307692,5.57306995 10.2523077,5.5988712 C10.1738462,5.65047369 10.1738462,5.75367869 10.2784615,5.88268494 C10.3830769,5.98588994 10.4353846,6.16649869 10.4876923,6.37290869 C10.5138462,6.50191494 10.5923077,6.52771619 10.6446154,6.39870994 L10.6446154,6.39870994 Z M14.7246154,6.32130619 C14.7769231,6.24390244 14.7246154,5.88268494 14.6461538,5.75367869 C14.5676923,5.62467245 14.3584615,5.4956662 14.1753846,5.46986495 C14.0707692,5.46986495 14.0446154,5.46986495 14.0184615,5.52146745 C13.9923077,5.5988712 13.9923077,5.62467245 14.1492308,5.67627494 C14.3323077,5.72787744 14.4892308,5.96008869 14.5415385,6.24390244 C14.5415385,6.34710744 14.5676923,6.34710744 14.62,6.34710744 C14.6461538,6.34710744 14.6984615,6.34710744 14.7246154,6.32130619 L14.7246154,6.32130619 Z M14.9076923,2.47691998 C15.1169231,2.3350131 15.1430769,2.32727273 15.3261538,2.32211248 C15.5876923,2.31695223 15.64,2.2937311 15.64,2.20600685 C15.64,2.06926023 15.1692308,1.64869986 14.96,1.61257811 C14.7507692,1.57387623 14.6984615,1.68224148 14.6461538,2.0873211 C14.62,2.23954848 14.62,2.3040516 14.5415385,2.38403548 C14.4630769,2.49756098 14.4369231,2.5620641 14.4892308,2.60850635 C14.5415385,2.6859101 14.6723077,2.6343076 14.9076923,2.47691998 L14.9076923,2.47691998 Z"></path>
                            </g>
                        </g>
                    </g>
                    <g id="apple" opacity="0.300000012" transform="translate(164.000000, 0.000000)" fill-rule="nonzero" fill="#929DB3">
                        <path d="M21.6894737,16.9668616 C21.6521531,12.9247563 24.9861244,10.9785575 25.1291866,10.8912281 C23.2631579,8.14658869 20.3397129,7.77231969 19.307177,7.72241715 C16.8191388,7.47290448 14.4679426,9.18830409 13.2114833,9.18830409 C11.9550239,9.18830409 10.0143541,7.75360624 7.95550239,7.79727096 C5.23732057,7.84093567 2.7492823,9.3754386 1.36220096,11.8019493 C-1.45550239,16.6923977 0.634449761,23.9282651 3.37129187,27.8955166 C4.70861244,29.8292398 6.30717703,32.0124756 8.39712919,31.9376218 C10.4248804,31.8565302 11.1837321,30.6276803 13.6220096,30.6276803 C16.0478469,30.6276803 16.7320574,31.9376218 18.8779904,31.8939571 C21.0550239,31.8565302 22.423445,29.9165692 23.7545455,27.9641326 C25.284689,25.7185185 25.9315789,23.5352827 25.9564593,23.4292398 C25.9066986,23.4105263 21.7267943,21.8074074 21.6770335,16.9668616 L21.6894737,16.9668616 Z M17.6837321,5.10253411 C18.784689,3.74269006 19.5497608,1.87134503 19.3444976,0 C17.7397129,0.0623781676 15.7990431,1.06042885 14.6483254,2.4202729 C13.6157895,3.61793372 12.7200957,5.52670565 12.9564593,7.36062378 C14.7478469,7.49785575 16.5641148,6.44990253 17.6837321,5.10253411 Z" id="Shape"></path>
                    </g>
                    <g id="android" opacity="0.300000012" transform="translate(214.000000, 0.000000)" fill-rule="nonzero" fill="#929DB3">
                        <path d="M4.37162791,10.2153846 C4.45166515,7.2434626 6.17777956,4.57376632 8.82790698,3.32307692 L8.82790698,3.32307692 L7.55813953,1.01538462 C7.5018207,0.878856167 7.55352642,0.720985461 7.67906977,0.646153846 C7.74077544,0.610902056 7.81373756,0.60212141 7.88181989,0.621753828 C7.94990221,0.641386246 8.00749478,0.687814026 8.04186047,0.750769231 L9.31162791,3.07692308 C10.4127744,2.6551006 11.5816688,2.44639112 12.7581395,2.46153846 C13.9397968,2.45144043 15.1115408,2.68158052 16.2046512,3.13846154 L17.5348837,0.756923077 C17.5692494,0.693967872 17.626842,0.647540092 17.6949243,0.627907674 C17.7630066,0.608275256 17.8359687,0.617055903 17.8976744,0.652307692 C18.0232178,0.727139307 18.0749235,0.885010013 18.0186047,1.02153846 L16.6883721,3.36615385 C19.3134959,4.60683232 21.0229558,7.2522898 21.1023256,10.1969231 L4.37162791,10.1969231 L4.37162791,10.2153846 Z M4.37162791,10.9538462 L4.37162791,23.2615385 C4.38491266,24.3943028 5.29626189,25.3025636 6.40930233,25.2923077 L19.1069767,25.2923077 C20.2048728,25.2822857 21.0924784,24.3789238 21.1023256,23.2615385 L21.1023256,10.9538462 L4.37162791,10.9538462 Z M17.3716279,6.52307692 C17.3590659,6.12065054 17.0414538,5.79740039 16.6460465,5.78461538 C16.4526154,5.78124943 16.2661332,5.85797006 16.1293368,5.99719481 C15.9925403,6.13641955 15.9171579,6.32621217 15.9204651,6.52307692 C15.9136359,6.72097806 15.9878856,6.91287409 16.1254669,7.0528976 C16.2630481,7.19292112 16.4515971,7.26848886 16.6460465,7.26153846 C17.044062,7.25495048 17.3651548,6.92815776 17.3716279,6.52307692 L17.3716279,6.52307692 Z M9.63209302,6.52307692 C9.63209302,6.11523588 9.30723917,5.78461538 8.90651163,5.78461538 C8.50578409,5.78461538 8.18093023,6.11523588 8.18093023,6.52307692 C8.18093023,6.93091797 8.50578409,7.26153846 8.90651163,7.26153846 C9.30723917,7.26153846 9.63209302,6.93091797 9.63209302,6.52307692 Z" id="Shape"></path>
                        <path d="M23.5813953,10.6461538 C24.6138631,10.6528684 25.4492165,11.5030506 25.455814,12.5538462 L25.455814,20.4307692 C25.455814,21.4843586 24.6166082,22.3384615 23.5813953,22.3384615 C22.5461825,22.3384615 21.7069767,21.4843586 21.7069767,20.4307692 L21.7069767,12.5538462 C21.7135742,11.5030506 22.5489276,10.6528684 23.5813953,10.6461538 L23.5813953,10.6461538 Z" id="Shape"></path>
                        <path d="M9.49302326,19.6923077 C10.525491,19.6990222 11.3608444,20.5492045 11.3674419,21.6 L11.3674419,29.4769231 C11.3677151,29.9774046 11.168325,30.4565535 10.8149508,30.8045991 C10.4615765,31.1526448 9.9845023,31.3397597 9.49302326,31.3230769 C8.99405282,31.3464229 8.50700545,31.1634526 8.14260349,30.8157614 C7.77820153,30.4680702 7.56740661,29.9851998 7.55813953,29.4769231 L7.55813953,21.6 C7.56448878,21.0853396 7.77232346,20.594525 8.13555452,20.2363986 C8.49878557,19.8782721 8.98739272,19.6824321 9.49302326,19.6923077 L9.49302326,19.6923077 Z" id="Shape"></path>
                        <path d="M1.89255814,10.6461538 C2.93210271,10.6427411 3.77845791,11.4958643 3.78511628,12.5538462 L3.78511628,20.4307692 C3.78511626,21.4945546 2.93778912,22.356923 1.89255814,22.356923 C0.847327156,22.356923 2.20265957e-08,21.4945546 0,20.4307692 L0,12.5538462 C0.00665837378,11.4958643 0.853013568,10.6427411 1.89255814,10.6461538 Z" id="Shape"></path>
                        <path d="M16.144186,19.6923077 C16.6498166,19.6824321 17.1384237,19.8782721 17.5016548,20.2363986 C17.8648858,20.594525 18.0727205,21.0853396 18.0790698,21.6 L18.0790698,29.4769231 C18.0790698,30.5475058 17.2263284,31.4153846 16.1744186,31.4153846 C15.1225088,31.4153846 14.2697674,30.5475058 14.2697674,29.4769231 L14.2697674,21.6 C14.2763649,20.5492045 15.1117183,19.6990222 16.144186,19.6923077 L16.144186,19.6923077 Z" id="Shape"></path>
                    </g>
                </g>
            </g>
        </g>
    </g>
</svg>