<?xml version="1.0" encoding="UTF-8"?>
<svg width="153px" height="48px" viewBox="0 0 153 48" version="1.1" xmlns="http://www.w3.org/2000/svg" xmlns:xlink="http://www.w3.org/1999/xlink">
    <!-- Generator: Sketch 49.3 (51167) - http://www.bohemiancoding.com/sketch -->
    <title>google-play</title>
    <desc>Created with Sketch.</desc>
    <defs>
        <rect id="path-1" x="0.0391076115" y="0.0389380531" width="148.608924" height="43.6106195" rx="4"></rect>
        <linearGradient x1="91.5%" y1="38.1837952%" x2="-38.3%" y2="55.719211%" id="linearGradient-2">
            <stop stop-color="#00A0FF" offset="0%"></stop>
            <stop stop-color="#00A1FF" offset="1%"></stop>
            <stop stop-color="#00BEFF" offset="26%"></stop>
            <stop stop-color="#00D2FF" offset="51%"></stop>
            <stop stop-color="#00DFFF" offset="76%"></stop>
            <stop stop-color="#00E3FF" offset="100%"></stop>
        </linearGradient>
        <linearGradient x1="108%" y1="50%" x2="-130%" y2="50%" id="linearGradient-3">
            <stop stop-color="#FFE000" offset="0%"></stop>
            <stop stop-color="#FFBD00" offset="41%"></stop>
            <stop stop-color="#FFA500" offset="78%"></stop>
            <stop stop-color="#FF9C00" offset="100%"></stop>
        </linearGradient>
        <linearGradient x1="72.008118%" y1="17.9%" x2="-10.9174979%" y2="195%" id="linearGradient-4">
            <stop stop-color="#FF3A44" offset="0%"></stop>
            <stop stop-color="#C31162" offset="100%"></stop>
        </linearGradient>
        <linearGradient x1="8.49764405%" y1="-54.2%" x2="45.2344678%" y2="24.9%" id="linearGradient-5">
            <stop stop-color="#32A071" offset="0%"></stop>
            <stop stop-color="#2DA771" offset="7%"></stop>
            <stop stop-color="#15CF74" offset="48%"></stop>
            <stop stop-color="#06E775" offset="80%"></stop>
            <stop stop-color="#00F076" offset="100%"></stop>
        </linearGradient>
    </defs>
    <g id="⬇️-download" stroke="none" stroke-width="1" fill="none" fill-rule="evenodd">
        <g id="download" transform="translate(-417.000000, -1249.000000)" fill-rule="nonzero">
            <g id="mobile-section" transform="translate(160.000000, 960.000000)">
                <g id="mobile">
                    <g transform="translate(96.000000, 80.000000)" id="google-play">
                        <g transform="translate(163.000000, 211.000000)">
                            <g id="Rectangle-path" stroke-linecap="square">
                                <use fill="#000000" fill-rule="evenodd" xlink:href="#path-1"></use>
                                <rect stroke="#384A66" stroke-width="1.5" x="-0.710892388" y="-0.711061947" width="150.108924" height="45.1106195" rx="4"></rect>
                            </g>
                            <path d="M52.0131234,11.2530973 C52.4041995,12.0707965 52.0131234,12.8495575 51.2309711,13.4725664 C50.839895,14.0955752 49.6666667,14.4460177 48.8845144,14.4070796 C46.9291339,14.4070796 45.3648294,12.8884956 45.3648294,10.980531 C45.3648294,9.11150442 46.9291339,7.5539823 48.8845144,7.5539823 C49.2755906,7.5539823 50.0577428,7.67079646 50.4488189,7.82654867 C50.839895,8.02123894 51.2309711,8.25486726 51.2309711,8.56637168 L50.839895,9.15044248 C50.4488189,8.64424779 49.6666667,8.33274336 48.8845144,8.37168142 C47.7112861,8.37168142 46.5380577,9.18938053 46.5380577,10.3185841 C46.1469816,11.4477876 46.5380577,12.6548673 47.7112861,13.2389381 C48.4934383,13.8619469 50.0577428,13.7061947 50.839895,12.8884956 C51.2309711,12.5380531 51.2309711,12.0318584 51.2309711,11.5646018 L48.8845144,11.5646018 L48.8845144,10.7858407 L52.0131234,10.7858407 L52.0131234,11.2530973 Z" id="Shape" stroke="#FFFFFF" stroke-width="0.55" fill="#FFFFFF"></path>
                            <polygon id="Shape" stroke="#FFFFFF" stroke-width="0.55" fill="#FFFFFF" points="57.0971129 8.52743363 54.3595801 8.52743363 54.3595801 10.5911504 57.0971129 10.5911504 57.0971129 11.3699115 54.3595801 11.3699115 54.3595801 13.4725664 57.0971129 13.4725664 57.0971129 14.2513274 53.5774278 14.2513274 53.5774278 7.70973451 57.0971129 7.70973451"></polygon>
                            <polygon id="Shape" stroke="#FFFFFF" stroke-width="0.55" fill="#FFFFFF" points="61.007874 14.2902655 59.8346457 14.2902655 59.8346457 8.52743363 58.2703412 8.52743363 58.2703412 7.70973451 62.5721785 7.70973451 62.5721785 8.52743363 61.007874 8.52743363"></polygon>
                            <polygon id="Shape" stroke="#FFFFFF" stroke-width="0.55" fill="#FFFFFF" points="66.0918635 14.2902655 66.0918635 7.70973451 66.8740157 7.70973451 66.8740157 14.2902655"></polygon>
                            <polygon id="Shape" stroke="#FFFFFF" stroke-width="0.55" fill="#FFFFFF" points="70.3937008 14.2902655 69.6115486 14.2902655 69.6115486 8.52743363 68.0472441 8.52743363 68.0472441 7.70973451 72.3490814 7.70973451 72.3490814 8.52743363 70.3937008 8.52743363"></polygon>
                            <path d="M80.9527559,13.4336283 C79.7795276,14.7575221 77.4330709,14.7575221 76.2598425,13.4336283 C74.6955381,12.0707965 74.6955381,9.92920354 76.2598425,8.56637168 C76.6509186,7.90442478 77.824147,7.5539823 78.6062992,7.5539823 C79.3884514,7.5539823 80.1706037,7.90442478 80.9527559,8.56637168 C82.1259843,9.92920354 82.1259843,12.0707965 80.9527559,13.4336283 Z M76.6509186,12.8884956 C77.824147,13.8619469 79.3884514,13.8619469 80.1706037,12.8884956 C81.343832,11.7982301 81.343832,10.1628319 80.1706037,9.11150442 C79.3884514,8.1380531 77.824147,8.1380531 76.6509186,9.11150442 C75.8687664,10.1628319 75.8687664,11.7982301 76.6509186,12.8884956 Z" id="Shape" stroke="#FFFFFF" stroke-width="0.55" fill="#FFFFFF"></path>
                            <polygon id="Shape" stroke="#FFFFFF" stroke-width="0.55" fill="#FFFFFF" points="83.2992126 14.2902655 83.2992126 7.70973451 84.0813648 7.70973451 87.2099738 12.8106195 87.6010499 12.8106195 87.2099738 11.5646018 87.2099738 7.70973451 88.3832021 7.70973451 88.3832021 14.2902655 87.2099738 14.2902655 84.0813648 8.91681416 84.0813648 8.91681416 84.0813648 10.2017699 84.0813648 14.2902655"></polygon>
                            <path d="M75.0866142,23.8690265 C72.3490814,23.8690265 70.3937008,25.9327434 70.3937008,28.4247788 C70.3937008,31.1504425 72.3490814,33.0973451 75.0866142,33.0973451 C77.4330709,33.0973451 79.7795276,31.1504425 79.7795276,28.4247788 C79.7795276,27.2955752 79.3884514,26.0884956 78.2152231,25.1929204 C77.4330709,24.3362832 76.2598425,23.8300885 75.0866142,23.8690265 Z M75.0866142,31.1504425 C73.9133858,31.539823 72.7401575,30.7610619 72.3490814,29.5929204 C71.5669291,28.8141593 71.9580052,27.4513274 72.7401575,26.5946903 C73.5223097,25.7380531 74.6955381,25.4654867 75.8687664,25.8938053 C77.0419948,26.3221239 77.4330709,27.3345133 77.4330709,28.4247788 C77.824147,29.2035398 77.4330709,29.9823009 77.0419948,30.3716814 C76.2598425,31.1504425 75.8687664,31.1504425 75.0866142,31.1504425 Z M64.9186352,23.8690265 C62.1811024,23.8690265 60.2257218,25.9327434 60.2257218,28.4247788 C60.2257218,31.1504425 62.1811024,33.0973451 64.9186352,33.0973451 C67.2650919,33.0973451 69.6115486,31.1504425 69.6115486,28.4247788 C69.6115486,27.2955752 68.8293963,26.0884956 68.0472441,25.1929204 C67.2650919,24.3362832 66.0918635,23.8300885 64.9186352,23.8690265 Z M64.9186352,31.1504425 C63.7454068,31.539823 62.5721785,30.7610619 61.7900262,29.5929204 C61.3989501,28.8141593 61.7900262,27.4513274 62.5721785,26.5946903 C63.3543307,25.7380531 64.5275591,25.4654867 65.7007874,25.8938053 C66.4829396,26.3221239 67.2650919,27.3345133 67.2650919,28.4247788 C67.2650919,29.2035398 67.2650919,29.9823009 66.4829396,30.3716814 C66.0918635,31.1504425 65.3097113,31.1504425 64.9186352,31.1504425 Z M52.4041995,25.2707965 L52.4041995,27.2566372 L57.0971129,27.2566372 C57.0971129,28.0353982 56.7060367,29.2035398 56.3149606,29.5929204 C55.1417323,30.7610619 53.9685039,31.1504425 52.4041995,31.1504425 C49.6666667,31.1504425 47.32021,28.8141593 47.32021,25.9327434 C47.32021,23.0513274 49.6666667,20.6761062 52.4041995,20.6761062 C53.9685039,20.6761062 55.1417323,21.1823009 56.3149606,22.0778761 L57.488189,20.7150442 C56.3149606,19.3911504 54.3595801,18.6902655 52.4041995,18.6902655 C48.4934383,18.6902655 45.3648294,21.9221239 45.3648294,25.9327434 C45.3648294,29.9823009 48.4934383,33.0973451 52.4041995,33.0973451 C54.7506562,33.0973451 56.3149606,32.3185841 57.488189,31.1504425 C59.0524934,29.9823009 59.4435696,27.9964602 59.4435696,26.5168142 C59.4435696,26.0884956 59.4435696,25.699115 59.0524934,25.2707965 L52.4041995,25.2707965 Z M102.461942,26.8283186 C102.070866,25.7769912 100.897638,23.8690265 98.5511811,23.8690265 C95.8136483,23.8690265 93.8582677,25.7380531 93.8582677,28.4247788 C93.8582677,29.5929204 94.2493438,31.1504425 95.4225722,31.9292035 C96.2047244,32.7079646 97.3779528,33.0973451 98.5511811,33.0973451 C100.115486,33.0973451 101.67979,32.3185841 102.461942,31.1504425 L100.897638,29.9823009 C100.506562,30.7610619 99.7244094,31.539823 98.5511811,31.539823 C97.7690289,31.539823 96.5958005,30.7610619 96.2047244,29.9823009 L102.461942,27.3734513 L102.461942,26.8283186 Z M95.8136483,28.4247788 C95.8136483,27.6849558 96.2047244,27.0230088 96.5958005,26.5168142 C96.9868766,25.9716814 97.7690289,25.699115 98.5511811,25.660177 C99.3333333,25.6212389 99.7244094,26.0106195 100.115486,26.6336283 L95.8136483,28.4247788 Z M90.7296588,32.7079646 L93.0761155,32.7079646 L93.0761155,19.2353982 L90.7296588,19.2353982 L90.7296588,32.7079646 Z M87.6010499,24.920354 C86.8188976,24.219469 86.0367454,23.8300885 84.8635171,23.8690265 C82.5170604,23.8690265 80.5616798,25.8938053 80.5616798,28.4247788 C80.5616798,31.1504425 82.5170604,33.0973451 84.8635171,33.0973451 C86.0367454,33.0973451 86.8188976,32.7079646 87.6010499,31.9292035 L87.6010499,32.7079646 C87.6010499,34.6548673 86.4278215,35.4336283 84.8635171,35.4336283 C84.0813648,35.4336283 82.9081365,34.6548673 82.5170604,33.8761062 L80.9527559,34.6548673 C81.7349081,36.2123894 83.2992126,37.380531 84.8635171,37.380531 C87.6010499,37.380531 89.5564304,35.8230088 89.5564304,32.3185841 L89.5564304,24.1415929 L87.6010499,24.1415929 L87.6010499,24.920354 Z M85.2545932,31.1504425 C83.6902887,31.1504425 82.5170604,29.9823009 82.5170604,28.4247788 C82.5170604,26.9061947 83.6902887,25.699115 85.2545932,25.699115 C86.4278215,25.699115 87.6010499,26.9061947 87.6010499,28.4247788 C87.6010499,30.3716814 86.4278215,31.1504425 85.2545932,31.1504425 Z M111.847769,19.2353982 L107.154856,19.2353982 L107.154856,32.7079646 L109.110236,32.7079646 L109.110236,27.7238938 L111.847769,27.7238938 C114.194226,27.7238938 116.540682,26.0495575 116.540682,23.440708 C116.540682,20.8318584 114.194226,19.2353982 111.847769,19.2353982 Z M111.847769,25.8159292 L109.110236,25.8159292 L109.110236,21.1433628 L111.847769,21.1433628 C113.412073,21.1433628 114.194226,22.1946903 114.194226,23.479646 C114.194226,24.7646018 113.412073,25.8159292 111.847769,25.8159292 Z M124.753281,23.8690265 C123.188976,23.8690265 121.624672,24.5309735 121.233596,25.9716814 L122.7979,26.7115044 C123.188976,26.0495575 123.971129,25.660177 124.753281,25.699115 C125.926509,25.699115 126.708661,26.3610619 127.099738,27.4902655 L127.099738,27.6070796 C126.317585,27.2566372 125.535433,27.0619469 124.753281,27.100885 C122.7979,27.100885 120.84252,28.0353982 120.84252,29.9823009 C120.84252,31.9292035 122.406824,33.0973451 124.362205,33.0973451 C125.144357,33.0973451 126.317585,32.7079646 126.708661,31.9292035 L127.099738,31.9292035 L127.099738,32.7079646 L129.055118,32.7079646 L129.055118,27.6070796 C129.055118,25.1929204 127.099738,23.8300885 124.753281,23.8300885 L124.753281,23.8690265 Z M124.362205,31.539823 C123.971129,31.539823 122.7979,31.1504425 122.7979,30.3716814 C122.7979,29.2035398 123.971129,28.8141593 125.144357,28.8141593 C125.535433,28.8141593 126.317585,28.8141593 127.099738,29.2035398 C126.708661,30.3716814 125.535433,31.1504425 124.362205,31.1504425 L124.362205,31.539823 Z M136.094488,24.1415929 L133.748031,29.9823009 L131.401575,24.1415929 L129.055118,24.1415929 L132.574803,32.3185841 L130.619423,36.9911504 L132.574803,36.9911504 L138.440945,24.1415929 L136.094488,24.1415929 Z M117.713911,33.0973451 L119.669291,33.0973451 L119.669291,19.2353982 L117.713911,19.2353982 L117.713911,33.0973451 Z" id="Shape" fill="#FFFFFF"></path>
                            <path d="M11.4976378,8.33274336 C11.1456693,8.76106195 10.9892388,9.30619469 11.0283465,9.89026549 L11.0283465,34.2654867 C10.9892388,34.6548673 11.1456693,35.0442478 11.4976378,35.8230088 L11.6149606,35.8230088 L25.2244094,22.1557522 L25.2244094,21.8442478 L11.6149606,8.2159292 L11.4976378,8.33274336 Z" id="Shape" fill="url(#linearGradient-2)"></path>
                            <path d="M29.7217848,26.6336283 L25.2244094,22.1168142 L25.2244094,21.7663717 L29.7217848,17.2884956 L29.7217848,17.3274336 L35.1968504,20.3646018 C36.7611549,21.260177 36.7611549,22.6619469 35.1968504,23.5185841 L29.7217848,26.5946903 L29.7217848,26.6336283 Z" id="Shape" fill="url(#linearGradient-3)"></path>
                            <path d="M29.7217848,26.5557522 L25.2244094,21.9610619 L11.5367454,35.4336283 C12.0451444,36.2123894 12.8664042,36.2123894 13.8049869,35.8230088 L29.7217848,26.5557522" id="Shape" fill="url(#linearGradient-4)"></path>
                            <path d="M29.7217848,17.3274336 L13.8049869,8.2159292 C12.8664042,7.70973451 12.0451444,7.74867257 11.5367454,8.29380531 L25.2244094,21.9221239 L29.7217848,17.3274336 Z" id="Shape" fill="url(#linearGradient-5)"></path>
                            <path d="M29.7217848,26.4778761 L13.8049869,35.4336283 C12.9055118,35.8230088 12.1233596,35.8230088 11.6149606,35.4336283 L11.5367454,35.4336283 L11.6149606,35.8230088 C12.1233596,36.2123894 12.9055118,36.2123894 13.8049869,35.8230088 L29.7217848,26.5557522 L29.7217848,26.4778761 Z" id="Shape" fill="#000000" opacity="0.2"></path>
                            <path d="M11.4976378,35.4336283 C11.1456693,35.0442478 10.9892388,34.2654867 11.0283465,33.8761062 C10.9892388,34.6548673 11.1456693,35.0442478 11.4976378,35.4336283 L11.6149606,35.4336283 L11.4976378,35.4336283 Z" id="Shape" fill="#000000" opacity="0.12"></path>
                            <path d="M35.1968504,23.3628319 L29.7217848,26.4778761 L29.7217848,26.5946903 L35.1968504,23.5185841 C35.9790026,23.0902655 36.3700787,22.5061947 36.3700787,21.9610619 C36.3700787,22.5840708 35.9790026,23.0902655 35.1968504,23.3628319 Z" id="Shape" fill="#000000" opacity="0.12"></path>
                            <path d="M13.8049869,8.41061947 L35.1968504,20.520354 C35.9790026,20.7929204 36.3700787,21.299115 36.3700787,21.9610619 C36.3700787,21.3769912 35.9790026,20.7929204 35.1968504,20.3646018 L13.8049869,8.2159292 C12.27979,7.35929204 11.0283465,8.09911504 11.0283465,9.85132743 L11.0283465,10.0070796 C11.0283465,8.25486726 12.27979,7.5539823 13.8049869,8.41061947 Z" id="Shape" fill="#FFFFFF" opacity="0.25"></path>
                        </g>
                    </g>
                </g>
            </g>
        </g>
    </g>
</svg>