<?xml version="1.0" encoding="UTF-8"?>
<svg width="150px" height="48px" viewBox="0 0 150 48" version="1.1" xmlns="http://www.w3.org/2000/svg" xmlns:xlink="http://www.w3.org/1999/xlink">
    <!-- Generator: Sketch 49.3 (51167) - http://www.bohemiancoding.com/sketch -->
    <title>itunes-store</title>
    <desc>Created with Sketch.</desc>
    <defs>
        <path d="M142.61194,45.01 L5.48507463,45.01 C2.86320896,45.01 0.976343284,43.14 0.976343284,40.83 L0.976343284,5.17 C0.976343284,2.871 2.86320896,0.979 5.1888806,0.979 L142.315746,0.979 C144.509776,0.979 146.703806,2.871 146.703806,5.192 L146.703806,40.852 C147,43.14 144.80597,45.01 142.61194,45.01 Z" id="path-1"></path>
    </defs>
    <g id="⬇️-download" stroke="none" stroke-width="1" fill="none" fill-rule="evenodd">
        <g id="download" transform="translate(-255.000000, -1249.000000)" fill-rule="nonzero">
            <g id="mobile-section" transform="translate(160.000000, 960.000000)">
                <g id="mobile">
                    <g transform="translate(96.000000, 80.000000)" id="itunes-store">
                        <g transform="translate(0.000000, 210.000000)">
                            <g id="Shape" stroke-linecap="square">
                                <use fill="#000000" fill-rule="evenodd" xlink:href="#path-1"></use>
                                <path stroke="#384A66" stroke-width="1.5" d="M142.61194,45.76 L5.48507463,45.76 C2.50300294,45.76 0.226343284,43.6063635 0.226343284,40.83 L0.226343284,5.17 C0.226343284,2.45122933 2.45456492,0.229 5.1888806,0.229 L142.315746,0.229 C144.988995,0.229 147.453806,2.5151537 147.453806,5.192 L147.447599,40.7557119 C147.792584,43.4206019 145.353099,45.76 142.61194,45.76 Z"></path>
                            </g>
                            <g id="Shape" transform="translate(13.164179, 7.600000)" fill="#FFFFFF">
                                <path d="M19.8559701,15.18 C19.8559701,11.66 22.8179104,9.889 22.9276119,9.812 C21.2820896,7.392 18.6492537,7.062 17.7716418,7.029 C15.5776119,6.798 13.4932836,8.327 12.3962687,8.327 C11.2992537,8.327 9.6208209,7.051 7.79977612,7.095 C5.45216418,7.128 3.25813433,8.492 2.05141791,10.604 C-0.43880597,14.96 1.41514925,21.23 3.79567164,24.794 C4.99141791,26.554 6.38462687,28.424 8.20567164,28.314 C9.98283582,28.314 10.6520149,27.214 12.8350746,27.214 C14.919403,27.214 15.5776119,28.314 17.4425373,28.314 C19.3074627,28.314 20.5141791,26.554 21.7208955,24.904 C23.0373134,22.924 23.5858209,20.944 23.5858209,20.834 C23.5858209,20.834 19.9656716,19.404 19.8559701,15.224 L19.8559701,15.18 Z"></path>
                                <path d="M16.3455224,4.741 C17.3328358,3.531 17.9910448,1.903 17.7716418,0.242 C16.4552239,0.3003 14.7,1.199 13.7126866,2.376 C12.8350746,3.41 12.0671642,5.115 12.1768657,6.71 C13.8223881,6.82 15.358209,5.918 16.3455224,4.741 Z"></path>
                            </g>
                            <g id="Shape" transform="translate(46.074627, 20.800000)" fill="#FFFFFF">
                                <path d="M12.7253731,14.85 L10.2790299,14.85 L8.91873134,10.56 L4.17962687,10.56 L2.8741791,14.85 L0.449776119,14.85 L5.145,0.22 L8.05208955,0.2156 L12.7253731,14.8456 L12.7253731,14.85 Z M8.51283582,8.756 L7.27320896,4.928 C7.14156716,4.532 6.90022388,3.619 6.53820896,2.167 L6.49432836,2.167 C6.35171642,2.794 6.12134328,3.718 5.80320896,4.928 L4.58552239,8.756 L8.51283582,8.756 Z"></path>
                                <path d="M24.9022388,9.449 C24.9022388,11.22 24.3537313,12.65 23.3664179,13.75 C22.488806,14.63 21.5014925,15.07 20.1850746,15.07 C18.7589552,15.07 17.7716418,14.63 17.2231343,13.64 L17.1134328,13.64 L17.1134328,19.14 L14.8097015,19.14 L14.8097015,7.81 C14.8097015,6.644 14.8097015,5.489 14.7,4.301 L16.7843284,4.301 L16.8940299,5.973 L17.0037313,5.973 C17.7716418,4.708 18.8686567,4.081 20.5141791,4.081 C21.7208955,4.081 22.8179104,4.576 23.5858209,5.555 C24.4634328,6.545 24.9022388,7.843 24.9022388,9.449 Z M22.488806,9.537 C22.488806,8.503 22.269403,7.656 21.830597,6.996 C21.2820896,6.292 20.6238806,5.951 19.7462687,5.951 C19.1977612,5.951 18.6492537,6.138 18.2104478,6.523 C17.6619403,6.908 17.4425373,7.414 17.2231343,8.03 C17.2231343,8.327 17.1134328,8.558 17.1134328,8.745 L17.1134328,10.505 C17.1134328,11.33 17.3328358,11.88 17.8813433,12.43 C18.3201493,12.98 18.9783582,13.2 19.6365672,13.2 C20.5141791,13.2 21.2820896,12.87 21.7208955,12.21 C22.269403,11.55 22.488806,10.648 22.488806,9.537 Z"></path>
                                <path d="M36.969403,9.449 C36.969403,11.22 36.530597,12.65 35.5432836,13.75 C34.6656716,14.63 33.5686567,15.07 32.2522388,15.07 C30.9358209,15.07 29.9485075,14.63 29.2902985,13.64 L29.2902985,19.14 L26.8768657,19.14 L26.8768657,7.81 L26.8768657,4.301 L28.8514925,4.301 L29.0708955,5.973 C29.838806,4.708 31.0455224,4.081 32.5813433,4.081 C33.8977612,4.081 34.8850746,4.576 35.7626866,5.555 C36.530597,6.545 36.969403,7.843 36.969403,9.449 Z M34.5559701,9.537 C34.5559701,8.503 34.3365672,7.656 33.8977612,6.996 C33.3492537,6.292 32.6910448,5.951 31.8134328,5.951 C31.2649254,5.951 30.7164179,6.138 30.2776119,6.523 C29.838806,6.908 29.5097015,7.414 29.4,8.03 C29.2902985,8.327 29.2902985,8.558 29.2902985,8.745 L29.2902985,10.505 C29.2902985,11.33 29.5097015,11.88 29.9485075,12.43 C30.3873134,12.98 31.0455224,13.2 31.8134328,13.2 C32.6910448,13.2 33.3492537,12.87 33.8977612,12.21 C34.3365672,11.55 34.5559701,10.648 34.5559701,9.537 Z"></path>
                                <path d="M50.4626866,10.747 C50.4626866,11.99 50.0238806,12.98 49.2559701,13.75 C48.2686567,14.63 46.9522388,15.07 45.1970149,15.07 C43.661194,15.07 42.4544776,14.74 41.4671642,14.19 L42.0156716,12.21 C43.0029851,12.87 44.1,13.09 45.4164179,13.09 C46.2940299,13.09 46.9522388,12.98 47.3910448,12.54 C47.9395522,12.1 48.1589552,11.66 48.1589552,10.945 C48.1589552,10.351 47.9395522,9.845 47.6104478,9.438 C47.1716418,9.031 46.5134328,8.657 45.5261194,8.305 C43.0029851,7.348 41.6865672,5.951 41.6865672,4.114 C41.6865672,2.904 42.1253731,1.925 43.0029851,1.155 C43.9902985,0.385 45.0873134,-2e-15 46.6231343,-2e-15 C47.9395522,0.0011 49.0365672,0.2332 49.9141791,0.6963 L49.3656716,2.6103 C48.4880597,2.1593 47.6104478,1.9393 46.5134328,1.9393 C45.7455224,1.9393 45.0873134,2.1373 44.6485075,2.5443 C44.2097015,2.9073 44.1,3.3473 44.1,3.8753 C44.1,4.4473 44.319403,4.9313 44.758209,5.3053 C45.0873134,5.6573 45.8552239,6.0313 46.8425373,6.4383 C48.0492537,6.9443 49.0365672,7.5383 49.5850746,8.2093 C50.2432836,8.8913 50.4626866,9.7383 50.4626866,10.7503 L50.4626866,10.747 Z"></path>
                                <path d="M58.2514925,6.061 L55.6186567,6.061 L55.6186567,11.22 C55.6186567,12.54 56.1671642,13.09 57.0447761,13.09 C57.4835821,13.09 57.8126866,13.09 58.0320896,12.98 L58.141791,14.85 C57.7029851,14.96 57.0447761,15.07 56.2768657,15.07 C55.3992537,15.07 54.6313433,14.74 54.1925373,14.19 C53.6440299,13.64 53.3149254,12.76 53.3149254,11.33 L53.3149254,6.061 L51.7791045,6.061 L51.7791045,4.301 L53.3149254,4.301 L53.3149254,2.365 L55.6186567,1.672 L55.6186567,4.301 L58.2514925,4.301 L58.2514925,6.061 Z"></path>
                                <path d="M69.8798507,9.493 C69.8798507,11.11 69.4410448,12.43 68.4537313,13.53 C67.4664179,14.52 66.2597015,15.07 64.6141791,15.07 C63.0783582,15.07 61.8716418,14.63 60.8843284,13.53 C60.0067164,12.54 59.5679104,11.22 59.5679104,9.669 C59.5679104,8.03 60.0067164,6.688 60.9940299,5.643 C61.8716418,4.609 63.1880597,4.081 64.8335821,4.081 C66.369403,4.081 67.5761194,4.598 68.5634328,5.621 C69.4410448,6.622 69.8798507,7.909 69.8798507,9.493 Z M67.4664179,9.57 C67.4664179,8.591 67.2470149,7.755 66.808209,7.062 C66.369403,6.215 65.6014925,5.797 64.7238806,5.797 C63.7365672,5.797 63.0783582,6.215 62.5298507,7.062 C62.2007463,7.755 61.9813433,8.602 61.9813433,9.614 C61.9813433,10.582 62.2007463,11.44 62.5298507,12.1 C63.0783582,12.98 63.7365672,13.42 64.7238806,13.42 C65.6014925,13.42 66.2597015,12.98 66.808209,12.1 C67.2470149,11.33 67.4664179,10.538 67.4664179,9.57 Z"></path>
                                <path d="M77.4492537,6.358 C77.2298507,6.314 77.0104478,6.292 76.6813433,6.292 C75.9134328,6.292 75.2552239,6.611 74.8164179,7.227 C74.4873134,7.777 74.2679104,8.481 74.2679104,9.317 L74.2679104,14.85 L71.8544776,14.85 L71.9641791,7.623 C71.9641791,6.402 71.8544776,5.302 71.8544776,4.301 L73.8291045,4.301 L73.938806,6.314 L74.0485075,6.314 C74.2679104,5.621 74.7067164,5.071 75.1455224,4.642 C75.6940299,4.268 76.2425373,4.081 76.9007463,4.081 C77.1201493,4.081 77.3395522,4.092 77.4492537,4.125 L77.4492537,6.358 Z"></path>
                                <path d="M87.980597,9.075 C87.980597,9.493 87.8708955,9.856 87.8708955,10.142 L80.85,10.142 C80.85,11.22 81.1791045,11.99 81.8373134,12.54 C82.3858209,12.98 83.1537313,13.31 84.1410448,13.31 C85.1283582,13.31 86.1156716,13.09 86.9932836,12.76 L87.3223881,14.41 C86.3350746,14.85 85.1283582,15.07 83.8119403,15.07 C82.1664179,15.07 80.9597015,14.52 79.9723881,13.64 C79.0947761,12.65 78.5462687,11.33 78.5462687,9.724 C78.5462687,8.14 78.9850746,6.809 79.8626866,5.753 C80.7402985,4.631 82.0567164,4.059 83.5925373,4.059 C85.1283582,4.059 86.2253731,4.631 86.9932836,5.753 C87.6514925,6.655 87.980597,7.766 87.980597,9.075 Z M85.6768657,8.47 C85.6768657,7.777 85.5671642,7.172 85.2380597,6.666 C84.7992537,6.017 84.2507463,5.687 83.3731343,5.687 C82.6052239,5.687 81.9470149,6.006 81.508209,6.644 C81.1791045,7.15 80.85,7.755 80.85,8.47 L85.6768657,8.47 Z"></path>
                            </g>
                            <g id="Shape" transform="translate(47.171642, 7.600000)" fill="#FFFFFF">
                                <path d="M6.6369403,4.411 C6.6369403,5.709 6.25298507,6.677 5.47410448,7.337 C4.76104478,7.942 3.7408209,8.239 2.42440299,8.239 C1.76619403,8.239 1.20671642,8.206 0.745970149,8.151 L0.74158209,1.078 C1.34932836,0.9812 2.00314925,0.9306 2.71620896,0.9306 C3.97777612,0.9306 4.92120896,1.21 5.55747761,1.749 C6.27053731,2.376 6.63255224,3.256 6.63255224,4.411 L6.6369403,4.411 Z M5.41925373,4.444 C5.41925373,3.608 5.19985075,2.959 4.76104478,2.508 C4.32223881,2.068 3.66402985,1.837 2.81932836,1.837 C2.45731343,1.837 2.15014925,1.859 1.88686567,1.914 L1.88686567,7.293 C2.02947761,7.315 2.29276119,7.326 2.66574627,7.326 C3.54335821,7.326 4.22350746,7.073 4.70619403,6.589 C5.17791045,6.094 5.41925373,5.379 5.41925373,4.444 Z"></path>
                                <path d="M13.0544776,5.544 C13.0544776,6.336 12.8350746,6.996 12.3962687,7.502 C11.9574627,8.03 11.2992537,8.294 10.4874627,8.294 C9.73052239,8.294 9.12716418,8.041 8.67738806,7.535 C8.22761194,7.029 7.99723881,6.391 7.99723881,5.632 C7.99723881,4.818 8.22761194,4.169 8.69932836,3.652 C9.16007463,3.146 9.78537313,2.882 10.5752239,2.882 C11.2992537,2.882 11.9574627,3.135 12.3962687,3.641 C12.8350746,4.136 13.0544776,4.763 13.0544776,5.544 Z M11.8477612,5.577 C11.8477612,5.104 11.7380597,4.686 11.5186567,4.345 C11.2992537,3.938 10.9701493,3.729 10.5313433,3.729 C10.070597,3.729 9.71955224,3.938 9.47820896,4.345 C9.26977612,4.686 9.17104478,5.104 9.17104478,5.599 C9.17104478,6.072 9.26977612,6.49 9.47820896,6.831 C9.73052239,7.238 10.070597,7.447 10.5203731,7.447 C10.9591791,7.447 11.2992537,7.238 11.5186567,6.82 C11.7380597,6.468 11.8477612,6.061 11.8477612,5.577 Z"></path>
                                <path d="M21.7208955,2.992 L20.0753731,8.173 L18.9783582,8.173 L18.3201493,5.929 C18.2104478,5.368 17.9910448,4.807 17.8813433,4.246 C17.7716418,4.818 17.6619403,5.379 17.4425373,5.929 L16.7843284,8.173 L15.6873134,8.173 L14.1514925,2.992 L15.358209,2.992 L15.9067164,5.456 C16.1261194,6.039 16.2358209,6.6 16.3455224,7.117 C16.4552239,6.688 16.5649254,6.138 16.7843284,5.467 L17.4425373,2.992 L18.4298507,2.992 L19.0880597,5.412 C19.3074627,6.006 19.4171642,6.578 19.5268657,7.117 C19.6365672,6.589 19.7462687,6.017 19.9656716,5.412 L20.5141791,2.992 L21.7208955,2.992 Z"></path>
                                <path d="M27.6447761,8.173 L26.5477612,8.173 L26.5477612,5.203 C26.5477612,4.29 26.1089552,3.828 25.4507463,3.828 C25.1216418,3.828 24.7925373,3.96 24.5731343,4.213 C24.3537313,4.466 24.3537313,4.763 24.3537313,5.104 L24.3537313,8.173 L23.1470149,8.173 L23.1470149,4.477 L23.1470149,2.992 L24.1343284,2.992 L24.1343284,3.795 L24.2440299,3.795 C24.3537313,3.542 24.5731343,3.344 24.7925373,3.168 C25.1216418,2.981 25.4507463,2.882 25.8895522,2.882 C26.3283582,2.882 26.7671642,3.036 27.0962687,3.355 C27.4253731,3.74 27.6447761,4.312 27.6447761,5.071 L27.6447761,8.173 Z"></path>
                                <polygon points="30.8261194 8.173 29.619403 8.173 29.619403 0.6116 30.8261194 0.6116"></polygon>
                                <path d="M37.6276119,5.544 C37.6276119,6.336 37.408209,6.996 36.8597015,7.502 C36.4208955,8.03 35.7626866,8.294 34.9947761,8.294 C34.2268657,8.294 33.6783582,8.041 33.2395522,7.535 C32.6910448,7.029 32.4716418,6.391 32.4716418,5.632 C32.4716418,4.818 32.8007463,4.169 33.2395522,3.652 C33.6783582,3.146 34.3365672,2.882 35.1044776,2.882 C35.8723881,2.882 36.4208955,3.135 36.969403,3.641 C37.408209,4.136 37.6276119,4.763 37.6276119,5.544 Z M36.4208955,5.577 C36.4208955,5.104 36.311194,4.686 36.091791,4.345 C35.8723881,3.938 35.5432836,3.729 35.1044776,3.729 C34.5559701,3.729 34.2268657,3.938 34.0074627,4.345 C33.7880597,4.686 33.6783582,5.104 33.6783582,5.599 C33.6783582,6.072 33.7880597,6.49 34.0074627,6.831 C34.2268657,7.238 34.5559701,7.447 34.9947761,7.447 C35.4335821,7.447 35.8723881,7.238 36.091791,6.82 C36.311194,6.468 36.4208955,6.061 36.4208955,5.577 Z"></path>
                                <path d="M43.1126866,8.173 L42.1253731,8.173 L42.0156716,7.579 C41.6865672,8.052 41.1380597,8.294 40.4798507,8.294 C40.0410448,8.294 39.6022388,8.14 39.2731343,7.821 C39.0537313,7.546 38.9440299,7.183 38.9440299,6.765 C38.9440299,6.138 39.1634328,5.654 39.7119403,5.313 C40.2604478,4.983 40.9186567,4.818 41.9059701,4.829 L41.9059701,4.73 C41.9059701,4.048 41.5768657,3.707 40.8089552,3.707 C40.3701493,3.707 39.9313433,3.839 39.4925373,4.092 L39.2731343,3.333 C39.7119403,3.036 40.3701493,2.882 41.0283582,2.882 C42.3447761,2.882 43.1126866,3.597 43.1126866,5.027 L43.1126866,6.941 L43.1126866,8.173 Z M41.9059701,6.391 L41.9059701,5.599 C40.6992537,5.577 40.0410448,5.918 40.0410448,6.644 C40.0410448,6.908 40.1507463,7.117 40.2604478,7.249 C40.3701493,7.381 40.5895522,7.447 40.8089552,7.447 C41.1380597,7.447 41.3574627,7.37 41.5768657,7.216 C41.7962687,7.051 41.9059701,6.842 41.9059701,6.6 L41.9059701,6.391 Z"></path>
                                <path d="M49.6947761,8.173 L48.7074627,8.173 L48.5977612,7.348 C48.2686567,7.975 47.7201493,8.294 46.9522388,8.294 C46.2940299,8.294 45.7455224,8.052 45.3067164,7.557 C44.9776119,7.062 44.758209,6.435 44.758209,5.654 C44.758209,4.807 44.9776119,4.125 45.4164179,3.608 C45.8552239,3.124 46.4037313,2.882 47.0619403,2.882 C47.7201493,2.882 48.1589552,3.124 48.4880597,3.586 L48.4880597,0.616 L49.5850746,0.6116 L49.5850746,6.7716 C49.5850746,7.2776 49.6947761,7.7396 49.6947761,8.1686 L49.6947761,8.173 Z M48.4880597,5.984 L48.4880597,5.126 L48.4880597,4.763 C48.3783582,4.488 48.2686567,4.246 48.0492537,4.059 C47.8298507,3.872 47.6104478,3.784 47.2813433,3.784 C46.8425373,3.784 46.5134328,3.949 46.2940299,4.29 C45.9649254,4.631 45.8552239,5.071 45.8552239,5.61 C45.8552239,6.116 45.9649254,6.534 46.2940299,6.853 C46.5134328,7.194 46.8425373,7.37 47.2813433,7.37 C47.6104478,7.37 47.9395522,7.227 48.1589552,6.941 C48.3783582,6.677 48.4880597,6.358 48.4880597,5.984 Z"></path>
                                <path d="M59.458209,5.544 C59.458209,6.336 59.238806,6.996 58.8,7.502 C58.361194,8.03 57.7029851,8.294 56.9350746,8.294 C56.1671642,8.294 55.6186567,8.041 55.0701493,7.535 C54.6313433,7.029 54.4119403,6.391 54.4119403,5.632 C54.4119403,4.818 54.6313433,4.169 55.1798507,3.652 C55.6186567,3.146 56.2768657,2.882 57.0447761,2.882 C57.8126866,2.882 58.361194,3.135 58.8,3.641 C59.238806,4.136 59.458209,4.763 59.458209,5.544 Z M58.361194,5.577 C58.361194,5.104 58.2514925,4.686 58.0320896,4.345 C57.8126866,3.938 57.3738806,3.729 56.9350746,3.729 C56.4962687,3.729 56.1671642,3.938 55.9477612,4.345 C55.7283582,4.686 55.6186567,5.104 55.6186567,5.599 C55.6186567,6.072 55.7283582,6.49 55.9477612,6.831 C56.1671642,7.238 56.4962687,7.447 56.9350746,7.447 C57.3738806,7.447 57.7029851,7.238 58.0320896,6.82 C58.2514925,6.468 58.361194,6.061 58.361194,5.577 Z"></path>
                                <path d="M65.711194,8.173 L64.5044776,8.173 L64.5044776,5.203 C64.5044776,4.29 64.1753731,3.828 63.5171642,3.828 C63.1880597,3.828 62.8589552,3.96 62.6395522,4.213 C62.4201493,4.466 62.3104478,4.763 62.3104478,5.104 L62.3104478,8.173 L61.2134328,8.173 L61.2134328,4.477 L61.2134328,2.992 L62.2007463,2.992 L62.2007463,3.795 L62.3104478,3.795 C62.4201493,3.542 62.6395522,3.344 62.8589552,3.168 C63.1880597,2.981 63.5171642,2.882 63.8462687,2.882 C64.3947761,2.882 64.7238806,3.036 65.0529851,3.355 C65.491791,3.74 65.711194,4.312 65.711194,5.071 L65.711194,8.173 Z"></path>
                                <path d="M73.3902985,3.85 L72.1835821,3.85 L72.1835821,6.369 C72.1835821,7.018 72.4029851,7.337 72.841791,7.337 C73.061194,7.337 73.1708955,7.315 73.3902985,7.282 L73.3902985,8.151 C73.1708955,8.239 72.841791,8.283 72.5126866,8.283 C72.0738806,8.283 71.6350746,8.14 71.4156716,7.865 C71.1962687,7.59 71.0865672,7.128 71.0865672,6.468 L71.0865672,3.85 L70.3186567,3.85 L70.3186567,2.992 L71.0865672,2.992 L71.0865672,2.046 L72.1835821,1.694 L72.1835821,2.992 L73.3902985,2.992 L73.3902985,3.85 Z"></path>
                                <path d="M79.5335821,8.173 L78.3268657,8.173 L78.3268657,5.225 C78.3268657,4.301 77.9977612,3.828 77.3395522,3.828 C76.7910448,3.828 76.4619403,4.103 76.2425373,4.642 C76.2425373,4.752 76.1328358,4.895 76.1328358,5.06 L76.1328358,8.173 L75.0358209,8.173 L75.0358209,0.616 L76.1328358,0.6116 L76.1328358,3.7356 L76.2425373,3.7356 C76.5716418,3.1636 77.1201493,2.8776 77.7783582,2.8776 C78.2171642,2.8776 78.6559701,3.0316 78.9850746,3.3506 C79.3141791,3.7356 79.5335821,4.3186 79.5335821,5.0886 L79.5335821,8.1686 L79.5335821,8.173 Z"></path>
                                <path d="M85.7865672,5.335 L85.7865672,5.863 L82.2761194,5.863 C82.2761194,6.369 82.4955224,6.765 82.8246269,7.04 C83.0440299,7.282 83.4828358,7.392 83.9216418,7.392 C84.4701493,7.392 84.9089552,7.315 85.3477612,7.15 L85.4574627,7.953 C85.0186567,8.162 84.4701493,8.272 83.8119403,8.272 C82.9343284,8.272 82.3858209,8.041 81.8373134,7.568 C81.3985075,7.095 81.1791045,6.457 81.1791045,5.654 C81.1791045,4.873 81.3985075,4.224 81.8373134,3.707 C82.2761194,3.157 82.9343284,2.871 83.5925373,2.871 C84.3604478,2.871 84.9089552,3.157 85.3477612,3.707 C85.6768657,4.147 85.7865672,4.686 85.7865672,5.335 Z M84.6895522,5.038 C84.6895522,4.697 84.5798507,4.4 84.4701493,4.158 C84.2507463,3.839 83.9216418,3.674 83.5925373,3.674 C83.1537313,3.674 82.8246269,3.828 82.6052239,4.147 C82.4955224,4.389 82.3858209,4.686 82.2761194,5.038 L84.6895522,5.038 Z"></path>
                            </g>
                        </g>
                    </g>
                </g>
            </g>
        </g>
    </g>
</svg>