<?xml version="1.0" encoding="UTF-8" standalone="no"?><svg xmlns="http://www.w3.org/2000/svg" height="118px" width="101px" version="1.1" xmlns:xlink="http://www.w3.org/1999/xlink" viewBox="0 0 101 118"><g fill-rule="evenodd" fill="none"><g id="GNU_Tux" transform="translate(-1 -1)"><g transform="translate(.367 .591)"><g transform="translate(.630 .587)"><path fill="#fff" d="m49.1 0.193c-3.2 0-3.7 0.04-5.9 0.597-2.6 0.7-4.1 1.57-5.9 3.38-0.9 0.9-1.4 1.47-1.8 2.21-1.1 1.89-1.8 4.02-2.3 6.92-0.2 1.4-0.2 2-0.2 5.5 0 3.6 0.4 14.9 0.7 18.2 0.2 2.2 0.1 2.5-1.8 5.1-0.6 0.9-1.5 2.2-2 3-1.3 1.9-3 4.4-4.5 6.3-2.7 3.4-3.3 4.7-5 9.3-1.7 4.5-2.7 6.7-5.1 11.4-1.2 2.4-1.5 3.4-1.6 5-0.1 1.5 0.1 3.5 0.4 3.8 0.1 0.2 0.4 0.3 0.8 0.2-0.1 0-0.1 0.1-0.1 0.1-0.7 0.5-1.5 1.4-2 2.7-0.1 0-0.1 0-0.1 0.1-0.1 0.2-0.3 0.7-0.6 1.4-0.7 2.1-1.3 3-2.38 3.5-0.91 0.5-1.73 0.7-4.11 0.7-2.47 0-3.01 0.1-3.74 0.7-1.32 1.1-1.52 3.3-0.62 6.4 0.82 2.8 0.78 4.3-0.279 7.3-0.577 2-0.657 2-0.657 3 0 0 0.06 1 0.179 1 0.259 0 1.08 1 1.87 1 0.9 1 5.4 2 8.64 3 5 1 6.8 1 11.4 3 4.1 2 5.9 2 7.3 2h2.6c0.7 0 1.4-1 3-2 2.7-2 4.1-3 7.2-3 1.1-1 2.1-1 10.8-1 5.2 0 9.9 0 10.3 1 1 0 1.3 0 2.2 1 1.2 3 2.7 4 5.5 4h4.6c2.3 0 3.4-1 6-4 3-3 5.8-4 9.7-6 2-1 2.9-1 5.2-3 2.9-2 3.2-3 3.2-4 0-1.3-0.5-2.1-3.1-3.9-2.5-1.6-3.7-2.6-4.7-4.2-0.8-1.1-1-1.9-1.1-3.5-0.1-0.8-0.1-1.3-0.2-1.6-0.1-1.2-0.6-2.5-1.4-2.9-1.1-0.6-1.5-0.4-1.9-0.2 1.2-1.4 1.7-2.1 2.1-3.3 0.7-2.2 0.6-4.6-0.7-11-1.5-7.4-4-12.7-9.2-19.3-3.2-4.3-4.6-6.4-7.8-12.4-1.6-3-2-4-2.4-5.7-0.6-2.3-0.8-4.4-1.2-10.3-0.4-5.6-0.7-7.9-1.2-9.8-1.4-5.24-5.5-9.22-11.3-10.9-2.4-0.668-3.5-0.807-6.8-0.807z"/><g fill="#F8BF11" transform="translate(.971 25.2)"><path d="m60.4 7.84c0 2.76-3.3 3.36-4.9 4.36-1.5 1.4-10.1 5.3-12.4 5.3-3.7-0.8-8.1-6.3-8.7-9.88 0-2.11 2.7-3.8 4.2-5.19 1.5-1.38 3.2-2.68 6.2-2.13 2.2 0.001 5.8 1.08 7.3 2.47 3 0.99 8.3 1.63 8.3 5.07z"/><path d="m0.177 82c3.4 1.5 11.3 3.5 14.1 3.9 1.9 0.7 14.2 3.6 17 3.6 4.2-3 4.9-7.5 3.8-12.1-5.3-8.5-9.4-19.6-19.2-23.4-1 0.5-1.8 1.8-2.1 2-0.7 0.5-1.5 1.5-2 2.7-0.5 1.3-1 2.8-1.6 5.1-1.11 2.3-5.74 0.2-8.92 1.9-1.15 3.5 0.82 12.2-1.1 16.3h-0.003z"/><path d="m91.6 69c2.1 1.7 5.4 3 6.9 5.9-2.8 3.4-5.3 4.6-8.9 6.4-5 2.3-8.1 4.6-10.4 6.1-2.3 2-7.6 3.2-10 2.9-1.5-1-3.2-13.1-2.6-17.1 0-2.1-2.6-10.5 1.5-15.6 4-0.8 7.4 2.9 10 5.4 2.1-1.4 5.4-3.6 7.9-4.1 0.8-0.2 0.8-1.1 2.5-0.2 0.8 0.5 1.3 1.8 1.4 3 0.1 1.8 0.3 5.8 1.7 7.3z"/></g><g fill="#000" transform="translate(.175 .114)"><g transform="translate(.133 .0297)"><path d="m29.4 117c-1.4 0-3.2-1-7.3-2-4.7-2-6.4-3-11.4-4-3.25 0-7.76-1-8.64-2-0.8 0-1.63-1-1.88-1-0.118-1-0.18-1-0.18-1 2.26e-15 -1 0.0801-2 0.659-3 1.05-3 1.1-4.7 0.285-7.4-0.906-3.1-0.694-5.3 0.616-6.4 0.73-0.7 1.27-0.8 3.73-0.8 2.39 0 3.2-0.1 4.13-0.6 1.08-0.6 1.68-1.5 2.38-3.5 0.4-1.3 0.7-1.8 1-1.8s0.5 0.5 0.5 1.2-0.7 3.3-1.1 3.9c-0.3 0.8-0.8 1.3-1.4 1.7-1.08 0.6-3.14 0.8-5.41 0.4-1.44-0.2-2.27-0.2-2.82 0.2-0.82 0.5-0.95 1.6-0.36 3 1.15 2.6 1.37 3.2 1.61 4.1 0.29 1.1 0.34 2 0.16 3s-0.5 2-1.44 3c-0.48 1-0.93 2-0.99 2-0.16 0 0.08 1 0.74 1 0.56 1 8.51 3 14.2 4 1.7 0 4.9 1 7 2 2.1 0 4.3 1 4.9 1 1.8 0 3.4 0 4.6-1 1.6-1 2.7-3 2.8-6 0.1-2-0.3-3-1.3-5-0.8-2-1.2-2.4-4.9-8-6.6-9.9-9.5-13.2-11.9-13.8-0.8-0.1-1.3 0-2.4 0.5-1 0.4-1.3 0.4-1.5 0.1-0.3-0.4-0.5-2.4-0.4-3.8 0.1-1.7 0.4-2.7 1.6-5 2.4-4.7 3.4-6.9 5.1-11.4 1.6-4.6 2.3-5.9 5-9.4 1.5-1.9 3.2-4.4 4.5-6.3 0.5-0.7 1.4-2 2-3 1.9-2.6 2-2.8 1.8-5-0.3-3.4-0.7-14.6-0.7-18.3 0-3.5 0-4 0.2-5.4 0.5-2.9 1.2-5.08 2.3-6.96 0.4-0.74 0.9-1.32 1.8-2.22 1.8-1.81 3.3-2.68 5.9-3.36 2.2-0.56 2.7-0.615 5.9-0.612 3.3 0.0026 4.3 0.133 6.8 0.838 5.8 1.65 9.9 5.63 11.3 10.9 0.5 1.9 0.7 4.2 1.1 9.7 0.5 6 0.7 8.1 1.3 10.4 0.4 1.6 0.8 2.7 2.4 5.7 3.2 6 4.5 8.1 7.8 12.3 5.2 6.7 7.7 11.9 9.2 19.3 1.2 6.4 1.4 8.9 0.7 11.1-0.5 1.3-0.9 1.9-2.4 3.6-3.2 3.5-6.8 5.8-9.2 5.8-2.2 0-4.2-1.6-5.7-4.3-0.6-1.5-0.6-2.7-2.5-2.3-0.9 0.3-1.7 1.4-1.9 2.9-0.2 1.1-0.2 5.1 0 6.1 0.1 0.4 0.4 1.8 0.6 3 0.4 2 0.4 2.2 0.4 4.3 0 1.6-0.1 2.6-0.4 4.6s-0.3 3-0.3 4c0.1 1 0.1 1 0.4 2 0.5 1 1.5 2 2.4 3 1.9 1 4.5 1 6.7 0 0.7 0 1.6-1 3.1-2 2.6-2 4.4-4 5.8-4 0.6-1 1.9-1 2.9-1 4.4-2 6.4-3 7.5-4 1.3-1 1.9-2 1.7-2.8-0.3-1-1.5-1.8-4.1-2.5-1.9-0.5-2.4-0.7-3.2-1.6-0.7-0.7-1.2-1.8-1.6-3.3-0.4-1.4-0.5-3.7-0.1-4.6 0.2-0.7 0.4-1 0.7-1s0.5 0.6 0.6 2c0.1 1.6 0.3 2.5 1.1 3.6 1 1.5 2.1 2.5 4.7 4.2 2.6 1.8 3.3 2.6 3.3 3.9 0 1.1-0.5 2.1-3.4 4.1-2.4 1-3.2 2-5.2 3-4 1-6.7 3-9.7 6-2.6 3-3.7 4-6 4h-4.6c-2.8 0-4.3-1-5.6-4-0.8-1-1.2-2-2.1-2h-10.4-10.8c-3 1-4.5 2-7.2 4-1.5 1-2.2 2-2.9 2h-2.7 0.1zm9.9-7c0.3 0 0.6-1 0.8-1 0.4-1 0.4-1 0.5-2 0-2-0.3-3-1.6-4-0.8-1-1-1-0.5-1 0.5-1 1.1 0 2.1 1 1.9 1 3.1 2 7.3 1 4.6 0 7.1 0 9.6-1 1.6-1 2.7-2 4-4 1-1.2 1.4-1.7 2-1.9 0.9-0.4 1.4 0.4 1.3 2.1 0 0.8-0.1 1.8-0.4 2.8-1 3-1.3 5-1.1 7 0.2 0 0.7 1 1.2 1 0.3-1 0.3-1 0.4-1 0.1-1 0.3-2 0.5-3 0.1-1 0.3-3 0.4-3 0.3-2 0.5-7.4 0.5-13.3 0-5.1 0-5.1 0.2-5.9 0.3-0.6 0.4-0.8 0.9-1.3 0.6-0.6 1.3-0.9 2.7-1l1-0.1 0.1-0.6c0.3-1.6 1.2-2.4 3-2.9 0.6-0.2 1.2-0.2 2.5-0.2 1.8 0 2.3 0.1 4 0.9 0.7 0.3 1.3 0.4 1.3 0.2 0-0.1-0.9-1-1.6-1.5-0.4-0.3-1-0.6-1.4-0.8-0.6-0.2-0.8-0.4-0.8-0.5 0-0.2 0.1-0.9 0.4-1.7 0.6-2.3 0.8-3.8 0.8-6 0-3.6-0.6-6-2.7-10.1-2-3.8-4-6.6-5.7-7.6-0.5-0.3-1-0.5-1-0.4s0.4 0.7 0.9 1.3c2.2 3.2 4.6 7.3 5.6 9.8 0.8 2 1.4 4.7 1.6 7.1 0.3 4.1-0.8 7.5-2.7 8.3-0.4 0.2-0.8 0.3-1.7 0.3-1.5 0.1-1.7 0-2.1-0.8l-0.2-0.5-0.1-4.5c-0.1-7.5-0.5-8.8-4.4-15.9-1.2-2.2-1.5-2.8-2-4.8-1.1-4-2.1-6.4-3.7-8.6-2.5-3.3-2.8-4.7-1.8-7.7 0.6-2 0.6-3-0.1-3.7-0.4-0.5-0.8-0.7-3-1.4-3.4-1-5-2-5.4-3.3-0.4-1.2-0.1-3.3 0.7-4.3 0.5-0.7 1.2-1 2.3-1 0.7 0 1 0.1 1.5 0.3 0.8 0.3 1.4 0.9 1.7 1.5s0.3 2.1 0 3.2c-0.6 1.8-0.6 1.6-0.2 1.9 0.7 0.7 1.9 0.7 2.4 0.1 0.4-0.5 0.5-1 0.6-2.5 0.1-1.6-0.1-2.6-0.8-4.6-0.9-2.8-1.8-3.6-4.5-4-2-0.3-3.1-0.1-4.1 1-1.6 1.6-2.4 4.3-2.1 6.9 0.2 1.5 0.2 1.6-0.7 1.3-0.7-0.2-2.3-0.4-3.3-0.4-1 0.1-1.1 0-1.1-1.2 0-4.5-1.4-7-3.9-7-1.7 0-3.2 1.3-3.7 3.4-0.2 0.9-0.2 3.2 0.1 4.6 0.4 2.7 1.5 4.1 2.3 3 0.3-0.4 0.6-1 0.6-1.2l-0.6-0.4c-0.3-0.1-0.6-0.4-0.7-0.6-0.7-1-1-2.8-0.7-3.8 0.3-1.2 2-1.9 3.2-1.4 0.9 0.5 2 2.6 1.9 4-0.1 1-0.3 1.4-1.3 2.1-0.5 0.4-1.3 1-1.7 1.4-0.5 0.5-1.1 1-1.4 1.1-1.2 0.9-1.9 2-1.9 3 0 0.6 0.3 1 1.1 1.4 0.6 0.3 1.2 0.9 1.8 1.8 0.9 1.2 1.9 1.6 4.1 1.6 2.8-0.1 5.2-0.6 9.8-2.4 2.6-0.9 3.3-1.2 3.4-1.4 0.4-0.6 0.9-1 1.2-1 0.4 0 0.7 0.3 0.7 0.7 0 0.7-1 1.3-4.6 2.5-1.1 0.3-2.8 1-3.7 1.4-1.9 1-2.4 1.1-3.7 1.4-1 0.2-3.4 0.2-4.7 0-1-0.1-1.7 0-1.6 0.2 0 0.3 2.5 2.2 3 2.5 0.8 0.2 2.4 0.3 3.4 0.1 1.6-0.4 6.4-2.5 8.8-3.8 0.8-0.5 1.3-0.7 1.6-0.7 0.5 0 0.8 0.3 0.8 0.7s-0.8 1.2-1.7 1.5c-1.6 0.7-1.9 0.9-3.5 1.9-2.1 1.3-3 2-4.5 3.2-1.5 1.4-1.9 1.5-3.6 1.6-1.3 0-1.7-0.2-2.6-0.9-0.7-0.6-2.3-2.6-2.8-3.5s-1.6-2.1-1.8-2.1-0.3 0-0.6 1.4c-0.2 1-1 2.9-2.3 5.5-1.6 3.1-1.7 3.4-1.7 6.7 0 2.7 0.1 2.5-1.3 4.4-1.6 2.3-4.2 8.3-4.8 11.3-0.4 2.3-0.8 6.1-0.7 8.3 0.1 1.7 0 2.2-0.4 2.5-0.4 0.2-0.9 0-1.9-1-1.7-1.7-2.2-3-2.2-5.6 0-1.6 0.2-2.9 0.5-4.1 0.3-1 0.3-1.3 0-1.3-0.2 0.1-0.8 1.3-1.1 2.4-0.2 0.6-0.3 1.3-0.3 2.7 0 1.7 0 1.9 0.2 3.1 0.4 1.4 1 2.8 1.9 4 1.3 1.7 8.1 7.7 12.6 11.2 1.1 0.8 2.3 1.8 2.7 2.3 2.4 2.5 1.9 4.9-1.4 6.7-0.5 0.3-0.9 0.6-0.9 0.6s0.4 1 0.9 1c1.9 3 3 5 3.4 6 0.2 1 0.2 2-0.1 3h-0.1 0.5zm1.9-82.3c-0.3-0.6 0.3-1.2 1.4-1.2 0.4 0 0.8 0.1 0.8 0.1 0.1 0.2-0.3 0.4-0.6 0.4-0.2 0-0.3 0.1-0.5 0.4-0.2 0.4-0.3 0.5-0.6 0.5-0.3 0.1-0.4 0-0.5-0.2zm6.6-0.4c-0.6-0.3-1.1-0.6-1-0.7 0 0 0.4-0.1 0.8-0.1 1-0.1 1.4 0 1.4 0.5 0 0.2-0.1 0.3-0.2 0.4-0.2 0.1-0.3 0.1-0.3 0.1s-0.3-0.1-0.7-0.2zm-23 31c1-1.1 1.3-1.7 1.3-2.5-0.1-0.5-0.3-0.7-0.7-0.6-0.3 0.1-0.5 0.4-0.8 1.4-0.1 0.5-0.3 0.8-0.8 1.3-0.6 0.7-0.7 1-0.5 1.2 0.3 0.3 0.5 0.1 1.5-0.8zm42.5-18.7c0.2-0.2 0.7-1.3 0.7-1.7s-0.1-0.5-0.3-0.8c-0.2-0.2-0.4-0.3-0.5-0.3l-1-0.4c-0.5-0.3-1-0.6-1.5-1.1-0.4-0.4-0.8-0.7-0.9-0.7s-0.1 0.1-0.2 0.3c-0.1 0.5 0.1 1.3 0.5 2.2 0.4 0.8 0.6 1 1.5 1.7 1 0.9 1.3 1 1.7 0.8zm-26.6-14.8c0.1-0.4 0.1-0.6-0.2-1.7-0.2-0.5-0.4-0.9-0.6-1.2-0.3-0.3-0.4-0.3-0.7-0.2-0.3 0.2-0.3 0.6 0.1 1.1 0.4 0.4 0.6 1.1 0.8 1.9 0.1 0.5 0.4 0.6 0.6 0.1zm15.6-0.3c0.2-0.3 0-1.7-0.3-2.2s-1.1-1-1.8-1.1c-0.4 0-0.5 0-0.6 0.2-0.1 0.3-0.1 0.4 0.5 0.6 0.7 0.2 1.3 1.1 1.5 2.2 0 0.4 0.1 0.4 0.3 0.4 0.1 0 0.3 0 0.4-0.1zm0.7-14.9c0.8-0.55 0.9-0.58 1.6-0.6 1-0.02 1.2-0.11 1.2-0.45 0-0.53-1.8-2.16-2.6-2.3-0.8-0.15-1 0.27-1.2 1.84-0.1 0.59-0.1 0.84-0.4 1.15-0.3 0.44-0.4 0.69-0.2 0.87 0.2 0.3 0.7 0.1 1.6-0.51z"/></g></g></g></g></g></g></svg>
