<?xml version="1.0" encoding="UTF-8" standalone="no"?>
<svg xmlns="http://www.w3.org/2000/svg" height="40px" width="169px" version="1.1" xmlns:xlink="http://www.w3.org/1999/xlink" viewBox="542 593 169 40">
<g fill-rule="evenodd" transform="translate(542 593)" fill="none">
<g id="US_UK_Download_on_the">
<g id="Group">
<path id="Shape" fill="#000" d="m168 35.5c0 2.2-1 4-4 4h-160c-2.16 0-3.93-1.8-3.93-4l-0.003-31.5c0-2.16 1.77-3.93 3.96-3.93l160-0.002c3 0 4 1.77 4 3.95v31.5z"/>
<g id="Shape" fill="#fff" transform="translate(11.5 5.34)">
<path d="m19.1 14.2c-0.1-3.3 2.8-4.95 2.9-5.02-1.6-2.27-4.1-2.59-4.9-2.61-2.1-0.21-4.1 1.22-5.2 1.22s-2.68-1.2-4.43-1.16c-2.25 0.03-4.36 1.31-5.52 3.29-2.38 4.08-0.6 9.98 1.68 13.3 1.14 1.6 2.48 3.4 4.23 3.3 1.71-0.1 2.34-1.1 4.44-1.1 2 0 2.6 1.1 4.4 1.1 1.8-0.1 3-1.6 4.1-3.3 1.3-1.8 1.9-3.6 1.9-3.7-0.1 0-3.6-1.3-3.6-5.3z"/>
<path d="m15.7 4.42c0.9-1.13 1.6-2.66 1.4-4.22-1.3 0.059-3 0.9-4 2.01-0.8 0.97-1.6 2.56-1.4 4.06 1.5 0.11 3-0.74 4-1.85z"/>
</g>
<g id="Shape" fill="#fff" transform="translate(42.5 17.7)">
<path d="m14.1 13.9h-2l-0.3-5.41c-0.1-2.45-0.2-4.27-0.2-5.47-0.5 1.53-1 3.17-1.6 4.91l-1.98 5.87h-1.58l-1.85-5.77c-0.55-1.75-1-3.42-1.35-5.01h-0.04c-0.06 1.95-0.14 3.81-0.23 5.57l-0.31 5.31h-1.94l0.86-13 2.68 0.042 1.87 5.62c0.46 1.39 0.87 2.88 1.21 4.44h0.06c0.41-1.62 0.85-3.11 1.31-4.44l1.99-5.62 2.6 0.002 0.8 13z"/>
<path d="m23.2 13.9h-1.9l-0.1-1.1h-0.1c-0.6 0.9-1.5 1.3-2.7 1.3-0.9 0-1.6-0.2-2.2-0.8-0.4-0.5-0.7-1.2-0.7-1.9 0-1.2 0.5-2.04 1.4-2.64 1-0.6 2.3-0.9 4.1-0.88v-0.18c0-1.23-0.7-1.85-2-1.85-0.9 0-1.7 0.23-2.4 0.7l-0.4-1.37c0.8-0.54 1.9-0.81 3.2-0.81 2.4 0 3.7 1.29 3.7 3.87v3.46c0 0.9 0 1.7 0.1 2.2zm-2.2-3.2v-1.44c-2.3-0.04-3.4 0.59-3.4 1.84 0 0.5 0.1 0.9 0.4 1.1 0.3 0.3 0.6 0.4 1 0.4 0.5 0 0.9-0.1 1.3-0.4s0.6-0.7 0.7-1.1v-0.4z"/>
<path d="m32 4.81l-0.5 1.58c-0.5-0.25-1.1-0.38-1.8-0.38-0.9 0-1.6 0.3-2.1 0.91-0.6 0.61-0.8 1.39-0.8 2.32 0 0.96 0.3 1.76 0.8 2.36 0.6 0.6 1.3 0.9 2.1 0.9 0.7 0 1.3-0.2 1.9-0.4l0.3 1.5c-0.7 0.4-1.5 0.5-2.6 0.5-1.4 0-2.5-0.4-3.4-1.3-0.8-0.9-1.2-2-1.2-3.46 0-1.45 0.4-2.64 1.3-3.57s2.2-1.4 3.7-1.4c0.9 0 1.6 0.15 2.3 0.44z"/>
<path d="m47.3 13.9h-2.2l-1.2-3.8h-4.2l-1.2 3.8h-2.1l4.1-13 2.6 0.043 4.2 13zm-3.8-5.39l-1.1-3.39c-0.1-0.35-0.3-1.16-0.6-2.44h-0.1c-0.1 0.55-0.3 1.36-0.6 2.44l-1.1 3.39h3.5z"/>
<path d="m58.1 9.13c0 1.57-0.5 2.87-1.3 3.77-0.8 0.8-1.8 1.2-2.9 1.2-1.2 0-2.1-0.4-2.7-1.3v4.9h-2.1v-10.1c0-0.96 0-1.98-0.1-3.04h1.9l0.1 1.49c0.7-1.12 1.8-1.68 3.2-1.68 1.1 0 2 0.44 2.8 1.31 0.7 0.87 1.1 2.02 1.1 3.45zm-2.2 0.08c0-0.92-0.2-1.67-0.6-2.26-0.4-0.61-1-0.92-1.8-0.92-0.5 0-1 0.17-1.4 0.51s-0.7 0.78-0.8 1.33c-0.1 0.26-0.1 0.47-0.1 0.64v1.59c0 0.7 0.2 1.2 0.6 1.7s1 0.7 1.7 0.7 1.3-0.3 1.8-0.9c0.4-0.6 0.6-1.4 0.6-2.39z"/>
<path d="m68.8 9.13c0 1.57-0.4 2.87-1.3 3.77-0.7 0.8-1.7 1.2-2.8 1.2-1.3 0-2.2-0.4-2.7-1.3v4.9h-2.1v-10.1c0-0.96 0-1.98-0.1-3.04h1.8l0.2 1.49c0.7-1.12 1.7-1.68 3.2-1.68 1.1 0 2 0.44 2.7 1.31 0.8 0.87 1.1 2.02 1.1 3.45zm-2.1 0.08c0-0.92-0.2-1.67-0.6-2.26-0.5-0.61-1.1-0.92-1.8-0.92-0.5 0-1 0.17-1.4 0.51s-0.7 0.78-0.8 1.33c-0.1 0.26-0.1 0.47-0.1 0.64v1.59c0 0.7 0.2 1.2 0.6 1.7s1 0.7 1.6 0.7c0.8 0 1.4-0.3 1.8-0.9 0.5-0.6 0.7-1.4 0.7-2.39z"/>
<path d="m80.9 10.3c0 1.1-0.4 2-1.2 2.7s-2 1.1-3.5 1.1c-1.4 0-2.5-0.3-3.4-0.8l0.5-1.7c0.9 0.5 1.9 0.8 3 0.8 0.8 0 1.4-0.2 1.8-0.5 0.5-0.4 0.7-0.9 0.7-1.4 0-0.57-0.2-1.02-0.6-1.38-0.3-0.36-0.9-0.69-1.8-1-2.2-0.85-3.4-2.09-3.4-3.72 0-1.07 0.4-1.95 1.2-2.63s1.9-1.02 3.2-1.02c1.2 0.002 2.2 0.207 3 0.62l-0.6 1.69c-0.7-0.39-1.5-0.59-2.4-0.59-0.8 0-1.4 0.18-1.8 0.54-0.3 0.32-0.5 0.71-0.5 1.17 0 0.51 0.2 0.94 0.6 1.27 0.4 0.31 1 0.64 1.9 1 1.1 0.45 1.9 0.98 2.5 1.58 0.5 0.6 0.8 1.35 0.8 2.27z"/>
<path d="m87.7 6.12h-2.3v4.58c0 1.1 0.4 1.7 1.3 1.7 0.3 0 0.6 0 0.9-0.1v1.6c-0.4 0.1-0.9 0.2-1.6 0.2-0.8 0-1.4-0.2-1.9-0.7s-0.7-1.4-0.7-2.6v-4.68h-1.4v-1.56h1.4v-1.71l2-0.62v2.33h2.3v1.56z"/>
<path d="m98.1 9.16c0 1.44-0.4 2.64-1.3 3.54-0.8 1-2 1.4-3.4 1.4s-2.5-0.4-3.3-1.3-1.2-2.1-1.2-3.48c0-1.45 0.4-2.64 1.3-3.56 0.8-0.93 1.9-1.39 3.4-1.39 1.3 0 2.4 0.46 3.3 1.37 0.8 0.88 1.2 2.03 1.2 3.42zm-2.2 0.07c0-0.86-0.2-1.6-0.5-2.22-0.5-0.74-1.1-1.12-1.9-1.12s-1.5 0.38-1.9 1.12c-0.4 0.62-0.6 1.37-0.6 2.26 0 0.83 0.2 1.63 0.6 2.23 0.4 0.7 1.1 1.1 1.9 1.1s1.4-0.4 1.8-1.1 0.6-1.4 0.6-2.27z"/>
<path d="m105 6.39c0-0.04-1-0.05-1-0.05-1 0-1 0.27-2 0.82v1.85 4.89h-2.1v-6.39c0-1.08 0-2.06-0.1-2.95h2.2v1.79c0-0.61 0-1.11 1-1.48 0-0.33 1-0.5 1-0.5 1 0 1 0.01 1 0.04v1.98z"/>
<path d="m114 8.8v0.94h-6c0 0.96 0 1.66 1 2.16 0 0.4 1 0.6 2 0.6s2-0.1 2-0.4l1 1.4c-1 0.4-2 0.6-4 0.6-1 0-2-0.4-3-1.3-1-0.8-1-2-1-3.42 0-1.41 0-2.59 1-3.53 1-1 2-1.5 3-1.5 2 0 3 0.5 3 1.5 1 0.8 1 1.78 1 2.95zm-2-0.54v-1.6c-1-0.58-1-0.86-2-0.86s-1 0.28-2 0.84v1.62h4z"/>
</g>
<g id="Shape" fill="#fff" transform="translate(43.5 5.34)">
<path d="m6.15 4.14c0 1.21-0.37 2.12-1.09 2.74-0.68 0.56-1.63 0.85-2.87 0.85-0.62 0-1.15-0.03-1.59-0.08l0.004-6.64c0.576-0.09 1.2-0.137 1.87-0.137 1.18 0 2.07 0.257 2.67 0.767 0.67 0.58 1.01 1.41 1.01 2.5zm-1.14 0.03c0-0.79-0.21-1.4-0.63-1.82-0.41-0.42-1.02-0.63-1.83-0.63-0.34 0-0.63 0.03-0.87 0.07v5.05c0.14 0.02 0.38 0.03 0.73 0.03 0.83 0 1.47-0.23 1.92-0.69s0.68-1.13 0.68-2.01z"/>
<path d="m12.2 5.2c0 0.74-0.2 1.36-0.7 1.84-0.4 0.49-1 0.74-1.73 0.74-0.72 0-1.28-0.24-1.71-0.71-0.42-0.48-0.63-1.07-0.63-1.79 0-0.76 0.22-1.37 0.65-1.85 0.44-0.48 1.03-0.72 1.77-0.72 0.75 0 1.25 0.23 1.75 0.71 0.4 0.46 0.6 1.05 0.6 1.78zm-1.1 0.03c0-0.45-0.1-0.83-0.3-1.15-0.2-0.39-0.6-0.59-0.99-0.59-0.43 0-0.76 0.2-0.99 0.59-0.2 0.32-0.29 0.71-0.29 1.17 0 0.45 0.1 0.83 0.29 1.15 0.23 0.39 0.56 0.59 0.98 0.59 0.4 0 0.7-0.2 1-0.6 0.2-0.32 0.3-0.71 0.3-1.16z"/>
<path d="m20.3 2.8l-1.5 4.87h-1l-0.6-2.11c-0.2-0.53-0.3-1.06-0.4-1.58h-0.1c-0.1 0.54-0.2 1.06-0.3 1.58l-0.7 2.11h-1l-1.5-4.87h1.2l0.5 2.32c0.1 0.54 0.3 1.06 0.3 1.56h0.1c0-0.41 0.2-0.93 0.4-1.55l0.7-2.32h0.8l0.7 2.27c0.2 0.55 0.3 1.08 0.4 1.6 0.1-0.5 0.2-1.04 0.3-1.6l0.6-2.27h1.1v-0.01z"/>
<path d="m25.9 7.67h-1.1v-2.79c0-0.86-0.3-1.29-1-1.29-0.3 0-0.5 0.12-0.7 0.36-0.2 0.23-0.3 0.51-0.3 0.83v2.89h-1.1v-3.48c0-0.42 0-0.89-0.1-1.39h1v0.76h0.1c0.1-0.23 0.3-0.43 0.5-0.58 0.3-0.19 0.6-0.28 1-0.28 0.5 0 0.8 0.15 1.1 0.44 0.4 0.36 0.6 0.9 0.6 1.61v2.92z"/>
<polygon points="28.9 7.67 27.8 7.67 27.8 0.574 28.9 0.574"/>
<path d="m35.2 5.2c0 0.74-0.2 1.36-0.6 1.84-0.4 0.49-1 0.74-1.8 0.74-0.7 0-1.3-0.24-1.7-0.71-0.4-0.48-0.6-1.07-0.6-1.79 0-0.76 0.2-1.37 0.6-1.85 0.5-0.48 1.1-0.72 1.8-0.72s1.3 0.23 1.7 0.71c0.4 0.46 0.6 1.05 0.6 1.78zm-1.1 0.03c0-0.45-0.1-0.83-0.3-1.15-0.2-0.39-0.5-0.59-0.9-0.59-0.5 0-0.8 0.2-1 0.59-0.2 0.32-0.3 0.71-0.3 1.17 0 0.45 0.1 0.83 0.3 1.15 0.2 0.39 0.5 0.59 1 0.59 0.4 0 0.7-0.2 0.9-0.6 0.2-0.32 0.3-0.71 0.3-1.16z"/>
<path d="m40.5 7.67h-1l-0.1-0.56c-0.3 0.44-0.8 0.67-1.4 0.67-0.5 0-0.9-0.15-1.1-0.44-0.3-0.27-0.4-0.6-0.4-0.99 0-0.6 0.2-1.05 0.7-1.36 0.5-0.32 1.2-0.47 2.1-0.46v-0.09c0-0.65-0.3-0.96-1-0.96-0.5 0-0.9 0.12-1.3 0.36l-0.2-0.71c0.5-0.28 1-0.42 1.7-0.42 1.3 0 1.9 0.67 1.9 2.01v1.79c0 0.48 0 0.87 0.1 1.16zm-1.1-1.67v-0.75c-1.2-0.02-1.8 0.3-1.8 0.98 0 0.25 0 0.44 0.2 0.57 0.1 0.12 0.3 0.19 0.5 0.19s0.5-0.08 0.7-0.23 0.3-0.34 0.3-0.57c0-0.06 0.1-0.12 0.1-0.19z"/>
<path d="m46.6 7.67h-0.9l-0.1-0.78c-0.3 0.59-0.8 0.89-1.6 0.89-0.6 0-1.1-0.23-1.4-0.69-0.4-0.46-0.6-1.06-0.6-1.79 0-0.79 0.2-1.43 0.6-1.91 0.4-0.46 0.9-0.69 1.5-0.69 0.7 0 1.1 0.22 1.4 0.66v-2.79l1.1 0.004v5.79 1.31zm-1.1-2.05v-0.81-0.34c-0.1-0.26-0.2-0.48-0.4-0.66s-0.5-0.26-0.7-0.26c-0.4 0-0.8 0.16-1 0.48s-0.3 0.73-0.3 1.23c0 0.48 0.1 0.87 0.3 1.17 0.2 0.32 0.5 0.48 0.9 0.48s0.7-0.14 0.9-0.4c0.2-0.25 0.3-0.55 0.3-0.89z"/>
<path d="m55.9 5.2c0 0.74-0.3 1.36-0.7 1.84-0.4 0.49-1 0.74-1.8 0.74-0.7 0-1.2-0.24-1.7-0.71-0.4-0.48-0.6-1.07-0.6-1.79 0-0.76 0.2-1.37 0.7-1.85 0.4-0.48 1-0.72 1.7-0.72s1.3 0.23 1.7 0.71c0.5 0.46 0.7 1.05 0.7 1.78zm-1.2 0.03c0-0.45-0.1-0.83-0.2-1.15-0.3-0.39-0.6-0.59-1-0.59-0.5 0-0.8 0.2-1 0.59-0.2 0.32-0.3 0.71-0.3 1.17 0 0.45 0.1 0.83 0.3 1.15 0.2 0.39 0.6 0.59 1 0.59s0.7-0.2 0.9-0.6c0.2-0.32 0.3-0.71 0.3-1.16z"/>
<path d="m61.7 7.67h-1.1v-2.79c0-0.86-0.3-1.29-1-1.29-0.3 0-0.6 0.12-0.8 0.36-0.2 0.23-0.3 0.51-0.3 0.83v2.89h-1v-3.48c0-0.42-0.1-0.89-0.1-1.39h1v0.76c0.2-0.23 0.4-0.43 0.6-0.58 0.3-0.19 0.6-0.28 1-0.28s0.8 0.15 1.1 0.44c0.4 0.36 0.6 0.9 0.6 1.61v2.92z"/>
<path d="m69 3.61h-1.2v2.37c0 0.6 0.2 0.9 0.6 0.9 0.2 0 0.3-0.02 0.5-0.05v0.82c-0.2 0.08-0.5 0.12-0.8 0.12-0.5 0-0.8-0.13-1-0.39-0.3-0.26-0.4-0.7-0.4-1.31v-2.46h-0.7v-0.81h0.7v-0.89l1.1-0.32v1.21h1.1v0.81h0.1z"/>
<path d="m74.7 7.67h-1.1v-2.77c0-0.87-0.3-1.31-0.9-1.31-0.5 0-0.9 0.26-1.1 0.76v0.39 2.93h-1.1v-7.1l1.1 0.004v2.93c0.3-0.53 0.8-0.8 1.5-0.8 0.4 0 0.8 0.15 1.1 0.45 0.3 0.36 0.5 0.91 0.5 1.63v2.89z"/>
<path d="m80.3 5.01v0.49h-3.3c0.1 0.48 0.2 0.84 0.5 1.1 0.3 0.22 0.6 0.34 1.1 0.34s0.9-0.08 1.3-0.23l0.2 0.75c-0.5 0.2-1 0.3-1.7 0.3s-1.3-0.22-1.8-0.67c-0.4-0.44-0.6-1.04-0.6-1.78s0.2-1.35 0.6-1.83c0.4-0.52 1-0.78 1.7-0.78s1.2 0.26 1.6 0.78c0.3 0.41 0.4 0.92 0.4 1.53zm-1-0.28c0-0.32-0.1-0.6-0.2-0.83-0.2-0.3-0.5-0.45-0.9-0.45-0.3 0-0.6 0.14-0.8 0.44-0.2 0.23-0.3 0.51-0.4 0.84h2.3z"/>
</g>
</g>
</g>
</g>
</svg>
