<?xml version="1.0" encoding="UTF-8"?>
<svg width="18px" height="18px" viewBox="0 0 18 18" version="1.1" xmlns="http://www.w3.org/2000/svg" xmlns:xlink="http://www.w3.org/1999/xlink">
    <!-- Generator: Sketch 47 (45396) - http://www.bohemiancoding.com/sketch -->
    <title>24x24/guest--dark</title>
    <desc>Created with Sketch.</desc>
    <defs></defs>
    <g id="homepage" stroke="none" stroke-width="1" fill="none" fill-rule="evenodd">
        <g transform="translate(-913.000000, -1969.000000)" id="enterprise-features">
            <g transform="translate(0.000000, 1514.000000)">
                <g id="Group-17" transform="translate(728.000000, 120.000000)">
                    <g id="Group-33" transform="translate(182.000000, 332.000000)">
                        <g id="24x24/guest--dark">
                            <g>
                                <rect id="Rectangle" x="0" y="0" width="24" height="24"></rect>
                                <rect id="Rectangle-2" stroke="#414852" stroke-width="1.5" x="3.75" y="3.75" width="16.5" height="16.5" rx="2"></rect>
                                <path d="M6.00221744,20 C6.00221744,16.25 10.5005544,17 10.5005544,15.5 C10.5005544,15.5 10.5868711,14.5040604 10.0910892,14 C9.47346184,13.3752056 9.00110872,12.6242265 9.00110872,11.375 C9.00110872,9.51103897 10.3437581,8 12,8 C13.6562419,8 14.9988913,9.51103897 14.9988913,11.375 C14.9988913,12.6066322 14.5388905,13.3741583 13.8940366,14 C13.4228853,14.4914199 13.4994456,15.5 13.4994456,15.5 C13.4994456,17 17.9977826,16.25 17.9977826,20" id="Combined-Shape" stroke="#414852" stroke-width="1.5"></path>
                            </g>
                        </g>
                    </g>
                </g>
            </g>
        </g>
    </g>
</svg>