<?xml version="1.0" encoding="UTF-8"?>
<svg width="23px" height="22px" viewBox="0 0 23 22" version="1.1" xmlns="http://www.w3.org/2000/svg" xmlns:xlink="http://www.w3.org/1999/xlink">
    <!-- Generator: Sketch 47 (45396) - http://www.bohemiancoding.com/sketch -->
    <title>24x24/message--dark</title>
    <desc>Created with Sketch.</desc>
    <defs></defs>
    <g id="homepage" stroke="none" stroke-width="1" fill="none" fill-rule="evenodd">
        <g transform="translate(-911.000000, -2003.000000)" id="enterprise-features">
            <g transform="translate(0.000000, 1514.000000)">
                <g id="Group-17" transform="translate(728.000000, 120.000000)">
                    <g id="Group-33" transform="translate(182.000000, 368.000000)">
                        <g id="24x24/message--dark">
                            <g>
                                <rect id="Rectangle" x="0" y="0" width="24" height="24"></rect>
                                <path d="M13.2,21.6 C14.6622416,21.6 21.6,21.7523392 22.8,19.2 C23.4070751,17.908782 19.3303856,17.9083227 20.4,15.6 C20.8693441,14.4681291 21.6,13.3016176 21.6,12 C21.6,6.6980664 17.3019336,2.4 12,2.4 C6.6980664,2.4 2.4,6.6980664 2.4,12 C2.4,17.3019336 6.6980664,21.6 13.2,21.6 Z" id="Oval-3" stroke="#414852" stroke-width="1.5"></path>
                                <path d="M7.8,10.2 L15.099315,10.2" id="Line" stroke="#414852" stroke-width="1.5"></path>
                                <path d="M7.8,13.8 L16.299315,13.8" id="Line" stroke="#414852" stroke-width="1.5"></path>
                            </g>
                        </g>
                    </g>
                </g>
            </g>
        </g>
    </g>
</svg>