<?xml version="1.0" encoding="UTF-8"?>
<svg width="24px" height="20px" viewBox="0 0 24 20" version="1.1" xmlns="http://www.w3.org/2000/svg" xmlns:xlink="http://www.w3.org/1999/xlink">
    <!-- Generator: Sketch 47 (45396) - http://www.bohemiancoding.com/sketch -->
    <title>24x24/unlimited_users--dark</title>
    <desc>Created with Sketch.</desc>
    <defs></defs>
    <g id="homepage" stroke="none" stroke-width="1" fill="none" fill-rule="evenodd">
        <g transform="translate(-728.000000, -1968.000000)" id="enterprise-features">
            <g transform="translate(0.000000, 1514.000000)">
                <g id="Group-17" transform="translate(728.000000, 120.000000)">
                    <g id="Group-33" transform="translate(0.000000, 332.000000)">
                        <g id="24x24/unlimited_users--dark">
                            <g id="24x24/team--dark">
                                <g id="24x24/user--dark">
                                    <g id="Rectangle">
                                        <rect x="0" y="0" width="24" height="24"></rect>
                                    </g>
                                </g>
                                <path d="M6,20.1064879 C6,16.3232104 10.5,17.0798659 10.5,15.5665549 C10.5,15.5665549 10.5863487,14.5617774 10.0903834,14.0532439 C9.47252775,13.4229051 9,12.6652618 9,11.4049497 C9,9.52444791 10.3431458,8 12,8 C13.6568542,8 15,9.52444791 15,11.4049497 C15,12.6475114 14.5398292,13.4218485 13.8947368,14.0532439 C13.4234114,14.5490247 13.5,15.5665549 13.5,15.5665549 C13.5,17.0798659 18,16.3232104 18,20.1064879 C18,20.1064879 16.8053159,21 12,21 C7.19468411,21 6,20.1064879 6,20.1064879 Z" id="Combined-Shape" stroke="#414852" stroke-width="1.5"></path>
                                <path d="M5.48594866,15.9674583 C4.91706688,15.9417194 4.41530601,15.9021154 3.97376372,15.8537517 C1.66033036,15.6003533 1,15.1064879 1,15.1064879 C1,11.3232104 5.5,12.0798659 5.5,10.5665549 C5.5,10.5665549 5.58634868,9.5617774 5.09038343,9.05324393 C4.47252775,8.42290511 4,7.66526181 4,6.40494971 C4,4.52444791 5.34314575,3 7,3 C8.65685425,3 10,4.52444791 10,6.40494971" id="Combined-Shape" stroke="#414852" stroke-width="1.5"></path>
                                <path d="M18.4859487,15.9674583 C17.9170669,15.9417194 17.415306,15.9021154 16.9737637,15.8537517 C14.6603304,15.6003533 14,15.1064879 14,15.1064879 C14,11.3232104 18.5,12.0798659 18.5,10.5665549 C18.5,10.5665549 18.5863487,9.5617774 18.0903834,9.05324393 C17.4725278,8.42290511 17,7.66526181 17,6.40494971 C17,4.52444791 18.3431458,3 20,3 C21.6568542,3 23,4.52444791 23,6.40494971" id="Combined-Shape" stroke="#414852" stroke-width="1.5" transform="translate(18.500000, 9.483729) scale(-1, 1) translate(-18.500000, -9.483729) "></path>
                            </g>
                        </g>
                    </g>
                </g>
            </g>
        </g>
    </g>
</svg>