<?xml version="1.0" encoding="utf-8"?>
<!-- Generator: Adobe Illustrator 16.0.0, SVG Export Plug-In . SVG Version: 6.00 Build 0)  -->
<!DOCTYPE svg PUBLIC "-//W3C//DTD SVG 1.1//EN" "http://www.w3.org/Graphics/SVG/1.1/DTD/svg11.dtd">
<svg version="1.1" id="Слой_1" xmlns="http://www.w3.org/2000/svg" xmlns:xlink="http://www.w3.org/1999/xlink" x="0px" y="0px"
	 width="3685.039px" height="4365.355px" viewBox="1189.48 913.823 3685.039 4365.355"
	 enable-background="new 1189.48 913.823 3685.039 4365.355" xml:space="preserve">
<path fill="#EFEEED" d="M4832,5077.164c0,99.044-78.837,179.336-176.087,179.336H1408.087c-97.25,0-176.087-80.292-176.087-179.336
	V1115.836c0-99.044,78.837-179.336,176.087-179.336h3247.826c97.25,0,176.087,80.291,176.087,179.336V5077.164z"/>
<rect x="1592" y="1296.5" fill="#D8D8D8" width="2880" height="3600"/>
<circle fill="#5D5D5D" cx="3068.862" cy="1132.5" r="60"/>
<circle opacity="0.15" fill="#101111" enable-background="new    " cx="3068.862" cy="5084.483" r="120"/>
<path fill="none" stroke="#686665" stroke-width="7" stroke-miterlimit="10" d="M3110.862,5109.683
	c0,9.278-7.521,16.801-16.801,16.801h-50.399c-9.278,0-16.8-7.521-16.8-16.801v-50.399c0-9.278,7.521-16.8,16.8-16.8h50.399
	c9.279,0,16.801,7.521,16.801,16.8V5109.683z"/>
<g enable-background="new    ">
	<path fill="#5A5B5B" d="M1753.074,2471.344v-669.188l492.179,478.051v-435.439h101.845v664.726l-492.179-476.833v438.688h-101.845
		V2471.344z"/>
	<path fill="#5A5B5B" d="M2863.335,1933.639h-270.566v150.559h262.698v88.873h-262.698v209.401h270.566v88.873h-372.412v-626.578
		h372.412V1933.639z"/>
	<path fill="#5A5B5B" d="M3012.404,1844.766l175.716,418.802l183.583-449.237l175.716,449.237l186.645-418.802h110.587
		l-301.603,666.349l-173.529-443.961l-180.961,444.366l-286.739-666.754H3012.404L3012.404,1844.766z"/>
	<path fill="#5A5B5B" d="M4275.213,1937.697l-82.612,45.451c-15.449-24.889-30.16-41.121-44.146-48.698
		c-14.574-8.655-33.37-12.986-56.386-12.986c-28.27,0-51.729,7.451-70.374,22.339c-18.652,14.622-27.976,33.03-27.976,55.229
		c0,30.595,24.479,55.229,73.435,73.909l67.312,25.585c54.781,20.583,94.853,45.691,120.203,75.336
		c25.354,29.648,38.028,65.996,38.028,109.037c0,57.671-20.694,105.322-62.067,142.955c-41.676,37.904-93.396,56.853-155.172,56.853
		c-58.572,0-106.947-16.17-145.118-48.515c-37.591-32.312-61.052-77.694-70.374-136.132l103.156-21.104
		c4.657,36.796,12.818,62.229,24.479,76.294c20.98,27.057,51.578,40.581,91.791,40.581c31.759,0,58.135-9.866,79.116-29.599
		c20.979-19.733,31.472-44.741,31.472-75.025c0-12.162-1.824-23.314-5.463-33.454c-3.647-10.14-9.33-19.467-17.049-27.981
		c-7.724-8.517-17.701-16.493-29.94-23.924c-12.237-7.433-26.813-14.534-43.71-21.293l-65.129-25.143
		c-92.379-36.227-138.562-89.216-138.562-158.966c0-47.036,19.377-86.375,58.136-118.003
		c38.752-31.901,86.982-47.854,144.682-47.854C4170.745,1832.591,4231.503,1867.631,4275.213,1937.697z"/>
</g>
<rect x="1755.445" y="2588.79" fill="#D6B36D" width="839.999" height="840"/>
<rect x="2756.555" y="2588.79" opacity="0.2" fill="#101111" enable-background="new    " width="1552" height="840"/>
<rect x="1759.39" y="3578.76" opacity="0.2" fill="#101111" enable-background="new    " width="2553.11" height="1317.74"/>
<g enable-background="new    ">
	<path fill="#5A5B5B" d="M1753.377,1751.031v-377.086h64.168c28.579,0,51.351,1.954,68.315,5.86
		c17.148,3.907,31.623,10.502,43.426,19.782c11.982,9.609,21.479,21.576,28.488,35.901c7.19,14.493,10.787,29.146,10.787,43.961
		c0,27.029-11.713,49.906-35.127,68.628c22.68,6.838,40.562,18.806,53.657,35.901c13.275,16.936,19.914,36.634,19.914,59.103
		c0,29.472-11.803,54.383-35.403,74.733c-14.201,12.539-30.146,21.248-47.85,26.132c-19.361,4.725-43.609,7.083-72.742,7.083
		L1753.377,1751.031L1753.377,1751.031z M1817.821,1535.867h20.189c23.969,0,41.531-4.679,52.69-14.043
		c11.153-9.36,16.733-23.159,16.733-41.396c0-17.744-5.719-31.219-17.148-40.419c-11.436-9.197-28.03-13.799-49.786-13.799h-22.681
		v109.657H1817.821z M1817.821,1697.546h39.828c29.133,0,50.521-5.045,64.168-15.143c14.383-10.906,21.574-24.747,21.574-41.52
		c0-16.279-6.916-29.956-20.744-41.029c-13.463-10.906-37.524-16.362-72.188-16.362h-32.638V1697.546z"/>
	<path fill="#5A5B5B" d="M2142.005,1373.945v226.963c0,32.379,5.99,56.05,17.979,71.017c17.884,21.641,43.053,32.459,75.509,32.459
		c32.638,0,57.896-10.818,75.784-32.459c11.983-14.479,17.979-38.152,17.979-71.017v-226.963h64.445v242.762
		c0,39.729-14.017,72.455-42.042,98.179c-31.53,28.658-70.253,42.983-116.166,42.983s-84.545-14.325-115.89-42.983
		c-28.03-25.724-42.041-58.45-42.041-98.179v-242.762H2142.005z"/>
	<path fill="#5A5B5B" d="M2726.733,1429.873l-52.274,27.354c-9.774-14.979-19.084-24.747-27.935-29.309
		c-9.224-5.209-21.116-7.813-35.681-7.813c-17.888,0-32.731,4.482-44.53,13.442c-11.803,8.801-17.701,19.878-17.701,33.238
		c0,18.412,15.488,33.237,46.467,44.479l42.595,15.397c34.664,12.387,60.02,27.499,76.062,45.339
		c16.042,17.844,24.062,39.717,24.062,65.62c0,34.707-13.095,63.385-39.274,86.033c-26.371,22.812-59.099,34.214-98.188,34.214
		c-37.062,0-67.673-9.73-91.826-29.196c-23.786-19.446-38.632-46.758-44.53-81.927l65.273-12.699
		c2.947,22.146,8.112,37.45,15.489,45.914c13.275,16.283,32.637,24.423,58.083,24.423c20.096,0,36.786-5.938,50.062-17.812
		c13.276-11.875,19.914-26.927,19.914-45.151c0-7.319-1.153-14.031-3.457-20.133c-2.308-6.104-5.902-11.716-10.787-16.841
		c-4.888-5.125-11.201-9.926-18.945-14.397s-16.967-8.746-27.658-12.813l-41.212-15.132c-58.455-21.801-87.678-53.69-87.678-95.668
		c0-28.308,12.261-51.981,36.786-71.017c24.521-19.198,55.039-28.8,91.55-28.8
		C2660.63,1366.618,2699.075,1387.706,2726.733,1429.873z"/>
	<path fill="#5A5B5B" d="M2869.201,1373.945v377.086h-64.444v-377.086H2869.201L2869.201,1373.945z"/>
	<path fill="#5A5B5B" d="M2961.052,1751.031v-402.729L3272.488,1636v-262.055h64.444v400.043l-311.438-286.966v264.009H2961.052z"/>
	<path fill="#5A5B5B" d="M3664.159,1427.431h-171.207v90.608h166.229v53.485h-166.229v126.021h171.207v53.485h-235.651v-377.086
		h235.651V1427.431L3664.159,1427.431z"/>
	<path fill="#5A5B5B" d="M3979.493,1429.873l-52.275,27.354c-9.774-14.979-19.084-24.747-27.935-29.309
		c-9.224-5.209-21.116-7.813-35.681-7.813c-17.888,0-32.731,4.482-44.53,13.442c-11.802,8.801-17.701,19.878-17.701,33.238
		c0,18.412,15.489,33.237,46.467,44.479l42.595,15.397c34.664,12.387,60.02,27.499,76.062,45.339
		c16.042,17.844,24.063,39.717,24.063,65.62c0,34.707-13.096,63.385-39.275,86.033c-26.371,22.812-59.1,34.214-98.188,34.214
		c-37.062,0-67.674-9.73-91.827-29.196c-23.786-19.446-38.632-46.758-44.53-81.927l65.273-12.699
		c2.947,22.146,8.112,37.45,15.489,45.914c13.276,16.283,32.638,24.423,58.083,24.423c20.096,0,36.786-5.938,50.062-17.812
		c13.275-11.875,19.914-26.927,19.914-45.151c0-7.319-1.154-14.031-3.457-20.133c-2.309-6.104-5.903-11.716-10.787-16.841
		c-4.889-5.125-11.202-9.926-18.946-14.397s-16.967-8.746-27.658-12.813l-41.212-15.132c-58.455-21.801-87.678-53.69-87.678-95.668
		c0-28.308,12.261-51.981,36.786-71.017c24.521-19.198,55.04-28.8,91.55-28.8
		C3913.389,1366.618,3951.834,1387.706,3979.493,1429.873z"/>
	<path fill="#5A5B5B" d="M4298.976,1429.873l-52.275,27.354c-9.775-14.979-19.084-24.747-27.936-29.309
		c-9.223-5.209-21.115-7.813-35.68-7.813c-17.889,0-32.732,4.482-44.531,13.442c-11.801,8.801-17.701,19.878-17.701,33.238
		c0,18.412,15.489,33.237,46.467,44.479l42.596,15.397c34.664,12.387,60.02,27.499,76.061,45.339
		c16.043,17.844,24.063,39.717,24.063,65.62c0,34.707-13.095,63.385-39.274,86.033c-26.371,22.812-59.1,34.214-98.188,34.214
		c-37.062,0-67.673-9.73-91.827-29.196c-23.785-19.446-38.631-46.758-44.529-81.927l65.273-12.699
		c2.947,22.146,8.111,37.45,15.488,45.914c13.276,16.283,32.638,24.423,58.084,24.423c20.096,0,36.785-5.938,50.062-17.812
		s19.914-26.927,19.914-45.151c0-7.319-1.153-14.031-3.457-20.133c-2.308-6.104-5.903-11.716-10.787-16.841
		c-4.888-5.125-11.202-9.926-18.946-14.397c-7.743-4.472-16.967-8.746-27.658-12.813l-41.211-15.132
		c-58.455-21.801-87.679-53.69-87.679-95.668c0-28.308,12.261-51.981,36.786-71.017c24.521-19.198,55.04-28.8,91.55-28.8
		C4232.87,1366.618,4271.315,1387.706,4298.976,1429.873z"/>
</g>
<g>
	<g>
		<ellipse fill="#BA5648" cx="2174.815" cy="3248.101" rx="88.703" ry="27.724"/>
		<rect x="2086.111" y="2742.414" fill="#BA5648" width="177.407" height="505.688"/>
		<ellipse fill="#A54B42" cx="2174.815" cy="2742.414" rx="88.703" ry="27.724"/>
	</g>
	<g>
		<g>
			<rect x="1867.554" y="2843.318" fill="#84A5AA" width="177.408" height="404.489"/>
		</g>
		<ellipse fill="#7A9699" cx="1956.258" cy="2843.318" rx="88.704" ry="27.724"/>
		<ellipse fill="#84A5AA" cx="1956.258" cy="3247.808" rx="88.704" ry="27.724"/>
	</g>
	<g>
		<g>
			<rect x="2305.927" y="2932.452" fill="#86A080" width="177.408" height="315.356"/>
		</g>
		<ellipse fill="#788E73" cx="2394.632" cy="2932.451" rx="88.704" ry="27.724"/>
		<ellipse fill="#86A080" cx="2394.632" cy="3247.808" rx="88.704" ry="27.724"/>
	</g>
</g>
</svg>
